<svg width="94" height="100" viewBox="0 0 94 100" fill="none" xmlns="http://www.w3.org/2000/svg">
<path d="M49.1364 12.4892C49.1364 5.55771 52.9391 0 57.6818 0H72.6364C77.3364 0 81.1818 5.62015 81.1818 12.4892V25.9776C76.2255 28.5379 72.6364 35.407 72.6364 43.525V56.2015H49.1364V12.4892ZM21.3636 43.4625V56.2015H44.8636V12.4892C44.8636 5.55771 41.0609 0 36.3182 0H21.3636C16.6636 0 12.8182 5.62015 12.8182 12.4892V25.9151C17.7745 28.4754 21.3636 35.407 21.3636 43.4625ZM84.0018 31.4104C79.8145 32.4095 76.9091 38.217 76.9091 44.4616V62.4461H17.0909V43.7123C17.0909 40.3999 16.1906 37.2233 14.588 34.8811C12.9854 32.5389 10.8119 31.2231 8.54545 31.2231C6.27906 31.2231 4.10549 32.5389 2.50291 34.8811C0.900322 37.2233 0 40.3999 0 43.7123V74.9354C0 81.8044 3.84545 87.4246 8.54545 87.4246V99.9138H17.0909V87.4246H76.9091V99.9138H85.4545V87.4246C90.1546 87.4246 94 81.8044 94 74.9354V43.7123C94 36.1563 89.3427 30.099 84.0018 31.4104V31.4104Z" fill="#132235"/>
</svg>
