<svg width="30" height="30" viewBox="0 0 30 30" fill="none" xmlns="http://www.w3.org/2000/svg">
<path d="M25 9.41406C24.2708 9.73958 23.4831 9.96094 22.6367 10.0781C23.5221 9.55729 24.1276 8.79557 24.4531 7.79297C23.6068 8.28776 22.7344 8.61979 21.8359 8.78906C21.0417 7.92969 20.0456 7.5 18.8477 7.5C17.7148 7.5 16.748 7.90039 15.9473 8.70117C15.1465 9.50195 14.7461 10.4688 14.7461 11.6016C14.7461 11.9792 14.7786 12.2917 14.8438 12.5391C13.1641 12.4479 11.5885 12.0247 10.1172 11.2695C8.64583 10.5143 7.39583 9.50521 6.36719 8.24219C5.98958 8.89323 5.80078 9.58333 5.80078 10.3125C5.80078 11.7969 6.39323 12.9362 7.57812 13.7305C6.96615 13.7174 6.3151 13.5482 5.625 13.2227V13.2617C5.625 14.2383 5.95052 15.1074 6.60156 15.8691C7.2526 16.6309 8.05339 17.1029 9.00391 17.2852C8.6263 17.3893 8.29427 17.4414 8.00781 17.4414C7.83854 17.4414 7.58464 17.4154 7.24609 17.3633C7.51953 18.1836 8.00456 18.8607 8.70117 19.3945C9.39779 19.9284 10.1888 20.2018 11.0742 20.2148C9.5638 21.3867 7.86458 21.9727 5.97656 21.9727C5.63802 21.9727 5.3125 21.9531 5 21.9141C6.92708 23.138 9.02344 23.75 11.2891 23.75C12.7474 23.75 14.1146 23.5189 15.3906 23.0566C16.6667 22.5944 17.7604 21.9759 18.6719 21.2012C19.5833 20.4264 20.3678 19.5345 21.0254 18.5254C21.6829 17.5163 22.1712 16.4616 22.4902 15.3613C22.8092 14.2611 22.9688 13.1641 22.9688 12.0703C22.9688 11.8359 22.9622 11.6602 22.9492 11.543C23.7695 10.957 24.4531 10.2474 25 9.41406ZM30 5.625V24.375C30 25.9245 29.4499 27.2493 28.3496 28.3496C27.2493 29.4499 25.9245 30 24.375 30H5.625C4.07552 30 2.75065 29.4499 1.65039 28.3496C0.55013 27.2493 0 25.9245 0 24.375V5.625C0 4.07552 0.55013 2.75065 1.65039 1.65039C2.75065 0.55013 4.07552 0 5.625 0H24.375C25.9245 0 27.2493 0.55013 28.3496 1.65039C29.4499 2.75065 30 4.07552 30 5.625Z" fill="white"/>
</svg>
