<svg width="460" height="343" viewBox="0 0 460 343" fill="none" xmlns="http://www.w3.org/2000/svg">
<path d="M460 301.423H0V301.653H460V301.423Z" fill="#6DDAD3"/>
<path d="M78.7336 310.188H48.2632V310.418H78.7336V310.188Z" fill="#6DDAD3"/>
<path d="M165.444 307.693H157.449V307.923H165.444V307.693Z" fill="#6DDAD3"/>
<path d="M97.3084 318.741H79.6536V318.971H97.3084V318.741Z" fill="#6DDAD3"/>
<path d="M413.908 317.194H374.173V317.424H413.908V317.194Z" fill="#6DDAD3"/>
<path d="M365.976 317.194H360.152V317.424H365.976V317.194Z" fill="#6DDAD3"/>
<path d="M341.219 313.309H255.033V313.539H341.219V313.309Z" fill="#6DDAD3"/>
<path d="M218.04 260.362H40.4064C39.0132 260.362 37.677 259.808 36.6918 258.822C35.7067 257.836 35.1532 256.499 35.1532 255.105V5.21092C35.1653 3.82468 35.7241 2.49935 36.708 1.52342C37.6918 0.54748 39.0211 -5.31458e-05 40.4064 3.86911e-09H218.04C219.433 3.86912e-09 220.769 0.553856 221.755 1.53973C222.74 2.5256 223.293 3.86272 223.293 5.25695V255.105C223.293 256.499 222.74 257.836 221.755 258.822C220.769 259.808 219.433 260.362 218.04 260.362V260.362ZM40.4064 0.184132C39.0749 0.186566 37.7987 0.716953 36.8571 1.65913C35.9156 2.60131 35.3856 3.87848 35.3832 5.21092V255.105C35.3856 256.437 35.9156 257.714 36.8571 258.657C37.7987 259.599 39.0749 260.129 40.4064 260.132H218.04C219.371 260.129 220.648 259.599 221.589 258.657C222.531 257.714 223.061 256.437 223.063 255.105V5.21092C223.061 3.87848 222.531 2.60131 221.589 1.65913C220.648 0.716953 219.371 0.186566 218.04 0.184132H40.4064Z" fill="#6DDAD3"/>
<path d="M417.045 260.362H239.393C238.001 260.359 236.666 259.805 235.681 258.819C234.697 257.834 234.142 256.498 234.14 255.105V5.21092C234.155 3.82543 234.714 2.5015 235.697 1.52607C236.681 0.550653 238.009 0.0023461 239.393 0H417.045C418.427 0.00479156 419.752 0.554465 420.732 1.52988C421.712 2.5053 422.268 3.82786 422.28 5.21092V255.105C422.28 256.496 421.729 257.83 420.748 258.816C419.767 259.801 418.435 260.357 417.045 260.362V260.362ZM239.393 0.184132C238.062 0.186566 236.785 0.716953 235.844 1.65913C234.902 2.60131 234.372 3.87848 234.37 5.21092V255.105C234.372 256.437 234.902 257.714 235.844 258.657C236.785 259.599 238.062 260.129 239.393 260.132H417.045C418.377 260.129 419.653 259.599 420.594 258.657C421.536 257.714 422.066 256.437 422.068 255.105V5.21092C422.066 3.87848 421.536 2.60131 420.594 1.65913C419.653 0.716953 418.377 0.186566 417.045 0.184132H239.393Z" fill="#6DDAD3"/>
<path d="M233.928 17.1979H56.4788V215.13H233.928V17.1979Z" fill="#6DDAD3"/>
<path d="M239.688 17.1979H59.1652V215.13H239.688V17.1979Z" fill="#6DDAD3"/>
<path d="M233.928 215.13H56.4788V225.856H233.928V215.13Z" fill="#6DDAD3"/>
<path d="M267.085 215.13H86.5628V225.856H267.085V215.13Z" fill="#F0F0F0"/>
<path d="M231.619 207.047V25.272L67.2428 25.272V207.047H231.619Z" fill="#FAFAFA"/>
<path d="M73.922 207.047L121.32 25.272H143.695L96.2964 207.047H73.922Z" fill="white"/>
<path d="M70.9872 129.813C70.8335 129.813 70.6861 129.752 70.5774 129.643C70.4687 129.534 70.4076 129.387 70.4076 129.233V30.5291C70.4253 30.389 70.4935 30.2602 70.5994 30.1668C70.7052 30.0735 70.8415 30.022 70.9826 30.022C71.1237 30.022 71.2599 30.0735 71.3658 30.1668C71.4717 30.2602 71.5399 30.389 71.5576 30.5291V129.196C71.5626 129.274 71.5516 129.353 71.5253 129.427C71.499 129.501 71.4579 129.569 71.4046 129.627C71.3512 129.684 71.2867 129.731 71.215 129.763C71.1432 129.795 71.0657 129.812 70.9872 129.813V129.813Z" fill="#F1F1F1"/>
<path d="M101.099 207.047L148.497 25.272H157.219L109.83 207.047H101.099Z" fill="white"/>
<path d="M231.628 207.056V25.2811H230.607V207.056H231.628Z" fill="#6DDAD3"/>
<path d="M241.601 33.9999H64.1516L63.4064 28.4115H240.865L241.601 33.9999Z" fill="#6DDAD3"/>
<path d="M241.601 38.0967H64.1516L63.4064 32.5083H240.865L241.601 38.0967Z" fill="#6DDAD3"/>
<path d="M241.601 43.0038H64.1516L63.4064 37.4154H240.865L241.601 43.0038Z" fill="#6DDAD3"/>
<path d="M241.601 48.4634H64.1516L63.4064 42.875H240.865L241.601 48.4634Z" fill="#6DDAD3"/>
<path d="M241.601 55.0092H64.1516L63.4064 49.4208H240.865L241.601 55.0092Z" fill="#6DDAD3"/>
<path d="M241.601 62.3745H64.1516L63.4064 56.7861H240.865L241.601 62.3745Z" fill="#6DDAD3"/>
<path d="M71.4564 202.765H91.2916V204.726H90.0312L89.0008 215.13H73.738L72.7076 204.726H71.4564V202.765Z" fill="#6DDAD3"/>
<path d="M69.9936 184.546C69.736 183.68 69.506 182.806 69.2852 181.931C67.988 183.616 66.7276 184.039 65.7892 184.039H65.4856C63.6456 183.855 61.8056 182.051 60.7108 179.206C60.6856 179.154 60.6725 179.098 60.6725 179.04C60.6725 178.983 60.6856 178.926 60.7108 178.874C60.7352 178.823 60.7711 178.778 60.8158 178.743C60.8605 178.708 60.9127 178.684 60.9684 178.672C62.303 178.332 63.6943 178.278 65.0513 178.512C66.4083 178.747 67.7006 179.266 68.8436 180.035C68.6688 179.206 68.5308 178.377 68.4112 177.549C68.1081 177.608 67.8001 177.639 67.4912 177.641C64.4552 177.641 62.2196 174.925 62.1184 174.796C62.0795 174.747 62.0527 174.689 62.04 174.627C62.0272 174.566 62.0289 174.502 62.045 174.442C62.0611 174.381 62.091 174.325 62.1325 174.278C62.174 174.23 62.2258 174.194 62.284 174.17C62.9923 173.81 63.77 173.607 64.5639 173.575C65.3578 173.543 66.1492 173.683 66.884 173.986C67.6795 174.385 68.3249 175.031 68.724 175.827C69.2949 174.084 70.3341 172.531 71.7281 171.339C73.122 170.147 74.8167 169.362 76.6268 169.069C76.6831 169.056 76.7418 169.055 76.7985 169.067C76.8552 169.079 76.9085 169.103 76.9545 169.139C77.0004 169.174 77.0378 169.219 77.0639 169.271C77.09 169.323 77.1041 169.38 77.1052 169.438C77.2616 172.2 77.1788 175.579 75.1088 177.19C74.2475 177.824 73.197 178.149 72.128 178.11C71.1683 178.087 70.2157 177.938 69.2944 177.668C69.5903 179.661 70.0143 181.632 70.564 183.57C72.5859 180.818 75.4517 178.804 78.7244 177.834C78.8268 177.809 78.9351 177.824 79.0262 177.878C79.1172 177.931 79.1839 178.018 79.212 178.12C79.8376 180.495 79.5156 182.428 78.292 183.699C77.6714 184.26 76.9442 184.69 76.1539 184.963C75.3636 185.237 74.5263 185.349 73.692 185.291C72.7926 185.28 71.8963 185.185 71.0148 185.006C71.5208 186.636 72.0912 188.228 72.6984 189.747C73.9404 188.652 77.5836 185.862 81.5488 187.032C81.6034 187.046 81.6541 187.072 81.6971 187.109C81.7401 187.146 81.7743 187.192 81.7972 187.243C81.8198 187.294 81.8314 187.349 81.8314 187.404C81.8314 187.46 81.8198 187.515 81.7972 187.565C80.7208 190.199 79.4972 191.653 77.9516 192.169C77.5411 192.299 77.1127 192.364 76.682 192.362C75.5144 192.306 74.3765 191.975 73.3608 191.395C74.2256 193.402 75.118 195.29 75.9828 196.965C76.9028 195.962 79.4604 193.881 83.9776 194.848C84.0726 194.868 84.1569 194.922 84.2146 195C84.2722 195.078 84.2992 195.175 84.2904 195.271C84.1902 196.115 83.8707 196.918 83.3639 197.6C82.857 198.281 82.1804 198.818 81.4016 199.157C80.8203 199.406 80.1942 199.535 79.5616 199.534C78.6697 199.519 77.7937 199.295 77.004 198.88C79.0096 202.563 80.6104 204.92 80.684 204.975C80.7267 205.063 80.7364 205.163 80.7114 205.257C80.6864 205.351 80.6284 205.433 80.5479 205.488C80.4675 205.542 80.37 205.566 80.2733 205.555C80.1767 205.544 80.0873 205.498 80.0216 205.426C78.4271 203.011 76.9622 200.512 75.6332 197.941C75.6048 197.906 75.583 197.865 75.5688 197.822C75.302 197.315 75.0444 196.8 74.7776 196.266C74.3227 196.951 73.7103 197.518 72.9916 197.919C72.273 198.319 71.4689 198.542 70.6468 198.567C70.4783 198.576 70.3093 198.576 70.1408 198.567C69.232 198.463 68.3697 198.109 67.649 197.545C66.9282 196.982 66.377 196.23 66.056 195.373C66.0229 195.284 66.0234 195.187 66.0573 195.098C66.0912 195.01 66.1562 194.937 66.24 194.894C67.4086 194.234 68.7174 193.862 70.0581 193.809C71.3988 193.757 72.7328 194.024 73.9496 194.59C73.3792 193.366 72.7996 192.067 72.2476 190.714C72.2167 190.663 72.1949 190.607 72.1832 190.548C72.0268 190.162 71.8704 189.775 71.7232 189.388C70.3984 191.064 69.0736 191.883 67.7028 191.883C66.0284 191.883 64.3448 190.65 62.5416 188.118C62.4796 188.034 62.4535 187.928 62.469 187.825C62.4846 187.721 62.5404 187.628 62.6244 187.565C65.458 185.439 69.3496 186.893 71.116 187.74C70.7572 186.746 70.4168 185.724 70.104 184.684L69.9936 184.546Z" fill="#6DDAD3"/>
<path d="M90.7764 195.253C90.1446 195.449 89.4875 195.552 88.826 195.557C88.0138 195.567 87.2102 195.389 86.4775 195.039C85.7448 194.688 85.1026 194.173 84.6009 193.533C84.0991 192.894 83.7512 192.148 83.5841 191.353C83.4169 190.557 83.4351 189.734 83.6372 188.946C83.6592 188.854 83.7149 188.774 83.7932 188.721C83.8716 188.668 83.967 188.647 84.0604 188.661C85.6092 188.815 87.0985 189.338 88.4032 190.187C89.708 191.036 90.79 192.186 91.5584 193.541C92.4784 191.534 93.3156 189.407 94.07 187.197C93.1053 187.749 92.0241 188.064 90.9144 188.118C90.4763 188.119 90.0412 188.047 89.6264 187.906C87.4368 187.16 86.1212 184.481 85.0264 181.692C85.0036 181.639 84.9918 181.583 84.9918 181.526C84.9918 181.469 85.0036 181.413 85.0264 181.36C85.0499 181.31 85.0844 181.266 85.1274 181.231C85.1704 181.195 85.2208 181.171 85.2748 181.158C89.7736 179.906 93.4168 184.205 94.5484 185.761C95.1432 183.908 95.6377 182.024 96.0296 180.117C95.0922 180.294 94.1407 180.387 93.1868 180.394C92.2362 180.461 91.282 180.332 90.3832 180.015C89.4843 179.699 88.66 179.201 87.9612 178.552C86.618 177.125 86.296 174.989 87.0412 172.375C87.054 172.324 87.0769 172.276 87.1085 172.234C87.1401 172.191 87.1797 172.156 87.2251 172.129C87.2705 172.103 87.3208 172.086 87.3729 172.079C87.425 172.072 87.478 172.075 87.5288 172.089C91.0934 173.217 94.1917 175.48 96.3516 178.534L96.5172 177.512C96.5289 177.425 96.5675 177.345 96.6276 177.282C96.8087 176.632 97.1209 176.027 97.545 175.502C97.969 174.978 98.4959 174.547 99.0932 174.234C100.427 173.599 102.111 173.691 104.089 174.501C104.148 174.526 104.2 174.563 104.242 174.612C104.283 174.66 104.313 174.717 104.328 174.779C104.343 174.841 104.344 174.906 104.329 174.968C104.315 175.03 104.286 175.088 104.245 175.137C104.126 175.275 101.678 178.175 98.3756 178.175C98.0234 178.169 97.6725 178.132 97.3268 178.064C97.1796 178.985 97.0048 179.961 96.7932 180.9C98.0644 180.061 99.4992 179.501 101.003 179.258C102.506 179.015 104.044 179.095 105.515 179.491C105.57 179.507 105.621 179.533 105.665 179.57C105.709 179.606 105.745 179.652 105.77 179.703C105.795 179.754 105.809 179.81 105.811 179.868C105.813 179.925 105.803 179.982 105.782 180.035C104.494 183.146 102.516 185.098 100.464 185.273H100.188C99.1484 185.273 97.75 184.794 96.324 182.879C95.7524 185.061 95.0707 187.212 94.2816 189.324C96.2136 188.403 100.556 186.829 103.656 189.232C103.737 189.297 103.79 189.391 103.803 189.493C103.817 189.596 103.791 189.7 103.73 189.784C101.734 192.546 99.8752 193.844 98.0628 193.844C96.554 193.844 95.1096 192.924 93.6744 191.018C92.8464 193.08 91.9632 195.041 91.08 196.855C93.0028 195.658 95.128 195.842 97.6304 197.426C97.6845 197.461 97.7294 197.508 97.7614 197.565C97.7934 197.621 97.8116 197.683 97.8144 197.748C97.8158 197.814 97.8016 197.879 97.7728 197.938C97.744 197.998 97.7015 198.049 97.6488 198.089C96.1385 199.113 94.3745 199.699 92.552 199.783C91.6056 199.798 90.6784 199.515 89.9024 198.972C88.1955 202.288 86.2907 205.498 84.1984 208.584C84.1571 208.643 84.102 208.692 84.038 208.726C83.9739 208.759 83.9027 208.777 83.8304 208.777C83.7409 208.777 83.654 208.748 83.582 208.695C83.5341 208.661 83.4933 208.619 83.4618 208.57C83.4304 208.521 83.4089 208.466 83.3986 208.409C83.3884 208.352 83.3895 208.293 83.4021 208.236C83.4146 208.179 83.4382 208.125 83.4716 208.078C86.2338 203.998 88.676 199.71 90.7764 195.253V195.253Z" fill="#6DDAD3"/>
<path d="M393.226 88.0149H351.596V133.762H393.226V88.0149Z" fill="#6DDAD3"/>
<path d="M388.902 90.9333C388.863 90.9454 388.822 90.9454 388.783 90.9333C388.672 90.8689 377.568 84.2585 374.063 84.2585C370.558 84.2585 359.932 90.8689 359.83 90.9333C359.778 90.9648 359.715 90.9747 359.655 90.961C359.595 90.9473 359.542 90.911 359.508 90.8597C359.492 90.8345 359.481 90.8063 359.475 90.7766C359.47 90.747 359.471 90.7166 359.478 90.6872C359.485 90.6579 359.497 90.6303 359.515 90.6062C359.533 90.582 359.556 90.5617 359.582 90.5466C360.024 90.2704 370.401 83.7982 374.063 83.7982C377.724 83.7982 388.59 90.2428 389.05 90.5374C389.101 90.5714 389.137 90.6238 389.151 90.6838C389.165 90.7438 389.155 90.8068 389.123 90.8597C389.097 90.8913 389.062 90.9149 389.023 90.928C388.984 90.941 388.942 90.9428 388.902 90.9333V90.9333Z" fill="#6DDAD3"/>
<path d="M397.734 88.0149H354.734V133.762H397.734V88.0149Z" fill="#6DDAD3"/>
<path d="M394.137 130.162V91.6238H358.34V130.162H394.137Z" fill="white"/>
<path d="M377.2 115.542C376.624 115.546 376.051 115.61 375.489 115.736C375.633 115.242 375.707 114.731 375.71 114.217C375.711 112.97 375.271 111.763 374.468 110.81C374.869 110.939 375.288 111.007 375.71 111.013C376.71 111.023 377.685 110.694 378.475 110.079C379.265 109.465 379.824 108.601 380.061 107.628C380.299 106.655 380.2 105.63 379.782 104.721C379.364 103.811 378.65 103.069 377.757 102.617C376.865 102.164 375.845 102.027 374.865 102.228C373.884 102.429 373.001 102.955 372.357 103.722C371.714 104.489 371.349 105.451 371.321 106.452C371.293 107.454 371.604 108.435 372.204 109.236C371.48 108.971 370.707 108.868 369.939 108.933C369.171 108.998 368.427 109.23 367.758 109.613C367.088 109.996 366.511 110.52 366.065 111.149C365.619 111.778 365.315 112.497 365.176 113.256C365.036 114.014 365.063 114.794 365.255 115.541C365.448 116.288 365.801 116.984 366.289 117.58C366.778 118.176 367.391 118.659 368.085 118.994C368.78 119.329 369.539 119.508 370.309 119.52C369.596 120.734 369.221 122.117 369.224 123.525C369.224 125.103 369.691 126.647 370.568 127.959C371.444 129.272 372.69 130.295 374.148 130.899C375.605 131.503 377.209 131.661 378.756 131.353C380.303 131.045 381.725 130.285 382.84 129.169C383.956 128.052 384.715 126.63 385.023 125.082C385.331 123.533 385.173 121.929 384.569 120.47C383.966 119.011 382.943 117.765 381.631 116.888C380.32 116.011 378.778 115.542 377.2 115.542V115.542Z" fill="#6DDAD3"/>
<path d="M369.49 98.4366C369.492 99.3056 369.236 100.156 368.755 100.879C368.274 101.602 367.589 102.167 366.788 102.5C365.986 102.834 365.103 102.923 364.252 102.754C363.4 102.586 362.617 102.168 362.002 101.554C361.388 100.941 360.969 100.158 360.799 99.306C360.629 98.4539 360.715 97.5704 361.047 96.7674C361.379 95.9644 361.941 95.278 362.663 94.7951C363.385 94.3121 364.234 94.0543 365.102 94.0543C366.264 94.0567 367.377 94.5189 368.199 95.34C369.021 96.161 369.486 97.2743 369.49 98.4366V98.4366Z" fill="#6DDAD3"/>
<path d="M336.84 44.6151H289.791V96.31H336.84V44.6151Z" fill="#6DDAD3"/>
<path d="M331.034 46.7326C330.995 46.7419 330.954 46.7419 330.915 46.7326C330.804 46.6589 319.691 40.0486 316.195 40.0486C312.699 40.0486 302.073 46.6589 301.972 46.7233C301.946 46.7401 301.917 46.7516 301.886 46.757C301.856 46.7624 301.825 46.7616 301.795 46.7547C301.765 46.7479 301.737 46.735 301.712 46.717C301.687 46.6989 301.666 46.6761 301.65 46.6497C301.619 46.5982 301.609 46.5367 301.623 46.4782C301.636 46.4197 301.673 46.3689 301.723 46.3367C302.165 46.0605 312.533 39.5883 316.195 39.5883C319.856 39.5883 330.731 46.0329 331.191 46.3367C331.217 46.3518 331.24 46.372 331.257 46.3962C331.275 46.4204 331.288 46.448 331.295 46.4773C331.302 46.5066 331.303 46.537 331.298 46.5667C331.292 46.5963 331.281 46.6246 331.264 46.6497C331.238 46.6846 331.203 46.7111 331.162 46.7259C331.121 46.7406 331.077 46.7429 331.034 46.7326V46.7326Z" fill="#6DDAD3"/>
<path d="M341.927 44.6151H293.333V96.31H341.927V44.6151Z" fill="#6DDAD3"/>
<path d="M337.861 92.2314V48.6843H297.408V92.2314H337.861Z" fill="white"/>
<path d="M303.195 53.4902H302.487C301.679 53.4902 301.024 54.1456 301.024 54.9541V93.4191C301.024 94.2276 301.679 94.883 302.487 94.883H303.195C304.003 94.883 304.658 94.2276 304.658 93.4191V54.9541C304.658 54.1456 304.003 53.4902 303.195 53.4902Z" fill="#6DDAD3"/>
<path d="M314.962 74.1866H312.395H312.138V66.1124C312.138 65.7242 311.983 65.3518 311.709 65.0773C311.435 64.8028 311.063 64.6486 310.675 64.6486H308.117C307.729 64.6486 307.357 64.8028 307.083 65.0773C306.809 65.3518 306.654 65.7242 306.654 66.1124V93.3915C306.654 93.7797 306.809 94.152 307.083 94.4266C307.357 94.7011 307.729 94.8553 308.117 94.8553H310.675C310.986 94.8566 311.29 94.7565 311.54 94.5699C311.785 94.7576 312.086 94.8581 312.395 94.8553H314.962C315.35 94.8553 315.722 94.7011 315.996 94.4266C316.271 94.152 316.425 93.7797 316.425 93.3915V75.6504C316.425 75.4582 316.387 75.2678 316.313 75.0902C316.24 74.9126 316.132 74.7512 315.996 74.6153C315.861 74.4794 315.699 74.3716 315.522 74.298C315.344 74.2244 315.154 74.1866 314.962 74.1866Z" fill="#6DDAD3"/>
<path d="M329.02 63.2031H319.544C318.736 63.2031 318.081 63.8585 318.081 64.667V93.4099C318.081 94.2183 318.736 94.8737 319.544 94.8737H329.02C329.828 94.8737 330.482 94.2183 330.482 93.4099V64.667C330.482 63.8585 329.828 63.2031 329.02 63.2031Z" fill="#6DDAD3"/>
<path d="M331.292 59.7414C333.766 59.7414 335.772 57.734 335.772 55.2578C335.772 52.7815 333.766 50.7742 331.292 50.7742C328.818 50.7742 326.812 52.7815 326.812 55.2578C326.812 57.734 328.818 59.7414 331.292 59.7414Z" fill="#6DDAD3"/>
<path d="M168.489 202.701C168.489 209.56 175.904 215.13 185.049 215.13C194.194 215.13 201.609 209.56 201.609 202.701H168.489Z" fill="#6DDAD3"/>
<path d="M230 343C328.516 343 408.379 338.334 408.379 332.578C408.379 326.822 328.516 322.156 230 322.156C131.484 322.156 51.6212 326.822 51.6212 332.578C51.6212 338.334 131.484 343 230 343Z" fill="#6DDAD3"/>
<path d="M315.22 333.6C324.401 333.6 331.844 333.143 331.844 332.578C331.844 332.014 324.401 331.556 315.22 331.556C306.038 331.556 298.595 332.014 298.595 332.578C298.595 333.143 306.038 333.6 315.22 333.6Z" fill="#E6E6E6"/>
<path d="M202.29 308.411H347.622C361.768 308.411 373.235 296.936 373.235 282.78V200.584C373.235 186.428 361.768 174.953 347.622 174.953L202.29 174.953C188.144 174.953 176.677 186.428 176.677 200.584V282.78C176.677 296.936 188.144 308.411 202.29 308.411Z" fill="#263238"/>
<path d="M322.276 332.578H308.522L280.572 266.309H301.622L322.276 332.578Z" fill="#263238"/>
<path d="M377.375 234.924H376.455V241.682H377.375V234.924Z" fill="#6DDAD3"/>
<path opacity="0.2" d="M377.375 234.924H376.455V241.682H377.375V234.924Z" fill="black"/>
<path d="M377.375 206.117H376.455V230.312H377.375V206.117Z" fill="#6DDAD3"/>
<path opacity="0.2" d="M377.375 206.117H376.455V230.312H377.375V206.117Z" fill="black"/>
<path d="M260.489 170.809H248.014V171.73H260.489V170.809Z" fill="#6DDAD3"/>
<path opacity="0.2" d="M260.489 170.809H248.014V171.73H260.489V170.809Z" fill="black"/>
<path d="M360.125 266.309L322.248 332.578L294.299 266.309H360.125Z" fill="#6DDAD3"/>
<path opacity="0.2" d="M360.134 266.309L322.258 332.578L294.308 266.309H360.134Z" fill="black"/>
<path d="M213.854 308.411H347.622C361.768 308.411 373.235 296.936 373.235 282.78V200.584C373.235 186.428 361.768 174.953 347.622 174.953L213.854 174.953C199.708 174.953 188.241 186.428 188.241 200.584V282.78C188.241 296.936 199.708 308.411 213.854 308.411Z" fill="#6DDAD3"/>
<path opacity="0.2" d="M213.854 308.411H347.622C361.768 308.411 373.235 296.936 373.235 282.78V200.584C373.235 186.428 361.768 174.953 347.622 174.953L213.854 174.953C199.708 174.953 188.241 186.428 188.241 200.584V282.78C188.241 296.936 199.708 308.411 213.854 308.411Z" fill="black"/>
<path opacity="0.7" d="M260.13 308.411H235.658L261.547 174.953H286.028L260.13 308.411Z" fill="#6DDAD3"/>
<path opacity="0.7" d="M282.238 308.411H268.318L294.216 174.953H308.126L282.238 308.411Z" fill="#6DDAD3"/>
<path d="M340.05 218.012H272.044C270.206 217.945 268.465 217.168 267.188 215.843C265.911 214.518 265.197 212.749 265.197 210.909C265.197 209.068 265.911 207.299 267.188 205.974C268.465 204.649 270.206 203.872 272.044 203.806H340.05C341.004 203.772 341.955 203.93 342.846 204.271C343.737 204.613 344.55 205.13 345.237 205.793C345.924 206.456 346.47 207.251 346.843 208.13C347.216 209.009 347.408 209.954 347.408 210.909C347.408 211.864 347.216 212.809 346.843 213.688C346.47 214.567 345.924 215.361 345.237 216.024C344.55 216.687 343.737 217.205 342.846 217.546C341.955 217.888 341.004 218.046 340.05 218.012Z" fill="white"/>
<path d="M248.74 218.012H217.939C216.101 217.945 214.36 217.168 213.083 215.843C211.806 214.518 211.092 212.749 211.092 210.909C211.092 209.068 211.806 207.299 213.083 205.974C214.36 204.649 216.101 203.872 217.939 203.806H248.74C249.694 203.772 250.645 203.93 251.536 204.271C252.427 204.613 253.24 205.13 253.927 205.793C254.614 206.456 255.16 207.251 255.533 208.13C255.906 209.009 256.098 209.954 256.098 210.909C256.098 211.864 255.906 212.809 255.533 213.688C255.16 214.567 254.614 215.361 253.927 216.024C253.24 216.687 252.427 217.205 251.536 217.546C250.645 217.888 249.694 218.046 248.74 218.012Z" fill="white"/>
<path d="M340.05 247.951H225.161C223.323 247.885 221.582 247.108 220.305 245.783C219.028 244.458 218.314 242.689 218.314 240.848C218.314 239.008 219.028 237.239 220.305 235.914C221.582 234.589 223.323 233.812 225.161 233.746H340.05C341.004 233.711 341.955 233.869 342.846 234.211C343.737 234.552 344.55 235.07 345.237 235.733C345.924 236.396 346.47 237.191 346.843 238.07C347.216 238.948 347.408 239.894 347.408 240.848C347.408 241.803 347.216 242.748 346.843 243.627C346.47 244.506 345.924 245.301 345.237 245.964C344.55 246.627 343.737 247.144 342.846 247.486C341.955 247.827 341.004 247.986 340.05 247.951Z" fill="white"/>
<path d="M340.05 277.882H286.828C284.99 277.816 283.249 277.038 281.972 275.713C280.695 274.389 279.982 272.62 279.982 270.779C279.982 268.938 280.695 267.169 281.972 265.844C283.249 264.52 284.99 263.742 286.828 263.676H340.05C341.004 263.642 341.955 263.8 342.846 264.142C343.737 264.483 344.55 265.001 345.237 265.664C345.924 266.327 346.47 267.121 346.843 268C347.216 268.879 347.408 269.824 347.408 270.779C347.408 271.734 347.216 272.679 346.843 273.558C346.47 274.437 345.924 275.231 345.237 275.894C344.55 276.557 343.737 277.075 342.846 277.416C341.955 277.758 341.004 277.916 340.05 277.882Z" fill="white"/>
<path opacity="0.1" d="M221.462 174.925C221.462 174.925 211.287 229.98 211.287 253.236C211.287 277.09 219.696 308.383 219.696 308.383H192.823L191.047 278.177C189.374 249.927 192.168 221.59 199.327 194.213L204.369 174.879L221.462 174.925Z" fill="black"/>
<path d="M207.451 332.578C207.451 333.664 192.363 334.548 173.751 334.548C155.14 334.548 140.052 333.628 140.052 332.578C140.052 331.528 155.14 330.608 173.751 330.608C192.363 330.608 207.451 331.492 207.451 332.578Z" fill="#E6E6E6"/>
<path d="M195.896 103.786C193.044 104.237 190.376 104.467 187.616 104.706C184.856 104.946 182.096 104.936 179.336 104.918C173.716 104.917 168.113 104.3 162.628 103.077C160.886 102.601 159.256 101.781 157.835 100.665C156.641 99.7449 155.515 98.7387 154.468 97.654C152.535 95.6154 150.752 93.4401 149.132 91.1449C145.96 86.704 143.133 82.0256 140.677 77.1509L144.127 75.0795C145.673 77.1694 147.264 79.2961 148.902 81.3307C150.54 83.3654 152.168 85.4092 153.898 87.3334C155.554 89.234 157.323 91.0326 159.197 92.7193C160.062 93.4968 160.985 94.2077 161.957 94.846C162.664 95.3466 163.455 95.7147 164.294 95.9323C166.749 96.3444 169.224 96.6241 171.709 96.7701C174.239 96.8806 176.787 96.9451 179.354 96.9082C181.921 96.8714 184.497 96.7333 187.064 96.5492C189.63 96.3651 192.252 96.0981 194.672 95.8035L195.896 103.786Z" fill="#FF8B7B"/>
<path d="M204.176 96.3099C197.174 92.0657 187.68 95.1499 187.68 95.1499L192.482 111.722C192.482 111.722 200.063 109.586 203.035 106.354C206.144 103.012 208.398 98.8601 204.176 96.3099Z" fill="#263238"/>
<path d="M144.716 76.8011L146.409 71.093L138.396 72.0873C138.917 74.3534 139.911 76.4836 141.312 78.3386L144.716 76.8011Z" fill="#FF8B7B"/>
<path d="M145.829 64.4368L139.159 65.6336L138.396 72.0874L146.409 71.0931L145.829 64.4368Z" fill="#FF8B7B"/>
<path d="M236.863 43.9614C243.947 44.1087 241.96 50.0285 241.96 50.0285C241.96 50.0285 249.679 45.1491 252.135 50.8479C254.592 56.5468 249.053 58.3513 245.815 59.2075C247.848 60.3767 247.958 64.1698 245.106 65.4127C242.254 66.6556 237.48 63.24 233.873 63.286L230.322 59.0786C235.143 55.9484 229.77 43.8141 236.863 43.9614Z" fill="#263238"/>
<path d="M235.759 66.2135C238.85 66.7567 241.095 66.3701 240.488 62.9544C240.101 61.0581 239.243 59.2902 237.991 57.8144C236.74 56.3386 235.137 55.2027 233.33 54.512C229.43 53.0758 228.556 59.5204 228.556 59.5204L235.759 66.2135Z" fill="#6DDAD3"/>
<path d="M145.36 304.802L137.466 303.891L139.04 285.551L146.933 286.453L145.36 304.802Z" fill="#FF8B7B"/>
<path d="M197.644 326.299L189.713 325.94L188.002 307.435L195.942 307.803L197.644 326.299Z" fill="#FF8B7B"/>
<path d="M189.41 323.537H198.334C198.487 323.536 198.636 323.59 198.753 323.69C198.87 323.789 198.946 323.928 198.968 324.08L199.98 331.151C200 331.329 199.981 331.509 199.926 331.68C199.871 331.85 199.781 332.007 199.661 332.14C199.541 332.273 199.395 332.379 199.231 332.451C199.067 332.524 198.89 332.561 198.711 332.56C195.601 332.504 194.111 332.329 190.173 332.329C187.763 332.329 184.23 332.578 180.9 332.578C177.569 332.578 177.394 329.282 178.774 328.978C185.003 327.643 185.987 325.793 188.085 324.034C188.453 323.716 188.923 323.54 189.41 323.537V323.537Z" fill="#263238"/>
<path d="M137.2 301L146.059 299.95C146.213 299.929 146.369 299.966 146.498 300.052C146.627 300.139 146.719 300.269 146.758 300.42L148.598 307.315C148.637 307.49 148.638 307.671 148.602 307.847C148.567 308.023 148.494 308.189 148.39 308.334C148.286 308.48 148.153 308.602 147.998 308.693C147.844 308.784 147.672 308.842 147.494 308.862C144.403 309.175 142.894 309.175 138.994 309.635C136.602 309.921 131.634 310.759 128.358 311.145C125.083 311.532 124.485 308.282 125.828 307.822C131.854 305.759 134.062 303.642 135.948 301.644C136.278 301.291 136.721 301.063 137.2 301Z" fill="#263238"/>
<path d="M139.049 285.551L138.23 295.006L146.124 295.918L146.942 286.462L139.049 285.551Z" fill="#132235"/>
<path d="M195.942 307.803L188.002 307.444L188.885 316.982L196.825 317.341L195.942 307.803Z" fill="#132235"/>
<path d="M196.484 94.2017C196.484 94.2017 192.482 94.4502 187.064 141.385L218.095 150.187C221.159 137.399 223.348 129.601 236.734 105.378C232.645 103.232 228.405 101.386 224.048 99.8545C219.45 98.1898 214.74 96.8546 209.953 95.8588C203.743 94.7448 196.484 94.2017 196.484 94.2017Z" fill="#263238"/>
<path d="M227.148 83.6324C224.977 87.9135 221.729 95.9785 224.048 99.9005C224.048 99.9005 221.499 104.154 213.081 101.742C203.817 99.1179 209.953 95.8864 209.953 95.8864C215.354 96.1166 216.283 92.3234 216.393 88.5211L227.148 83.6324Z" fill="#FF8B7B"/>
<path d="M201.278 94.662C203.817 94.9382 207.009 95.3525 209.953 95.9049C214.741 96.8982 219.451 98.2335 224.048 99.9005C226.688 100.821 229.246 101.834 231.352 102.782C230.92 104.32 227.875 112.32 209.76 107.717C192.906 103.371 199.355 96.2271 201.278 94.662Z" fill="#FF8B7B"/>
<path d="M222.769 85.6211L216.412 88.5396C216.396 89.4236 216.304 90.3046 216.136 91.1727C218.141 91.4396 221.545 90.5374 222.327 88.5672C222.646 87.6186 222.795 86.6214 222.769 85.6211Z" fill="#132235"/>
<path d="M231.187 73.5513C229.282 81.202 228.648 84.4887 224.011 87.7386C217.037 92.6365 208.049 88.6593 207.626 80.5667C207.239 73.3027 210.386 62.0063 218.546 60.3123C220.339 59.9314 222.2 60.0156 223.952 60.5569C225.704 61.0982 227.288 62.0787 228.555 63.4051C229.821 64.7316 230.728 66.3601 231.189 68.1359C231.649 69.9117 231.649 71.7758 231.187 73.5513V73.5513Z" fill="#FF8B7B"/>
<path d="M228.703 80.935C226.394 79.7381 224.544 76.3317 227.875 73.1646C227.875 73.1646 223.275 70.5407 225.584 66.9226C227.893 63.3044 237.121 60.2938 238.565 65.1549C240.01 70.016 235.52 72.0138 235.52 72.0138C235.52 72.0138 239.2 77.6482 232.585 79.5079C232.585 79.5079 232.015 87.6373 227.268 84.0192L228.703 80.935Z" fill="#263238"/>
<path d="M231.104 80.76C230.666 82.2161 229.675 83.4424 228.344 84.1756C226.559 85.0963 225.234 83.6324 225.363 81.7267C225.483 80.0051 226.559 77.4364 228.519 77.2799C228.948 77.2531 229.378 77.3341 229.768 77.5155C230.159 77.6968 230.498 77.9729 230.754 78.3185C231.011 78.6642 231.178 79.0685 231.239 79.4949C231.3 79.9212 231.253 80.3561 231.104 80.76V80.76Z" fill="#FF8B7B"/>
<path d="M187.064 141.385C187.064 141.385 151.018 183.929 144.918 207.387C138.57 231.785 135.718 292.088 135.718 292.088L148.12 293.69C148.12 293.69 156.4 238.515 166.824 216.032C177.919 192.095 209.834 147.848 209.834 147.848L187.064 141.385Z" fill="#6DDAD3"/>
<path d="M149.776 293.892L133.998 291.83L133.722 287.503L151.082 291.029L149.776 293.892Z" fill="#6DDAD3"/>
<path opacity="0.3" d="M149.776 293.892L133.998 291.83L133.722 287.503L151.082 291.029L149.776 293.892Z" fill="black"/>
<path opacity="0.2" d="M186.447 160.728C183.498 171.18 181.279 181.824 179.805 192.583C183.098 187.243 186.567 181.839 189.925 176.72C191.148 174.013 192.4 171.334 193.605 168.72C193.605 168.72 193.605 168.664 193.605 168.628L186.447 160.728Z" fill="black"/>
<path d="M195.261 143.705C195.261 143.705 184.828 197.444 181.056 228.323C178.002 253.273 187.616 313.787 187.616 313.787L197.956 314.423C197.956 314.423 195.776 260.38 200.578 236.213C212.741 175.072 224.112 166.869 218.058 150.187L195.261 143.705Z" fill="#6DDAD3"/>
<path d="M199.235 314.496L185.849 313.677L185.224 309.865L199.723 311.375L199.235 314.496Z" fill="#6DDAD3"/>
<path opacity="0.3" d="M199.235 314.496L185.849 313.677L185.224 309.865L199.723 311.375L199.235 314.496Z" fill="black"/>
<path d="M219.08 148.493L219.687 151.669C219.733 151.918 219.42 152.065 219.061 151.964L186.521 142.757C186.236 142.683 186.042 142.481 186.079 142.297L186.585 139.443C186.585 139.24 186.907 139.148 187.211 139.231L218.638 148.143C218.734 148.163 218.824 148.204 218.9 148.265C218.977 148.326 219.038 148.404 219.08 148.493V148.493Z" fill="#6DDAD3"/>
<path opacity="0.4" d="M219.08 148.493L219.687 151.669C219.733 151.918 219.42 152.065 219.061 151.964L186.521 142.757C186.236 142.683 186.042 142.481 186.079 142.297L186.585 139.443C186.585 139.24 186.907 139.148 187.211 139.231L218.638 148.143C218.734 148.163 218.824 148.204 218.9 148.265C218.977 148.326 219.038 148.404 219.08 148.493V148.493Z" fill="black"/>
<path d="M213.863 150.813L214.7 151.052C214.866 151.098 215.022 151.052 215.041 150.942L215.666 147.259C215.666 147.149 215.565 147.02 215.4 146.974L214.553 146.734C214.388 146.688 214.24 146.734 214.222 146.845L213.587 150.527C213.569 150.638 213.698 150.767 213.863 150.813Z" fill="#6DDAD3"/>
<path d="M188.793 143.705L189.64 143.945C189.805 143.991 189.962 143.945 189.98 143.834L190.606 140.152C190.606 140.05 190.504 139.921 190.33 139.875L189.492 139.636C189.327 139.581 189.17 139.636 189.152 139.747L188.526 143.429C188.508 143.53 188.6 143.622 188.793 143.705Z" fill="#6DDAD3"/>
<path d="M201.333 147.305L202.17 147.544C202.336 147.544 202.492 147.545 202.51 147.434L203.136 143.751C203.136 143.641 203.035 143.512 202.869 143.466L202.023 143.227C201.857 143.171 201.701 143.227 201.682 143.337L201.057 147.02C201.038 147.084 201.158 147.213 201.333 147.305Z" fill="#6DDAD3"/>
<path d="M219.052 73.5605C218.932 74.1865 218.509 74.6377 218.132 74.564C217.755 74.4904 217.479 73.9103 217.598 73.2843C217.718 72.6583 218.141 72.1979 218.518 72.2808C218.896 72.3636 219.162 72.9252 219.052 73.5605Z" fill="#263238"/>
<path d="M211.931 72.244C211.812 72.8793 211.388 73.3304 211.011 73.2475C210.634 73.1647 210.358 72.603 210.478 71.977C210.597 71.351 211.02 70.8906 211.398 70.9643C211.775 71.0379 212.042 71.618 211.931 72.244Z" fill="#263238"/>
<path d="M211.6 71.0378L210.174 70.3197C210.174 70.3197 210.68 71.6454 211.6 71.0378Z" fill="#263238"/>
<path d="M213.615 73.6526C212.786 74.9858 211.781 76.1999 210.625 77.2616C210.905 77.5493 211.244 77.7726 211.619 77.9157C211.994 78.0588 212.396 78.1183 212.796 78.0902L213.615 73.6526Z" fill="#132235"/>
<path d="M215.666 81.119C215.293 81.1165 214.92 81.0795 214.553 81.0086C214.506 80.9996 214.464 80.9724 214.436 80.9328C214.409 80.8932 214.398 80.8444 214.406 80.7968C214.415 80.747 214.443 80.7027 214.484 80.6734C214.526 80.6442 214.577 80.6323 214.627 80.6403C215.407 80.8007 216.214 80.7752 216.983 80.5657C217.752 80.3561 218.461 79.9685 219.052 79.4342C219.089 79.4041 219.135 79.3885 219.182 79.3904C219.23 79.3923 219.275 79.4116 219.309 79.4446C219.343 79.4776 219.364 79.522 219.367 79.5693C219.371 79.6166 219.357 79.6636 219.328 79.7012C218.335 80.6272 217.024 81.1349 215.666 81.119V81.119Z" fill="#263238"/>
<path d="M221.72 71.6547C221.651 71.6552 221.584 71.6365 221.526 71.6007C221.467 71.5649 221.42 71.5134 221.389 71.4521C221.188 71.024 220.889 70.6492 220.517 70.3581C220.145 70.067 219.709 69.8677 219.245 69.7765C219.192 69.7765 219.14 69.7654 219.091 69.7437C219.043 69.722 219 69.6904 218.964 69.6508C218.929 69.6113 218.902 69.5647 218.886 69.5141C218.87 69.4636 218.864 69.4102 218.87 69.3574C218.876 69.3046 218.893 69.2537 218.92 69.2079C218.947 69.1621 218.983 69.1226 219.026 69.0917C219.069 69.0609 219.119 69.0396 219.171 69.0291C219.223 69.0186 219.276 69.0192 219.328 69.0308C219.921 69.1296 220.482 69.3703 220.963 69.7326C221.443 70.0948 221.829 70.5679 222.088 71.1115C222.133 71.2007 222.141 71.304 222.11 71.3989C222.079 71.4938 222.011 71.5725 221.922 71.6179C221.859 71.6478 221.79 71.6605 221.72 71.6547V71.6547Z" fill="#263238"/>
<path d="M209.364 68.3772C209.316 68.377 209.269 68.3671 209.224 68.3482C209.18 68.3292 209.14 68.3015 209.107 68.2667C209.071 68.2323 209.042 68.1909 209.022 68.145C209.002 68.0991 208.992 68.0497 208.992 67.9997C208.992 67.9498 209.002 67.9004 209.022 67.8545C209.042 67.8086 209.071 67.7671 209.107 67.7327C209.514 67.2954 210.019 66.9613 210.58 66.758C211.142 66.5547 211.744 66.488 212.336 66.5635C212.432 66.5856 212.516 66.6437 212.571 66.7259C212.626 66.808 212.647 66.9081 212.63 67.0054C212.622 67.0542 212.603 67.1008 212.576 67.1423C212.549 67.1838 212.514 67.2193 212.472 67.2468C212.431 67.2744 212.385 67.2933 212.336 67.3024C212.287 67.3115 212.237 67.3107 212.189 67.3C211.723 67.2434 211.251 67.2972 210.809 67.4571C210.368 67.6171 209.971 67.8786 209.65 68.2207C209.617 68.2664 209.574 68.3042 209.525 68.3313C209.475 68.3584 209.421 68.3741 209.364 68.3772V68.3772Z" fill="#263238"/>
<path d="M237.7 114.097C238.326 116.914 238.722 119.566 239.09 122.309C239.458 125.053 239.651 127.833 239.807 130.54C240.133 136.155 239.846 141.789 238.952 147.342C238.586 149.113 237.866 150.791 236.836 152.277C236.003 153.524 235.081 154.709 234.076 155.821C232.161 157.884 230.105 159.81 227.921 161.585C223.677 165.024 219.174 168.13 214.452 170.874L212.18 167.56C214.167 165.884 216.191 164.162 218.123 162.413C220.055 160.664 221.996 158.896 223.799 157.055C225.598 155.284 227.288 153.406 228.859 151.43C229.58 150.522 230.232 149.562 230.81 148.557C231.26 147.819 231.572 147.005 231.73 146.154C231.995 143.678 232.124 141.188 232.116 138.697C232.116 136.156 231.978 133.606 231.785 131.046C231.592 128.487 231.297 125.927 230.957 123.368C230.616 120.809 230.193 118.212 229.752 115.819L237.7 114.097Z" fill="#FF8B7B"/>
<path d="M236.734 105.378C239.568 107.22 240.276 118.976 240.276 118.976L225.768 124.187C225.768 124.187 223.928 113.996 226.348 110.378C228.896 106.538 233.487 103.288 236.734 105.378Z" fill="#263238"/>
<path d="M186.686 324.927C186.15 324.975 185.615 324.828 185.178 324.513C185.045 324.388 184.946 324.231 184.892 324.057C184.837 323.883 184.828 323.698 184.865 323.519C184.874 323.404 184.914 323.294 184.981 323.2C185.047 323.107 185.137 323.032 185.242 322.985C186.162 322.561 188.572 324.126 188.848 324.301C188.879 324.323 188.902 324.352 188.917 324.386C188.931 324.421 188.936 324.458 188.931 324.495C188.922 324.53 188.904 324.563 188.878 324.589C188.852 324.615 188.82 324.633 188.784 324.642C188.098 324.817 187.394 324.912 186.686 324.927ZM185.638 323.289C185.559 323.273 185.477 323.273 185.398 323.289C185.352 323.309 185.312 323.342 185.284 323.385C185.256 323.427 185.242 323.477 185.242 323.528C185.212 323.646 185.214 323.771 185.246 323.888C185.278 324.006 185.34 324.113 185.426 324.2C185.831 324.568 186.87 324.614 188.26 324.338C187.466 323.814 186.574 323.457 185.638 323.289Z" fill="#6DDAD3"/>
<path d="M188.747 324.651C188.717 324.661 188.685 324.661 188.655 324.651C187.892 324.219 186.447 322.506 186.631 321.613C186.657 321.464 186.736 321.33 186.852 321.234C186.968 321.138 187.115 321.086 187.266 321.088C187.408 321.069 187.553 321.081 187.689 321.124C187.826 321.167 187.952 321.24 188.057 321.337C188.922 322.101 188.977 324.394 188.977 324.486C188.977 324.519 188.969 324.551 188.953 324.58C188.937 324.61 188.913 324.634 188.885 324.651C188.863 324.661 188.84 324.665 188.816 324.665C188.792 324.665 188.769 324.661 188.747 324.651V324.651ZM187.395 321.429H187.303C187.064 321.429 187.018 321.558 186.999 321.65C186.889 322.193 187.79 323.491 188.545 324.09C188.564 323.199 188.307 322.324 187.809 321.585C187.695 321.483 187.548 321.427 187.395 321.429V321.429Z" fill="#6DDAD3"/>
<path d="M133.704 302.776C133.26 302.804 132.817 302.699 132.434 302.473C132.296 302.375 132.183 302.245 132.106 302.095C132.029 301.944 131.99 301.777 131.992 301.607C131.985 301.502 132.005 301.397 132.051 301.302C132.096 301.207 132.164 301.125 132.25 301.064C133.17 300.42 136.482 301.653 136.85 301.801C136.887 301.814 136.919 301.84 136.94 301.873C136.962 301.906 136.972 301.945 136.97 301.985C136.969 302.024 136.957 302.062 136.934 302.093C136.911 302.125 136.878 302.148 136.841 302.16C135.829 302.512 134.773 302.72 133.704 302.776V302.776ZM133.041 301.257C132.841 301.242 132.64 301.283 132.462 301.377C132.428 301.4 132.402 301.433 132.386 301.47C132.37 301.507 132.364 301.548 132.37 301.589C132.365 301.702 132.389 301.814 132.439 301.915C132.489 302.016 132.563 302.103 132.655 302.169C133.179 302.537 134.495 302.463 136.197 301.966C135.183 301.584 134.121 301.345 133.041 301.257V301.257Z" fill="#6DDAD3"/>
<path d="M136.795 302.169H136.74C135.746 301.856 133.685 300.374 133.731 299.462C133.731 299.241 133.851 298.965 134.366 298.845C134.55 298.805 134.74 298.803 134.925 298.837C135.11 298.872 135.286 298.944 135.442 299.048C136.528 299.757 136.96 301.856 136.979 301.948C136.985 301.979 136.983 302.012 136.973 302.042C136.964 302.073 136.947 302.101 136.924 302.123C136.888 302.154 136.842 302.171 136.795 302.169V302.169ZM134.679 299.177C134.602 299.168 134.525 299.168 134.449 299.177C134.108 299.25 134.108 299.388 134.099 299.435C134.099 299.987 135.498 301.175 136.528 301.644C136.346 300.755 135.893 299.944 135.231 299.324C135.061 299.237 134.869 299.198 134.679 299.214V299.177Z" fill="#6DDAD3"/>
<path opacity="0.6" d="M170.678 69.4912C159.973 66.9985 148.794 67.4307 138.312 70.7424C127.83 74.0541 118.43 80.1237 111.096 88.3162C103.761 96.5088 98.761 106.523 96.6188 117.312C94.4765 128.101 95.2708 139.267 98.9184 149.644L81.0428 168.683L108.082 166.584C114.058 174.415 121.831 180.691 130.742 184.883C139.653 189.075 149.442 191.058 159.281 190.667C169.12 190.275 178.72 187.519 187.271 182.632C195.821 177.745 203.071 170.871 208.407 162.589C213.743 154.308 217.009 144.863 217.928 135.052C218.848 125.241 217.395 115.353 213.691 106.223C209.988 97.0926 204.142 88.9886 196.649 82.5953C189.157 76.2021 180.236 71.7075 170.642 69.4912H170.678Z" fill="#6DDAD3"/>
<path opacity="0.1" d="M170.678 69.4912C159.973 66.9985 148.794 67.4307 138.312 70.7424C127.83 74.0541 118.43 80.1237 111.096 88.3162C103.761 96.5088 98.761 106.523 96.6188 117.312C94.4765 128.101 95.2708 139.267 98.9184 149.644L81.0428 168.683L108.082 166.584C114.058 174.415 121.831 180.691 130.742 184.883C139.653 189.075 149.442 191.058 159.281 190.667C169.12 190.275 178.72 187.519 187.271 182.632C195.821 177.745 203.071 170.871 208.407 162.589C213.743 154.308 217.009 144.863 217.928 135.052C218.848 125.241 217.395 115.353 213.691 106.223C209.988 97.0926 204.142 88.9886 196.649 82.5953C189.157 76.2021 180.236 71.7075 170.642 69.4912H170.678Z" fill="black"/>
<path d="M156.897 187.731C147.917 187.729 139.057 185.66 131.004 181.683C122.951 177.706 115.92 171.929 110.455 164.798L109.48 163.472L88.8536 165.074C88.8279 165.072 88.8029 165.065 88.7805 165.052C88.7581 165.039 88.7391 165.022 88.7248 165C88.7119 164.978 88.7051 164.952 88.7051 164.926C88.7051 164.901 88.7119 164.875 88.7248 164.853L102.35 150.371L101.752 148.649C98.6604 139.846 97.722 130.429 99.0154 121.188C100.309 111.947 103.796 103.15 109.186 95.5353C114.575 87.9205 121.71 81.709 129.992 77.4211C138.274 73.1332 147.462 70.8938 156.786 70.8905C165.574 70.8864 174.25 72.8673 182.166 76.6855C190.083 80.5037 197.036 86.0608 202.507 92.9424C207.979 99.8241 211.827 107.853 213.767 116.43C215.706 125.008 215.685 133.912 213.707 142.481C210.784 155.36 203.565 166.86 193.239 175.085C182.913 183.31 170.095 187.77 156.897 187.731V187.731ZM109.535 163.205C109.555 163.206 109.575 163.211 109.592 163.22C109.61 163.23 109.625 163.244 109.636 163.26L110.667 164.613C116.101 171.72 123.098 177.48 131.115 181.444C139.132 185.408 147.954 187.471 156.897 187.473V187.473C171.161 187.456 184.921 182.189 195.556 172.676C206.191 163.164 212.958 150.069 214.57 135.886C216.181 121.703 212.524 107.422 204.295 95.7627C196.066 84.1033 183.839 75.8799 169.942 72.6582C165.628 71.6576 161.215 71.1511 156.786 71.1483C147.505 71.1567 138.361 73.3901 130.12 77.6614C121.879 81.9327 114.78 88.1178 109.418 95.6986C104.056 103.279 100.587 112.035 99.3012 121.234C98.0154 130.432 98.9505 139.804 102.028 148.566L102.654 150.362C102.667 150.38 102.674 150.403 102.674 150.426C102.674 150.449 102.667 150.472 102.654 150.491L89.1756 164.798L109.526 163.214L109.535 163.205Z" fill="white"/>
<path d="M178.13 118.857C178.274 118.524 178.303 118.152 178.214 117.801C178.124 117.449 177.92 117.137 177.634 116.914C174.459 114.599 170.837 112.972 166.998 112.136C160.424 110.619 153.517 111.775 147.794 115.35C142.071 118.925 137.999 124.626 136.473 131.203C134.357 140.345 139.371 146.55 145.415 147.95C147.913 148.58 150.524 148.613 153.037 148.045C155.549 147.477 157.893 146.325 159.878 144.681C159.928 146.643 160.647 148.529 161.916 150.026C163.184 151.523 164.925 152.541 166.851 152.912C176.3 155.103 187.846 148.76 191.627 132.409C195.702 114.806 186.171 99.6427 168.461 95.5826C147.191 90.6571 127.245 103.795 122.075 126.148C117.769 144.782 127.788 161.345 145.894 165.543C153.079 167.21 158.976 167.237 165.011 165.645C165.393 165.543 165.725 165.306 165.945 164.977C166.165 164.648 166.258 164.251 166.207 163.858L165.618 159.255C165.586 159.023 165.505 158.8 165.379 158.601C165.254 158.403 165.088 158.233 164.892 158.104C164.697 157.973 164.475 157.887 164.243 157.852C164.01 157.817 163.773 157.834 163.548 157.902C158.718 159.128 153.659 159.128 148.828 157.902C134.734 154.634 127.567 142.453 131.008 127.575C135.148 109.65 149.84 99.3481 165.968 103.077C179.602 106.235 186.052 116.887 182.804 131C181.378 137.159 178.443 141.984 174.745 144.249C173.387 145.194 171.709 145.561 170.08 145.27C169.836 145.231 169.606 145.132 169.408 144.983C169.211 144.834 169.053 144.638 168.949 144.414C168.553 143.604 168.268 141.404 170.789 135.852L178.13 118.857ZM163.889 120.229C164.918 120.464 165.922 120.797 166.888 121.223L162.877 130.429C160.614 135.751 154.367 141.109 149.721 140.032C145.48 139.056 145.7 135.235 146.206 133.053C148.212 124.344 156.317 118.479 163.889 120.229V120.229Z" fill="white"/>
<path d="M213.9 166.86L206.926 162.901L208.408 170.846C208.408 170.846 213.247 172.448 215.639 170.165L213.9 166.86Z" fill="#FF8B7B"/>
<path d="M200.321 163.886L201.922 170.469L208.408 170.846L206.926 162.901L200.321 163.886Z" fill="#FF8B7B"/>
<path d="M218.693 72.3453L217.258 71.6272C217.258 71.6272 217.819 72.9529 218.693 72.3453Z" fill="#263238"/>
<path d="M228.556 68.7086C224.618 68.46 221.729 66.7292 221.343 64.4551C221.343 64.4551 212.308 68.2114 208.656 62.6138C208.656 62.6138 204.534 63.2951 203.513 60.4227C202.492 57.5502 206.779 56.74 208.803 58.029C208.803 58.029 202.529 52.505 208.969 50.9675C215.409 49.43 216.789 54.6501 216.789 54.6501C216.789 54.6501 219.328 47.0271 225.069 50.4151C230.81 53.8031 227.24 57.0807 227.24 57.0807C227.24 57.0807 240.874 58.1394 235.796 63.5253C230.718 68.9111 228.556 68.7086 228.556 68.7086Z" fill="#263238"/>
<path d="M223.624 95.1683C224.397 95.242 224.057 97.9303 223.707 98.1144C222.907 98.5471 213.265 96.5677 213.587 95.0763C213.92 94.3598 214.382 93.7107 214.949 93.1613C215.372 92.8483 216.844 94.6067 223.624 95.1683Z" fill="#263238"/>
<path d="M273.976 116.251C270.074 116.239 266.313 117.71 263.454 120.368C260.595 123.025 258.851 126.67 258.575 130.565C258.299 134.46 259.512 138.315 261.968 141.349C264.424 144.383 267.94 146.371 271.805 146.909C271.882 150.799 270.519 154.58 267.978 157.524C267.978 157.524 289.377 152.194 289.377 131.663C289.377 127.576 287.754 123.656 284.866 120.765C281.978 117.875 278.061 116.251 273.976 116.251Z" fill="#6DDAD3"/>
<path d="M308.632 116.251C304.73 116.239 300.969 117.71 298.11 120.368C295.251 123.025 293.507 126.67 293.231 130.565C292.955 134.46 294.168 138.315 296.624 141.349C299.08 144.383 302.596 146.371 306.461 146.909C306.551 150.793 305.205 154.573 302.68 157.524C302.68 157.524 324.079 152.194 324.079 131.663C324.08 129.635 323.681 127.627 322.905 125.753C322.129 123.88 320.99 122.178 319.555 120.746C318.12 119.314 316.416 118.18 314.542 117.409C312.667 116.637 310.659 116.244 308.632 116.251V116.251Z" fill="#6DDAD3"/>
</svg>
