<svg width="398" height="429" viewBox="0 0 398 429" fill="none" xmlns="http://www.w3.org/2000/svg">
<path d="M387.769 336.386V414.542" stroke="#132235" stroke-width="2" stroke-linecap="round" stroke-linejoin="round"/>
<path d="M374.463 336.386V414.542" stroke="#132235" stroke-width="2" stroke-linecap="round" stroke-linejoin="round"/>
<path d="M360.813 424.677C380.798 424.677 397 408.231 397 387.941C397 367.653 380.798 351.205 360.813 351.205C340.826 351.205 324.625 367.653 324.625 387.941C324.625 408.231 340.826 424.677 360.813 424.677Z" fill="#6DDAD3"/>
<path d="M379.802 359.454C379.802 359.454 397.125 371.684 394.479 389.572" stroke="#EEFFE1" stroke-width="3" stroke-linecap="round" stroke-linejoin="round"/>
<path d="M360.813 424.677C380.798 424.677 397 408.231 397 387.941C397 367.653 380.798 351.205 360.813 351.205C340.826 351.205 324.625 367.653 324.625 387.941C324.625 408.231 340.826 424.677 360.813 424.677Z" stroke="#132235" stroke-width="2" stroke-miterlimit="10"/>
<path d="M355.756 360.078C358.605 360.078 361.337 361.227 363.351 363.272C365.365 365.316 366.496 368.088 366.496 370.98V416.892H355.756V360.078Z" fill="#6DDAD3"/>
<path d="M300.973 254.394C300.973 254.394 226.961 223.429 233.968 151.652" stroke="#132235" stroke-width="2" stroke-linecap="round" stroke-linejoin="round"/>
<path d="M329.836 248.032C329.836 248.032 230.628 177.869 240.297 92.6799" stroke="#132235" stroke-width="2" stroke-linecap="round" stroke-linejoin="round"/>
<path d="M366.776 231.47H250.152" stroke="#132235" stroke-width="2" stroke-linecap="round" stroke-linejoin="round"/>
<path d="M357.344 288.444V254.666H245.711V422.791H357.344V302.384" fill="#132235"/>
<path d="M245.711 265.824H357.344V254.682H245.711V265.824Z" fill="#6DDAD3"/>
<path d="M299.444 387.542H357.331V376.399H299.444V387.542Z" fill="#6DDAD3"/>
<path d="M347.376 420.601H357.344V261.94H347.376V420.601Z" fill="#6DDAD3"/>
<path d="M259.539 420.601H248.154V295.334C248.154 292.268 249.354 289.328 251.487 287.162C253.623 284.995 256.519 283.776 259.539 283.776V420.601Z" fill="#6DDAD3"/>
<path d="M357.344 288.444V254.666H245.711V422.791H357.344V302.384" stroke="#132235" stroke-width="2" stroke-linecap="round" stroke-linejoin="round"/>
<path d="M218.264 255.753H369.438V242.964H218.264V255.753Z" fill="#6DDAD3"/>
<path d="M369.327 251.613H236.405C234.315 251.613 232.313 250.77 230.836 249.272C229.359 247.773 228.531 245.739 228.531 243.62H369.327V251.613Z" fill="#6DDAD3"/>
<path d="M358.602 247.344H347.831C346.895 247.344 345.998 246.967 345.336 246.296C344.675 245.624 344.303 244.713 344.303 243.763H362.129C362.129 244.713 361.758 245.624 361.096 246.296C360.435 246.967 359.537 247.344 358.602 247.344Z" fill="#6DDAD3"/>
<path d="M339.159 247.344H328.388C327.923 247.344 327.465 247.252 327.036 247.073C326.61 246.892 326.221 246.628 325.893 246.296C325.566 245.963 325.306 245.568 325.128 245.133C324.951 244.7 324.86 244.233 324.86 243.763H342.686C342.686 244.713 342.314 245.624 341.653 246.296C340.99 246.967 340.094 247.344 339.159 247.344Z" fill="#6DDAD3"/>
<path d="M255.95 242.964H217.605V255.753H368.779V242.964H254.438" stroke="#132235" stroke-width="2" stroke-miterlimit="10"/>
<path d="M354.355 231.71V242.453" stroke="#132235" stroke-width="1.5" stroke-linecap="round" stroke-linejoin="round"/>
<path d="M333.975 231.71V242.453" stroke="#132235" stroke-width="1.5" stroke-linecap="round" stroke-linejoin="round"/>
<path d="M313.583 231.71V242.453" stroke="#132235" stroke-width="1.5" stroke-linecap="round" stroke-linejoin="round"/>
<path d="M294.765 252.684C296.192 252.684 297.348 251.51 297.348 250.062C297.348 248.614 296.192 247.44 294.765 247.44C293.34 247.44 292.183 248.614 292.183 250.062C292.183 251.51 293.34 252.684 294.765 252.684Z" fill="#6DDAD3"/>
<path d="M302.748 252.908C303.827 252.908 304.7 252.02 304.7 250.925C304.7 249.83 303.827 248.943 302.748 248.943C301.669 248.943 300.795 249.83 300.795 250.925C300.795 252.02 301.669 252.908 302.748 252.908Z" fill="#6DDAD3"/>
<path d="M290.498 249.183C291.09 249.183 291.569 248.697 291.569 248.096C291.569 247.496 291.09 247.009 290.498 247.009C289.907 247.009 289.427 247.496 289.427 248.096C289.427 248.697 289.907 249.183 290.498 249.183Z" fill="#6DDAD3"/>
<path d="M368.386 249.327H348.024" stroke="#132235" stroke-linecap="round" stroke-linejoin="round"/>
<path d="M293.629 331.479H369.216V318.69H293.629V331.479Z" fill="#6DDAD3"/>
<path d="M357.301 327.179H299.965C297.877 327.179 295.874 326.336 294.397 324.838C292.921 323.339 292.092 321.305 292.092 319.185H357.301V327.179Z" fill="#6DDAD3"/>
<path d="M306.261 323.07H295.49C294.555 323.07 293.657 322.693 292.996 322.021C292.334 321.35 291.963 320.439 291.963 319.489H309.788C309.788 320.439 309.417 321.35 308.755 322.021C308.094 322.693 307.196 323.07 306.261 323.07Z" fill="#6DDAD3"/>
<path d="M359.663 318.69H292.989V331.479H368.576V318.69H317.209" stroke="#132235" stroke-width="2" stroke-miterlimit="10"/>
<path d="M263.365 259.606V267.599" stroke="#6DDAD3" stroke-linecap="round" stroke-linejoin="round"/>
<path d="M257.539 269.613V276.007" stroke="#6DDAD3" stroke-linecap="round" stroke-linejoin="round"/>
<path d="M268.655 277.03V283.425" stroke="#6DDAD3" stroke-linecap="round" stroke-linejoin="round"/>
<path d="M281.868 276.823V284.816" stroke="#6DDAD3" stroke-linecap="round" stroke-linejoin="round"/>
<path d="M273.773 269.613V276.007" stroke="#6DDAD3" stroke-linecap="round" stroke-linejoin="round"/>
<path d="M249.193 269.357H300.45C300.762 269.357 301.063 269.231 301.285 269.005C301.505 268.782 301.631 268.476 301.631 268.158C301.631 267.84 301.505 267.535 301.285 267.311C301.063 267.085 300.762 266.959 300.45 266.959H249.193C248.879 266.959 248.579 267.085 248.357 267.311C248.136 267.535 248.012 267.84 248.012 268.158C248.012 268.476 248.136 268.782 248.357 269.005C248.579 269.231 248.879 269.357 249.193 269.357Z" fill="#6DDAD3"/>
<path d="M249.193 277.878H316.198C316.509 277.878 316.81 277.751 317.032 277.526C317.253 277.302 317.379 276.997 317.379 276.679C317.379 276.361 317.253 276.055 317.032 275.831C316.81 275.606 316.509 275.48 316.198 275.48H249.193C248.879 275.48 248.579 275.606 248.357 275.831C248.136 276.055 248.012 276.361 248.012 276.679C248.012 276.997 248.136 277.302 248.357 277.526C248.579 277.751 248.879 277.878 249.193 277.878Z" fill="#6DDAD3"/>
<path d="M253.917 286.398H300.45C300.762 286.398 301.063 286.272 301.285 286.047C301.505 285.823 301.631 285.517 301.631 285.199C301.631 284.881 301.505 284.576 301.285 284.352C301.063 284.127 300.762 284 300.45 284H253.917C253.604 284 253.303 284.127 253.081 284.352C252.86 284.576 252.736 284.881 252.736 285.199C252.736 285.517 252.86 285.823 253.081 286.047C253.303 286.272 253.604 286.398 253.917 286.398Z" fill="#6DDAD3"/>
<path d="M357.125 332.086H300.088V376.447H357.125V332.086Z" fill="white"/>
<path d="M355.144 333.637H302.075V374.913H355.144V333.637Z" stroke="white" stroke-width="3" stroke-miterlimit="10"/>
<path opacity="0.8" d="M357.55 346.058L317.662 376.815L299.017 376.831L357.141 330.695L357.55 346.058Z" fill="#6DDAD3"/>
<path opacity="0.8" d="M346.669 332.566L299.868 369.573L299.017 359.023L333.11 332.438L346.669 332.566Z" fill="#6DDAD3"/>
<path d="M357.125 332.086H300.088V376.447H357.125V332.086Z" stroke="#6DDAD3" stroke-width="2" stroke-miterlimit="10"/>
<path d="M314.703 331.399V376.927" stroke="#6DDAD3" stroke-width="2" stroke-miterlimit="10"/>
<path d="M339.499 357.912C340.066 357.459 340.163 356.625 339.718 356.049C339.27 355.472 338.448 355.373 337.882 355.827L326.772 364.709C326.205 365.161 326.107 365.996 326.553 366.571C327 367.148 327.822 367.247 328.389 366.793L339.499 357.912Z" fill="#6DDAD3"/>
<path d="M346.752 345.788C347.319 345.335 347.417 344.501 346.969 343.925C346.524 343.348 345.702 343.249 345.135 343.703L334.023 352.585C333.457 353.037 333.359 353.872 333.806 354.447C334.253 355.024 335.074 355.124 335.642 354.67L346.752 345.788Z" fill="#6DDAD3"/>
<path d="M330.076 338.18C330.643 337.728 330.74 336.893 330.293 336.318C329.847 335.742 329.025 335.643 328.458 336.095L317.349 344.977C316.782 345.431 316.683 346.264 317.13 346.841C317.577 347.417 318.399 347.516 318.966 347.062L330.076 338.18Z" fill="#6DDAD3"/>
<path d="M266.057 380.348C266.057 377.25 263.584 374.737 260.537 374.737C257.489 374.737 255.018 377.25 255.018 380.348V408.036C255.018 411.135 257.489 413.647 260.537 413.647C263.584 413.647 266.057 411.135 266.057 408.036V380.348Z" fill="#6DDAD3"/>
<path d="M266.057 319.953C266.057 316.855 263.584 314.342 260.537 314.342C257.489 314.342 255.018 316.855 255.018 319.953V347.641C255.018 350.74 257.489 353.252 260.537 353.252C263.584 353.252 266.057 350.74 266.057 347.641V319.953Z" fill="#6DDAD3"/>
<path d="M246.928 401.673H257.952" stroke="#132235" stroke-width="2" stroke-linecap="round" stroke-linejoin="round"/>
<path d="M264.422 404.007C265.63 404.007 266.611 403.013 266.611 401.785C266.611 400.557 265.63 399.563 264.422 399.563C263.213 399.563 262.233 400.557 262.233 401.785C262.233 403.013 263.213 404.007 264.422 404.007Z" fill="#132235"/>
<path d="M246.928 303.599H257.952" stroke="#132235" stroke-width="2" stroke-linecap="round" stroke-linejoin="round"/>
<path d="M264.422 305.949C265.63 305.949 266.611 304.955 266.611 303.727C266.611 302.499 265.63 301.505 264.422 301.505C263.213 301.505 262.233 302.499 262.233 303.727C262.233 304.955 263.213 305.949 264.422 305.949Z" fill="#132235"/>
<path d="M356.292 286.142H345.269" stroke="#132235" stroke-linecap="round" stroke-linejoin="round"/>
<path d="M341.267 287.325C341.971 287.325 342.543 286.745 342.543 286.031C342.543 285.316 341.971 284.736 341.267 284.736C340.562 284.736 339.992 285.316 339.992 286.031C339.992 286.745 340.562 287.325 341.267 287.325Z" fill="#132235"/>
<path d="M356.766 407.045H345.743" stroke="#132235" stroke-width="2" stroke-linecap="round" stroke-linejoin="round"/>
<path d="M339.283 409.139C340.491 409.139 341.472 408.144 341.472 406.917C341.472 405.689 340.491 404.695 339.283 404.695C338.074 404.695 337.094 405.689 337.094 406.917C337.094 408.144 338.074 409.139 339.283 409.139Z" fill="#132235"/>
<path d="M395.74 397.709H384.717" stroke="#132235" stroke-width="2" stroke-linecap="round" stroke-linejoin="round"/>
<path d="M378.258 399.819C379.465 399.819 380.446 398.825 380.446 397.597C380.446 396.369 379.465 395.375 378.258 395.375C377.048 395.375 376.069 396.369 376.069 397.597C376.069 398.825 377.048 399.819 378.258 399.819Z" fill="#132235"/>
<path d="M48.0081 277.558C48.0081 277.558 84.2268 267.519 84.2268 235.451" stroke="#132235" stroke-width="2" stroke-linecap="round" stroke-linejoin="round"/>
<path d="M14.053 277.67H130.662" stroke="#132235" stroke-width="2" stroke-linecap="round" stroke-linejoin="round"/>
<path d="M23.4708 334.644V300.85H135.103V421.032H23.4708V348.568" fill="#6DDAD3"/>
<path d="M135.103 300.866H23.4708V312.008H135.103V300.866Z" fill="#6DDAD3"/>
<path d="M23.4708 334.644V300.85H135.103V421.032H23.4708V348.568" stroke="#132235" stroke-width="2" stroke-linecap="round" stroke-linejoin="round"/>
<path d="M162.551 289.148H11.3773V301.937H162.551V289.148Z" fill="#6DDAD3"/>
<path d="M11.568 289.851H152.317C152.317 290.901 152.114 291.94 151.718 292.909C151.322 293.88 150.742 294.76 150.011 295.502C149.28 296.246 148.412 296.834 147.457 297.235C146.502 297.638 145.478 297.844 144.444 297.844H11.568V289.851Z" fill="#6DDAD3"/>
<path d="M18.6973 289.963H36.5232C36.5232 290.913 36.1516 291.824 35.49 292.495C34.8285 293.167 33.9313 293.544 32.9958 293.544H22.2247C21.2891 293.544 20.392 293.167 19.7304 292.495C19.0689 291.824 18.6973 290.913 18.6973 289.963Z" fill="#6DDAD3"/>
<path d="M38.1292 289.963H55.9551C55.9551 290.913 55.5835 291.824 54.9221 292.495C54.2605 293.167 53.3632 293.544 52.4279 293.544H41.6565C40.7212 293.544 39.8239 293.167 39.1623 292.495C38.5008 291.824 38.1292 290.913 38.1292 289.963Z" fill="#6DDAD3"/>
<path d="M124.871 289.148H163.216V301.937H12.0415V289.148H126.383" stroke="#132235" stroke-width="2" stroke-miterlimit="10"/>
<path d="M26.4663 277.894V288.636" stroke="#132235" stroke-width="1.5" stroke-linecap="round" stroke-linejoin="round"/>
<path d="M46.8578 277.894V288.636" stroke="#132235" stroke-width="1.5" stroke-linecap="round" stroke-linejoin="round"/>
<path d="M141.242 320.512H34.9796V406.901H141.242V320.512Z" fill="#132235"/>
<path d="M138.19 322.99H38.0369V404.407H138.19V322.99Z" stroke="#132235" stroke-width="3" stroke-miterlimit="10"/>
<path d="M67.2308 277.894V288.636" stroke="#132235" stroke-width="1.5" stroke-linecap="round" stroke-linejoin="round"/>
<path d="M86.0528 298.867C87.4792 298.867 88.6353 297.694 88.6353 296.246C88.6353 294.797 87.4792 293.624 86.0528 293.624C84.6265 293.624 83.4702 294.797 83.4702 296.246C83.4702 297.694 84.6265 298.867 86.0528 298.867Z" fill="#6DDAD3"/>
<path d="M78.0659 299.107C79.1445 299.107 80.0186 298.22 80.0186 297.125C80.0186 296.03 79.1445 295.143 78.0659 295.143C76.9876 295.143 76.1133 296.03 76.1133 297.125C76.1133 298.22 76.9876 299.107 78.0659 299.107Z" fill="#6DDAD3"/>
<path d="M90.3356 295.366C90.9271 295.366 91.4064 294.88 91.4064 294.279C91.4064 293.678 90.9271 293.192 90.3356 293.192C89.7443 293.192 89.2648 293.678 89.2648 294.279C89.2648 294.88 89.7443 295.366 90.3356 295.366Z" fill="#6DDAD3"/>
<path d="M36.5913 371.875H77.6917C78.1094 371.875 78.51 372.043 78.8052 372.344C79.1005 372.643 79.2665 373.05 79.2665 373.474C79.2665 373.898 79.1005 374.305 78.8052 374.604C78.51 374.905 78.1094 375.073 77.6917 375.073H36.5913V371.875Z" fill="white"/>
<path d="M49.7094 404.854V373.874C49.7094 373.517 49.8487 373.177 50.0967 372.924C50.3449 372.673 50.6813 372.531 51.0321 372.531H51.4416C51.7924 372.531 52.1288 372.673 52.3769 372.924C52.625 373.177 52.7643 373.517 52.7643 373.874V404.854H49.6936H49.7094Z" fill="white"/>
<path d="M64.9645 404.854V373.874C64.9645 373.698 64.9986 373.523 65.0651 373.36C65.1317 373.197 65.229 373.049 65.3519 372.924C65.4747 372.799 65.6205 372.7 65.781 372.633C65.9416 372.566 66.1136 372.531 66.2872 372.531H66.6967C66.8704 372.531 67.0423 372.566 67.203 372.633C67.3634 372.7 67.5092 372.799 67.6321 372.924C67.7549 373.049 67.8522 373.197 67.9188 373.36C67.9853 373.523 68.0195 373.698 68.0195 373.874V404.854H64.9487H64.9645Z" fill="white"/>
<path opacity="0.8" d="M54.1335 406.789H39.8822L63.5031 319.697H77.7544L54.1335 406.789Z" fill="#6DDAD3"/>
<path opacity="0.8" d="M75.611 406.789H61.344L84.9649 319.697H99.232L75.611 406.789Z" fill="#6DDAD3"/>
<path d="M141.242 320.161H34.9796V406.549H141.242V320.161Z" stroke="#132235" stroke-width="2" stroke-linecap="round" stroke-linejoin="round"/>
<path d="M80.6653 218.57V194.431H115.309V306.333H80.6653V272.011" fill="#6DDAD3"/>
<path d="M114.996 193.184V305.086H80.3517V298.867H109.468V193.184H114.996Z" fill="#6DDAD3"/>
<path d="M249.949 99.3139H127.12V415.837H249.949V99.3139Z" fill="white"/>
<path d="M240.926 114.037V120.431" stroke="#6DDAD3" stroke-linecap="round" stroke-linejoin="round"/>
<path d="M238.089 121.503V127.897" stroke="#6DDAD3" stroke-linecap="round" stroke-linejoin="round"/>
<path d="M233.92 129.304H248.895C249.209 129.304 249.509 129.177 249.731 128.952C249.952 128.728 250.076 128.423 250.076 128.105C250.076 127.787 249.952 127.482 249.731 127.257C249.509 127.032 249.209 126.906 248.895 126.906H233.857C233.543 126.906 233.244 127.032 233.022 127.257C232.8 127.482 232.676 127.787 232.676 128.105C232.676 128.423 232.8 128.728 233.022 128.952C233.244 129.177 233.543 129.304 233.857 129.304H233.92Z" fill="#6DDAD3"/>
<path d="M217.667 114.213H248.453C248.766 114.213 249.067 114.087 249.287 113.862C249.509 113.637 249.634 113.332 249.634 113.014C249.634 112.696 249.509 112.391 249.287 112.166C249.067 111.941 248.766 111.815 248.453 111.815H217.667C217.353 111.815 217.053 111.941 216.832 112.166C216.61 112.391 216.486 112.696 216.486 113.014C216.486 113.332 216.61 113.637 216.832 113.862C217.053 114.087 217.353 114.213 217.667 114.213Z" fill="#6DDAD3"/>
<path d="M227.115 121.918H248.453C248.766 121.918 249.067 121.792 249.287 121.567C249.509 121.342 249.634 121.037 249.634 120.719C249.634 120.401 249.509 120.097 249.287 119.872C249.067 119.647 248.766 119.52 248.453 119.52H227.115C226.802 119.52 226.501 119.647 226.281 119.872C226.058 120.097 225.934 120.401 225.934 120.719C225.934 121.037 226.058 121.342 226.281 121.567C226.501 121.792 226.802 121.918 227.115 121.918Z" fill="#6DDAD3"/>
<path d="M250.171 98.7703H127.341V110.792H250.171V98.7703Z" fill="#132235"/>
<path d="M249.949 147.272H127.12V160.86H249.949V147.272Z" fill="#132235"/>
<path d="M249.793 161.308H240.407V417.883H249.793V161.308Z" fill="#132235"/>
<path d="M127.101 168.853C130.025 168.853 132.828 170.033 134.896 172.13C136.963 174.229 138.124 177.075 138.124 180.043V416.636H127.101V168.853Z" fill="#6DDAD3"/>
<path d="M127.766 112.822V100.113H249.02V179.979" stroke="#132235" stroke-width="3" stroke-linecap="round" stroke-linejoin="round"/>
<path d="M127.766 193.679V124.796" stroke="#132235" stroke-width="3" stroke-linecap="round" stroke-linejoin="round"/>
<path d="M116.884 221.607H126.332" stroke="#132235" stroke-width="4" stroke-miterlimit="10"/>
<path d="M80.6653 218.57V194.431H115.309V306.333H80.6653V270.412" stroke="#132235" stroke-width="2" stroke-linecap="round" stroke-linejoin="round"/>
<path d="M80.6653 261.987V240.454" stroke="#132235" stroke-width="2" stroke-linecap="round" stroke-linejoin="round"/>
<path d="M80.6653 232.078V228.129" stroke="#132235" stroke-width="2" stroke-linecap="round" stroke-linejoin="round"/>
<path d="M188.392 167.255C198.416 167.255 208.029 171.297 215.117 178.491C222.205 185.686 226.186 195.446 226.186 205.621V291.945H150.599V205.621C150.599 195.446 154.581 185.686 161.669 178.491C168.756 171.297 178.369 167.255 188.392 167.255Z" fill="white"/>
<path d="M188.393 171.539C197.72 171.539 206.664 175.297 213.264 181.986C219.862 188.676 223.575 197.753 223.588 207.22V287.597H153.214V207.22C153.214 197.743 156.922 188.657 163.521 181.955C170.123 175.256 179.075 171.491 188.408 171.491L188.393 171.539Z" stroke="white" stroke-width="4" stroke-miterlimit="10"/>
<path d="M188.896 317.795C199.129 317.795 208.943 321.921 216.179 329.266C223.413 336.61 227.477 346.573 227.477 356.96V416.908H150.316V356.96C150.316 346.573 154.381 336.61 161.616 329.266C168.852 321.921 178.665 317.795 188.896 317.795Z" fill="white"/>
<path d="M188.393 320.544C197.728 320.544 206.68 324.309 213.28 331.009C219.881 337.71 223.588 346.798 223.588 356.273V412.224H153.214V356.273C153.214 346.8 156.919 337.715 163.517 331.015C170.113 324.315 179.061 320.549 188.393 320.544Z" stroke="white" stroke-width="3" stroke-miterlimit="10"/>
<path d="M129.482 173.649H140.505" stroke="#132235" stroke-width="2" stroke-linecap="round" stroke-linejoin="round"/>
<path d="M146.963 175.983C148.172 175.983 149.152 174.988 149.152 173.761C149.152 172.533 148.172 171.539 146.963 171.539C145.754 171.539 144.774 172.533 144.774 173.761C144.774 174.988 145.754 175.983 146.963 175.983Z" fill="#132235"/>
<path d="M150.741 100.913V110.504" stroke="#6DDAD3" stroke-linecap="round" stroke-linejoin="round"/>
<path d="M144.916 112.518V118.913" stroke="#6DDAD3" stroke-linecap="round" stroke-linejoin="round"/>
<path d="M156.031 119.952V126.346" stroke="#6DDAD3" stroke-linecap="round" stroke-linejoin="round"/>
<path d="M169.244 119.728V127.721" stroke="#6DDAD3" stroke-linecap="round" stroke-linejoin="round"/>
<path d="M161.137 112.518V118.913" stroke="#6DDAD3" stroke-linecap="round" stroke-linejoin="round"/>
<path d="M138.93 354.291H127.907" stroke="#6DDAD3" stroke-width="2" stroke-miterlimit="10"/>
<path d="M249.161 354.291H238.138" stroke="#6DDAD3" stroke-width="2" stroke-miterlimit="10"/>
<path d="M249.161 275.959H238.138" stroke="#6DDAD3" stroke-width="2" stroke-miterlimit="10"/>
<path d="M249.161 160.86H238.138" stroke="#6DDAD3" stroke-width="2" stroke-miterlimit="10"/>
<path d="M97.9874 226.403C102.336 226.403 105.861 222.823 105.861 218.41C105.861 213.996 102.336 210.417 97.9874 210.417C93.6388 210.417 90.1138 213.996 90.1138 218.41C90.1138 222.823 93.6388 226.403 97.9874 226.403Z" fill="#132235"/>
<path d="M97.9874 287.149C102.336 287.149 105.861 283.57 105.861 279.156C105.861 274.743 102.336 271.163 97.9874 271.163C93.6388 271.163 90.1138 274.743 90.1138 279.156C90.1138 283.57 93.6388 287.149 97.9874 287.149Z" fill="#132235"/>
<path d="M263.334 135.282H112.16V148.071H263.334V135.282Z" fill="#6DDAD3"/>
<path d="M112.16 135.282H252.909C252.909 136.332 252.706 137.372 252.309 138.341C251.914 139.311 251.334 140.192 250.604 140.934C249.872 141.677 249.004 142.265 248.048 142.667C247.094 143.069 246.07 143.275 245.036 143.275H112.16V135.282Z" fill="#6DDAD3"/>
<path d="M260.186 6.6271V72.1697C260.169 73.227 259.744 74.2353 259.002 74.977C258.259 75.7188 257.259 76.1344 256.218 76.1343H120.791C119.738 76.1343 118.729 75.7098 117.985 74.9543C117.241 74.1988 116.823 73.1741 116.823 72.1058V64.4325C131.892 51.8536 151.258 45.8521 170.678 47.7431C187.308 49.4696 202.913 56.9351 219.495 58.9333C225.951 59.7326 233.179 59.4609 238.014 55.0168C241.62 51.7077 243.179 46.6401 243.699 41.7324C244.25 36.505 243.699 30.9418 240.88 26.5457C239.715 24.7553 238.203 23.2206 237.022 21.4302C234.921 17.9767 233.748 14.0249 233.62 9.96817C233.345 7.51473 233.636 5.02979 234.471 2.71053L234.549 2.53468H256.139C256.671 2.52386 257.202 2.62222 257.696 2.82385C258.191 3.02548 258.641 3.32626 259.019 3.70823C259.397 4.09021 259.695 4.54554 259.895 5.04704C260.096 5.54854 260.194 6.08591 260.186 6.6271Z" fill="#6DDAD3"/>
<path d="M263.979 88.923H112.806V101.712H263.979V88.923Z" fill="#6DDAD3"/>
<path d="M113.735 88.6834H196.534C196.534 90.3793 195.871 92.0058 194.688 93.2049C193.507 94.4041 191.906 95.0778 190.235 95.0778H113.735V88.6834Z" fill="#6DDAD3"/>
<path d="M175.763 88.923H263.979V101.712H112.806V88.923H146.017" stroke="#132235" stroke-width="2" stroke-miterlimit="10"/>
<path d="M152.457 88.923H170.268" stroke="#132235" stroke-width="2" stroke-miterlimit="10"/>
<path d="M182.172 1.00003H256.074C257.126 1.00003 258.136 1.42446 258.881 2.17994C259.625 2.93543 260.043 3.9601 260.043 5.02851V70.5711C260.027 71.6284 259.6 72.6368 258.859 73.3784C258.117 74.1202 257.117 74.5358 256.074 74.5356H120.727C120.204 74.5377 119.687 74.4351 119.203 74.2337C118.72 74.0321 118.281 73.7357 117.91 73.3615C117.54 72.9871 117.247 72.5423 117.046 72.0525C116.846 71.5627 116.743 71.0376 116.743 70.5072V4.96456C116.759 3.9045 117.187 2.89378 117.933 2.15163C118.678 1.40947 119.682 0.995695 120.727 1.00003H149.292" stroke="#132235" stroke-width="2" stroke-miterlimit="10"/>
<path d="M156.191 1H175.623" stroke="#132235" stroke-width="2" stroke-miterlimit="10"/>
<path d="M134.255 74.5356H127.846V87.3244H134.255V74.5356Z" fill="#132235"/>
<path d="M249.494 74.5356H243.084V87.3244H249.494V74.5356Z" fill="#132235"/>
<path d="M191.874 74.5356H185.465V87.3244H191.874V74.5356Z" fill="#132235"/>
<path d="M132.631 20.1832C135.24 20.1832 137.356 18.0361 137.356 15.3874C137.356 12.7388 135.24 10.5916 132.631 10.5916C130.022 10.5916 127.907 12.7388 127.907 15.3874C127.907 18.0361 130.022 20.1832 132.631 20.1832Z" fill="#132235"/>
<path d="M132.631 63.3454C135.24 63.3454 137.356 61.1983 137.356 58.5496C137.356 55.9009 135.24 53.7538 132.631 53.7538C130.022 53.7538 127.907 55.9009 127.907 58.5496C127.907 61.1983 130.022 63.3454 132.631 63.3454Z" fill="#132235"/>
<path d="M244.437 20.1832C247.046 20.1832 249.161 18.0361 249.161 15.3874C249.161 12.7388 247.046 10.5916 244.437 10.5916C241.828 10.5916 239.713 12.7388 239.713 15.3874C239.713 18.0361 241.828 20.1832 244.437 20.1832Z" fill="#132235"/>
<path d="M244.437 63.3454C247.046 63.3454 249.161 61.1983 249.161 58.5496C249.161 55.9009 247.046 53.7538 244.437 53.7538C241.828 53.7538 239.713 55.9009 239.713 58.5496C239.713 61.1983 241.828 63.3454 244.437 63.3454Z" fill="#132235"/>
<path d="M243.59 178.509H228.992C227.592 178.509 226.457 179.658 226.457 181.074C226.457 182.491 227.592 183.64 228.992 183.64H243.59C244.99 183.64 246.125 182.491 246.125 181.074C246.125 179.658 244.99 178.509 243.59 178.509Z" fill="#132235"/>
<path d="M241.179 305.597H212.409C211.009 305.597 209.874 306.747 209.874 308.163C209.874 309.579 211.009 310.729 212.409 310.729H241.179C242.579 310.729 243.714 309.579 243.714 308.163C243.714 306.747 242.579 305.597 241.179 305.597Z" fill="#132235"/>
<path d="M203.826 310.793C205.348 310.793 206.582 309.541 206.582 307.995C206.582 306.451 205.348 305.198 203.826 305.198C202.304 305.198 201.071 306.451 201.071 307.995C201.071 309.541 202.304 310.793 203.826 310.793Z" fill="#132235"/>
<path opacity="0.8" d="M225.101 340.831L150.286 404.775V385.607L217.227 329.656L225.101 340.831Z" fill="#6DDAD3"/>
<path opacity="0.8" d="M225.101 375.696L175.481 417.26L150.286 417.276L226.676 354.93L225.101 375.696Z" fill="#6DDAD3"/>
<path opacity="0.7" d="M225.101 216.14L150.286 280.084V260.916L225.274 197.884L225.101 216.14Z" fill="#6DDAD3"/>
<path opacity="0.7" d="M225.101 251.021L175.481 292.585L150.286 292.601L226.676 230.255L225.101 251.021Z" fill="#6DDAD3"/>
<path d="M249.02 202.088V416.636H127.766V387.03" stroke="#132235" stroke-width="3" stroke-linecap="round" stroke-linejoin="round"/>
<path d="M188.392 317.523C198.625 317.523 208.439 321.649 215.673 328.994C222.909 336.34 226.973 346.301 226.973 356.689V416.636H149.812V356.689C149.812 346.301 153.877 336.34 161.112 328.994C168.348 321.649 178.16 317.523 188.392 317.523Z" stroke="#132235" stroke-width="2" stroke-miterlimit="10"/>
<path d="M187.747 317.523V415.038" stroke="#6DDAD3" stroke-width="2" stroke-miterlimit="10"/>
<path d="M227.115 349.495H149.953" stroke="#6DDAD3" stroke-width="2" stroke-miterlimit="10"/>
<path d="M170.425 341.87V349.495" stroke="#6DDAD3" stroke-width="2" stroke-miterlimit="10"/>
<path d="M170.425 320.72V335.635" stroke="#6DDAD3" stroke-width="2" stroke-miterlimit="10"/>
<path d="M205.069 320.72V349.495" stroke="#6DDAD3" stroke-width="2" stroke-miterlimit="10"/>
<path d="M128.662 217.339C130.483 217.351 132.225 218.095 133.508 219.407C134.792 220.718 135.512 222.493 135.512 224.341V239.591C135.512 241.449 134.785 243.23 133.492 244.542C132.198 245.856 130.444 246.593 128.615 246.593V217.339H128.662Z" fill="#6DDAD3"/>
<path d="M182.824 239.491C183.779 238.682 183.908 237.24 183.111 236.271C182.316 235.301 180.895 235.17 179.939 235.978L161.254 251.795C160.298 252.604 160.169 254.044 160.965 255.015C161.762 255.983 163.183 256.114 164.137 255.305L182.824 239.491Z" fill="#6DDAD3"/>
<path d="M214.41 218.629C215.366 217.82 215.495 216.378 214.698 215.409C213.901 214.439 212.481 214.308 211.527 215.117L192.839 230.933C191.885 231.742 191.756 233.182 192.553 234.153C193.35 235.123 194.769 235.253 195.724 234.445L214.41 218.629Z" fill="#6DDAD3"/>
<path d="M220.248 251.622C221.204 250.813 221.333 249.371 220.536 248.403C219.739 247.432 218.319 247.303 217.364 248.11L198.677 263.927C197.723 264.736 197.594 266.177 198.391 267.146C199.187 268.117 200.606 268.248 201.562 267.439L220.248 251.622Z" fill="#6DDAD3"/>
<path d="M188.994 266.607C189.948 265.8 190.078 264.358 189.281 263.388C188.485 262.419 187.065 262.288 186.109 263.097L167.423 278.914C166.468 279.721 166.338 281.163 167.135 282.133C167.932 283.102 169.352 283.233 170.307 282.424L188.994 266.607Z" fill="#6DDAD3"/>
<path d="M128.662 316.644C130.486 316.656 132.23 317.401 133.514 318.717C134.798 320.033 135.516 321.81 135.512 323.662V338.912C135.512 340.77 134.785 342.551 133.492 343.863C132.198 345.176 130.444 345.914 128.615 345.914V316.644H128.662Z" fill="#6DDAD3"/>
<path d="M127.766 374.161V204.07" stroke="#132235" stroke-width="3" stroke-linecap="round" stroke-linejoin="round"/>
<path d="M188.392 167.255C198.416 167.255 208.029 171.297 215.117 178.491C222.205 185.686 226.186 195.446 226.186 205.621V291.945H150.599V205.621C150.599 195.446 154.581 185.686 161.669 178.491C168.756 171.297 178.369 167.255 188.392 167.255Z" stroke="#132235" stroke-width="2" stroke-miterlimit="10"/>
<path d="M187.747 204.022V293.544" stroke="#6DDAD3" stroke-width="2" stroke-miterlimit="10"/>
<path d="M227.115 204.022H149.953" stroke="#6DDAD3" stroke-width="2" stroke-miterlimit="10"/>
<path d="M160.803 209.41H160.788C159.309 209.41 158.11 210.626 158.11 212.127V233.628C158.11 235.129 159.309 236.346 160.788 236.346H160.803C162.282 236.346 163.48 235.129 163.48 233.628V212.127C163.48 210.626 162.282 209.41 160.803 209.41Z" fill="#6DDAD3"/>
<path d="M46.2904 341.614H46.2747C44.7962 341.614 43.5977 342.83 43.5977 344.331V365.833C43.5977 367.334 44.7962 368.55 46.2747 368.55H46.2904C47.7689 368.55 48.9675 367.334 48.9675 365.833V344.331C48.9675 342.83 47.7689 341.614 46.2904 341.614Z" fill="#6DDAD3"/>
<path d="M136.568 112.263H187.826C188.139 112.263 188.44 112.136 188.66 111.912C188.882 111.687 189.007 111.382 189.007 111.064C189.007 110.746 188.882 110.441 188.66 110.216C188.44 109.991 188.139 109.865 187.826 109.865H136.568C136.255 109.865 135.955 109.991 135.733 110.216C135.512 110.441 135.387 110.746 135.387 111.064C135.387 111.382 135.512 111.687 135.733 111.912C135.955 112.136 136.255 112.263 136.568 112.263Z" fill="#6DDAD3"/>
<path d="M136.568 120.783H203.573C203.886 120.783 204.187 120.657 204.408 120.432C204.63 120.207 204.754 119.902 204.754 119.584C204.754 119.266 204.63 118.961 204.408 118.736C204.187 118.511 203.886 118.385 203.573 118.385H136.568C136.255 118.385 135.955 118.511 135.733 118.736C135.512 118.961 135.387 119.266 135.387 119.584C135.387 119.902 135.512 120.207 135.733 120.432C135.955 120.657 136.255 120.783 136.568 120.783Z" fill="#6DDAD3"/>
<path d="M141.292 129.304H187.826C188.139 129.304 188.44 129.177 188.66 128.952C188.882 128.728 189.007 128.423 189.007 128.105C189.007 127.787 188.882 127.482 188.66 127.257C188.44 127.032 188.139 126.906 187.826 126.906H141.292C140.979 126.906 140.679 127.032 140.457 127.257C140.236 127.482 140.111 127.787 140.111 128.105C140.111 128.423 140.236 128.728 140.457 128.952C140.679 129.177 140.979 129.304 141.292 129.304Z" fill="#6DDAD3"/>
<path d="M186.835 145.002C188.262 145.002 189.418 143.828 189.418 142.38C189.418 140.932 188.262 139.758 186.835 139.758C185.409 139.758 184.253 140.932 184.253 142.38C184.253 143.828 185.409 145.002 186.835 145.002Z" fill="#6DDAD3"/>
<path d="M178.848 145.242C179.927 145.242 180.801 144.354 180.801 143.259C180.801 142.165 179.927 141.277 178.848 141.277C177.771 141.277 176.896 142.165 176.896 143.259C176.896 144.354 177.771 145.242 178.848 145.242Z" fill="#6DDAD3"/>
<path d="M191.099 141.501C191.692 141.501 192.17 141.014 192.17 140.414C192.17 139.814 191.692 139.327 191.099 139.327C190.509 139.327 190.029 139.814 190.029 140.414C190.029 141.014 190.509 141.501 191.099 141.501Z" fill="#6DDAD3"/>
<path d="M113.181 135.778H131.007C131.007 136.736 130.632 137.655 129.965 138.333C129.297 139.01 128.392 139.391 127.448 139.391H113.181V135.778Z" fill="#6DDAD3"/>
<path d="M132.613 135.778H150.439C150.439 136.736 150.064 137.655 149.396 138.333C148.729 139.01 147.824 139.391 146.88 139.391H136.172C135.704 139.391 135.242 139.298 134.81 139.116C134.378 138.934 133.986 138.668 133.655 138.333C133.325 137.997 133.063 137.599 132.884 137.161C132.705 136.722 132.613 136.252 132.613 135.778Z" fill="#6DDAD3"/>
<path d="M225.651 135.282H263.979V148.071H112.806V135.282H217.714" stroke="#132235" stroke-width="2" stroke-miterlimit="10"/>
<path d="M100.3 314.006V414.542" stroke="#132235" stroke-width="2" stroke-linecap="round" stroke-linejoin="round"/>
<path d="M46.2882 337.186C47.9406 337.186 49.2802 335.825 49.2802 334.148C49.2802 332.471 47.9406 331.111 46.2882 331.111C44.6359 331.111 43.2963 332.471 43.2963 334.148C43.2963 335.825 44.6359 337.186 46.2882 337.186Z" fill="#6DDAD3"/>
<path d="M93.0908 194.606C93.0908 194.606 127.168 189.011 127.168 156.943" stroke="#132235" stroke-width="2" stroke-linecap="round" stroke-linejoin="round"/>
<path d="M12.4352 295.51H32.7964" stroke="#132235" stroke-linecap="round" stroke-linejoin="round"/>
<path d="M129.482 303.887H140.505" stroke="#132235" stroke-width="2" stroke-linecap="round" stroke-linejoin="round"/>
<path d="M146.963 306.221C148.172 306.221 149.152 305.226 149.152 303.999C149.152 302.771 148.172 301.777 146.963 301.777C145.754 301.777 144.774 302.771 144.774 303.999C144.774 305.226 145.754 306.221 146.963 306.221Z" fill="#132235"/>
<path d="M388.383 415.022H1V427.81H388.383V415.022Z" fill="#6DDAD3"/>
<path d="M363.187 415.022H1V421.416H363.187V415.022Z" fill="#6DDAD3"/>
<path d="M350.719 415.022H389.048V427.81H1.66443V415.022H352.231" stroke="#132235" stroke-width="2" stroke-miterlimit="10"/>
<path d="M356.667 256.456H322.164V278.949H356.667V256.456Z" fill="#6DDAD3"/>
<path d="M356.667 256.105H322.164V261.188H356.667V256.105Z" fill="#6DDAD3"/>
<path d="M356.667 256.105H322.164V278.597H356.667V256.105Z" stroke="#132235" stroke-width="2" stroke-linecap="round" stroke-linejoin="round"/>
<path d="M339.614 271.995C341.658 271.995 343.314 270.313 343.314 268.238C343.314 266.163 341.658 264.481 339.614 264.481C337.57 264.481 335.913 266.163 335.913 268.238C335.913 270.313 337.57 271.995 339.614 271.995Z" stroke="#132235" stroke-width="1.5" stroke-linecap="round" stroke-linejoin="round"/>
</svg>
