<svg width="445" height="503" viewBox="0 0 445 503" fill="none" xmlns="http://www.w3.org/2000/svg">
<g filter="url(#filter0_d_24_2835)">
<path d="M434.072 96.1899H335.389C335.389 96.1899 345.177 68.0548 360.23 68.0548C375.284 68.0548 380.012 87.482 380.012 87.482C380.012 87.482 390.172 76.9259 398.514 76.9259C406.856 76.9259 414.115 90.8738 414.115 90.8738C414.115 90.8738 425.895 83.3726 434.072 96.1899Z" fill="#EBEBEB"/>
<path d="M347.903 36.8213H301.793C301.793 36.8213 312.118 21.1013 320.212 21.1013C328.307 21.1013 330.733 31.5813 330.733 31.5813C330.733 31.5813 336.463 26.6892 341.77 27.5589C347.077 28.4286 347.903 36.8213 347.903 36.8213Z" fill="#EBEBEB"/>
<path d="M100.752 94.3201H10.9279C10.9279 94.3201 23.2348 65.3805 36.3884 63.5976C49.5419 61.8147 55.84 85.0794 55.84 85.0794C55.84 85.0794 64.3268 76.8498 71.0068 76.8498C77.6869 76.8498 82.8285 87.7212 82.8285 87.7212C82.8285 87.7212 96.1783 80.2634 100.752 94.3201Z" fill="#EBEBEB"/>
<path d="M193.921 24.3845H133.254C133.254 24.3845 143.671 3.43542 154.936 3.13102C166.2 2.82662 172.188 18.9814 172.188 18.9814C172.188 18.9814 189.823 4.12031 193.921 24.3845Z" fill="#EBEBEB"/>
<path d="M91.7386 170.398H31.0609C31.0609 170.398 41.4784 149.449 52.7426 149.144C64.0067 148.84 69.995 164.995 69.995 164.995C69.995 164.995 87.6294 150.177 91.7386 170.398Z" fill="#EBEBEB"/>
<path d="M227.745 78.2086H186.787C186.787 78.2086 193.828 64.0759 201.458 63.8584C209.088 63.641 213.105 74.5558 213.105 74.5558C213.105 74.5558 224.978 64.5216 227.745 78.2086Z" fill="#EBEBEB"/>
<path d="M164.218 138.49H123.26C123.26 138.49 130.291 124.358 137.921 124.14C145.551 123.923 149.567 134.849 149.567 134.849C149.567 134.849 161.44 124.814 164.218 138.49Z" fill="#EBEBEB"/>
<path d="M211.814 129.521H201.19V142.73H211.814V129.521Z" fill="#DBDBDB"/>
<path d="M218.546 129.521H211.814V143.219H218.546V129.521Z" fill="#C7C7C7"/>
<path d="M218.99 135.359H212.31V143.219H218.99V135.359Z" fill="#DBDBDB"/>
<path d="M223.161 135.359H218.99V143.219H223.161V135.359Z" fill="#C7C7C7"/>
<path d="M214.292 141.882H197.112V207.621H214.292V141.882Z" fill="#EBEBEB"/>
<path d="M204.473 144.698H199.073V147.024H204.473V144.698Z" fill="white"/>
<path d="M211.38 144.698H205.981V147.024H211.38V144.698Z" fill="white"/>
<path d="M204.473 148.644H199.073V150.971H204.473V148.644Z" fill="white"/>
<path d="M211.38 148.644H205.981V150.971H211.38V148.644Z" fill="white"/>
<path d="M204.473 152.591H199.073V154.917H204.473V152.591Z" fill="white"/>
<path d="M211.38 152.591H205.981V154.917H211.38V152.591Z" fill="white"/>
<path d="M204.473 156.537H199.073V158.863H204.473V156.537Z" fill="white"/>
<path d="M211.38 156.537H205.981V158.863H211.38V156.537Z" fill="white"/>
<path d="M204.473 160.483H199.073V162.81H204.473V160.483Z" fill="white"/>
<path d="M211.38 160.483H205.981V162.81H211.38V160.483Z" fill="white"/>
<path d="M204.473 164.429H199.073V166.756H204.473V164.429Z" fill="white"/>
<path d="M211.38 164.429H205.981V166.756H211.38V164.429Z" fill="white"/>
<path d="M204.473 168.376H199.073V170.702H204.473V168.376Z" fill="white"/>
<path d="M211.38 168.376H205.981V170.702H211.38V168.376Z" fill="white"/>
<path d="M204.473 172.322H199.073V174.648H204.473V172.322Z" fill="white"/>
<path d="M211.38 172.322H205.981V174.648H211.38V172.322Z" fill="white"/>
<path d="M204.473 176.268H199.073V178.595H204.473V176.268Z" fill="white"/>
<path d="M211.38 176.268H205.981V178.595H211.38V176.268Z" fill="white"/>
<path d="M204.473 180.215H199.073V182.541H204.473V180.215Z" fill="white"/>
<path d="M211.38 180.215H205.981V182.541H211.38V180.215Z" fill="white"/>
<path d="M204.473 184.161H199.073V186.487H204.473V184.161Z" fill="white"/>
<path d="M211.38 184.161H205.981V186.487H211.38V184.161Z" fill="white"/>
<path d="M204.473 188.107H199.073V190.434H204.473V188.107Z" fill="white"/>
<path d="M211.38 188.107H205.981V190.434H211.38V188.107Z" fill="white"/>
<path d="M204.473 192.054H199.073V194.38H204.473V192.054Z" fill="white"/>
<path d="M211.38 192.054H205.981V194.38H211.38V192.054Z" fill="white"/>
<path d="M204.473 196H199.073V198.326H204.473V196Z" fill="white"/>
<path d="M211.38 196H205.981V198.326H211.38V196Z" fill="white"/>
<path d="M228.209 141.882H214.292V207.621H228.209V141.882Z" fill="#C7C7C7"/>
<path d="M222.376 198.315H226.816V195.989H222.376V198.315Z" fill="#EBEBEB"/>
<path d="M216.698 198.315H221.137V195.989H216.698V198.315Z" fill="#EBEBEB"/>
<path d="M222.376 194.369H226.816V192.043H222.376V194.369Z" fill="#EBEBEB"/>
<path d="M216.698 194.369H221.137V192.043H216.698V194.369Z" fill="#EBEBEB"/>
<path d="M222.376 190.423H226.816V188.096H222.376V190.423Z" fill="#EBEBEB"/>
<path d="M216.698 190.423H221.137V188.096H216.698V190.423Z" fill="#EBEBEB"/>
<path d="M222.376 186.476H226.816V184.15H222.376V186.476Z" fill="#EBEBEB"/>
<path d="M216.698 186.476H221.137V184.15H216.698V186.476Z" fill="#EBEBEB"/>
<path d="M222.376 182.541H226.816V180.215H222.376V182.541Z" fill="#EBEBEB"/>
<path d="M216.698 182.541H221.137V180.215H216.698V182.541Z" fill="#EBEBEB"/>
<path d="M222.376 178.595H226.816V176.268H222.376V178.595Z" fill="#EBEBEB"/>
<path d="M216.698 178.595H221.137V176.268H216.698V178.595Z" fill="#EBEBEB"/>
<path d="M222.376 174.649H226.816V172.322H222.376V174.649Z" fill="#EBEBEB"/>
<path d="M216.698 174.649H221.137V172.322H216.698V174.649Z" fill="#EBEBEB"/>
<path d="M222.376 170.702H226.816V168.376H222.376V170.702Z" fill="#EBEBEB"/>
<path d="M216.698 170.702H221.137V168.376H216.698V170.702Z" fill="#EBEBEB"/>
<path d="M222.376 166.756H226.816V164.429H222.376V166.756Z" fill="#EBEBEB"/>
<path d="M216.698 166.756H221.137V164.429H216.698V166.756Z" fill="#EBEBEB"/>
<path d="M222.376 162.81H226.816V160.483H222.376V162.81Z" fill="#EBEBEB"/>
<path d="M216.698 162.81H221.137V160.483H216.698V162.81Z" fill="#EBEBEB"/>
<path d="M222.376 158.863H226.816V156.537H222.376V158.863Z" fill="#EBEBEB"/>
<path d="M216.698 158.863H221.137V156.537H216.698V158.863Z" fill="#EBEBEB"/>
<path d="M222.376 154.917H226.816V152.591H222.376V154.917Z" fill="#EBEBEB"/>
<path d="M216.698 154.917H221.137V152.591H216.698V154.917Z" fill="#EBEBEB"/>
<path d="M222.376 150.982H226.816V148.655H222.376V150.982Z" fill="#EBEBEB"/>
<path d="M216.698 150.982H221.137V148.655H216.698V150.982Z" fill="#EBEBEB"/>
<path d="M222.376 147.035H226.816V144.709H222.376V147.035Z" fill="#EBEBEB"/>
<path d="M216.698 147.035H221.137V144.709H216.698V147.035Z" fill="#EBEBEB"/>
<path d="M338.094 114.41H321.214V207.61H338.094V114.41Z" fill="#DBDBDB"/>
<path d="M327.119 117.443H323.836V120.998H327.119V117.443Z" fill="#EBEBEB"/>
<path d="M331.311 117.443H328.028V120.998H331.311V117.443Z" fill="#EBEBEB"/>
<path d="M327.119 123.477H323.836V127.032H327.119V123.477Z" fill="#EBEBEB"/>
<path d="M331.311 123.477H328.028V127.032H331.311V123.477Z" fill="#EBEBEB"/>
<path d="M327.119 129.521H323.836V133.077H327.119V129.521Z" fill="#EBEBEB"/>
<path d="M331.311 129.521H328.028V133.077H331.311V129.521Z" fill="#EBEBEB"/>
<path d="M327.119 135.566H323.836V139.121H327.119V135.566Z" fill="#EBEBEB"/>
<path d="M331.311 135.566H328.028V139.121H331.311V135.566Z" fill="#EBEBEB"/>
<path d="M327.119 141.61H323.836V145.165H327.119V141.61Z" fill="#EBEBEB"/>
<path d="M331.311 141.61H328.028V145.165H331.311V141.61Z" fill="#EBEBEB"/>
<path d="M327.119 147.644H323.836V151.199H327.119V147.644Z" fill="#EBEBEB"/>
<path d="M331.311 147.644H328.028V151.199H331.311V147.644Z" fill="#EBEBEB"/>
<path d="M327.119 153.688H323.836V157.244H327.119V153.688Z" fill="#EBEBEB"/>
<path d="M331.311 153.688H328.028V157.244H331.311V153.688Z" fill="#EBEBEB"/>
<path d="M327.119 159.733H323.836V163.288H327.119V159.733Z" fill="#EBEBEB"/>
<path d="M331.311 159.733H328.028V163.288H331.311V159.733Z" fill="#EBEBEB"/>
<path d="M327.119 165.777H323.836V169.332H327.119V165.777Z" fill="#EBEBEB"/>
<path d="M331.311 165.777H328.028V169.332H331.311V165.777Z" fill="#EBEBEB"/>
<path d="M327.119 171.811H323.836V175.366H327.119V171.811Z" fill="#EBEBEB"/>
<path d="M331.311 171.811H328.028V175.366H331.311V171.811Z" fill="#EBEBEB"/>
<path d="M327.119 177.856H323.836V181.411H327.119V177.856Z" fill="#EBEBEB"/>
<path d="M331.311 177.856H328.028V181.411H331.311V177.856Z" fill="#EBEBEB"/>
<path d="M327.119 183.9H323.836V187.455H327.119V183.9Z" fill="#EBEBEB"/>
<path d="M331.311 183.9H328.028V187.455H331.311V183.9Z" fill="#EBEBEB"/>
<path d="M327.119 189.945H323.836V193.5H327.119V189.945Z" fill="#EBEBEB"/>
<path d="M331.311 189.945H328.028V193.5H331.311V189.945Z" fill="#EBEBEB"/>
<path d="M327.119 195.978H323.836V199.533H327.119V195.978Z" fill="#EBEBEB"/>
<path d="M332.199 199.544H335.482V195.989H332.199V199.544Z" fill="#EBEBEB"/>
<path d="M332.199 193.5H335.482V189.945H332.199V193.5Z" fill="#EBEBEB"/>
<path d="M332.199 187.455H335.482V183.9H332.199V187.455Z" fill="#EBEBEB"/>
<path d="M332.199 181.421H335.482V177.866H332.199V181.421Z" fill="#EBEBEB"/>
<path d="M332.199 175.377H335.482V171.822H332.199V175.377Z" fill="#EBEBEB"/>
<path d="M332.199 169.332H335.482V165.777H332.199V169.332Z" fill="#EBEBEB"/>
<path d="M332.199 163.288H335.482V159.733H332.199V163.288Z" fill="#EBEBEB"/>
<path d="M332.199 157.254H335.482V153.699H332.199V157.254Z" fill="#EBEBEB"/>
<path d="M332.199 151.21H335.482V147.655H332.199V151.21Z" fill="#EBEBEB"/>
<path d="M332.199 145.165H335.482V141.61H332.199V145.165Z" fill="#EBEBEB"/>
<path d="M332.199 139.121H335.482V135.566H332.199V139.121Z" fill="#EBEBEB"/>
<path d="M332.199 133.087H335.482V129.532H332.199V133.087Z" fill="#EBEBEB"/>
<path d="M332.199 127.043H335.482V123.488H332.199V127.043Z" fill="#EBEBEB"/>
<path d="M332.199 120.987H335.482V117.432H332.199V120.987Z" fill="#EBEBEB"/>
<path d="M331.311 195.978H328.028V199.533H331.311V195.978Z" fill="#EBEBEB"/>
<path d="M351.403 114.41H338.094V207.61H351.403V114.41Z" fill="#A6A6A6"/>
<path d="M347.325 199.544H350.04V195.989H347.325V199.544Z" fill="#C7C7C7"/>
<path d="M343.856 199.544H346.571V195.989H343.856V199.544Z" fill="#C7C7C7"/>
<path d="M347.325 193.5H350.04V189.945H347.325V193.5Z" fill="#C7C7C7"/>
<path d="M343.856 193.5H346.571V189.945H343.856V193.5Z" fill="#C7C7C7"/>
<path d="M347.325 187.455H350.04V183.9H347.325V187.455Z" fill="#C7C7C7"/>
<path d="M343.856 187.455H346.571V183.9H343.856V187.455Z" fill="#C7C7C7"/>
<path d="M347.325 181.421H350.04V177.866H347.325V181.421Z" fill="#C7C7C7"/>
<path d="M343.856 181.421H346.571V177.866H343.856V181.421Z" fill="#C7C7C7"/>
<path d="M347.325 175.377H350.04V171.822H347.325V175.377Z" fill="#C7C7C7"/>
<path d="M343.856 175.377H346.571V171.822H343.856V175.377Z" fill="#C7C7C7"/>
<path d="M347.325 169.332H350.04V165.777H347.325V169.332Z" fill="#C7C7C7"/>
<path d="M343.856 169.332H346.571V165.777H343.856V169.332Z" fill="#C7C7C7"/>
<path d="M347.325 163.288H350.04V159.733H347.325V163.288Z" fill="#C7C7C7"/>
<path d="M343.856 163.288H346.571V159.733H343.856V163.288Z" fill="#C7C7C7"/>
<path d="M347.325 157.254H350.04V153.699H347.325V157.254Z" fill="#C7C7C7"/>
<path d="M343.856 157.254H346.571V153.699H343.856V157.254Z" fill="#C7C7C7"/>
<path d="M347.325 151.21H350.04V147.655H347.325V151.21Z" fill="#C7C7C7"/>
<path d="M343.856 151.21H346.571V147.655H343.856V151.21Z" fill="#C7C7C7"/>
<path d="M347.325 145.165H350.04V141.61H347.325V145.165Z" fill="#C7C7C7"/>
<path d="M343.856 145.165H346.571V141.61H343.856V145.165Z" fill="#C7C7C7"/>
<path d="M347.325 139.121H350.04V135.566H347.325V139.121Z" fill="#C7C7C7"/>
<path d="M343.856 139.121H346.571V135.566H343.856V139.121Z" fill="#C7C7C7"/>
<path d="M347.325 133.087H350.04V129.532H347.325V133.087Z" fill="#C7C7C7"/>
<path d="M343.856 133.087H346.571V129.532H343.856V133.087Z" fill="#C7C7C7"/>
<path d="M347.325 127.043H350.04V123.488H347.325V127.043Z" fill="#C7C7C7"/>
<path d="M343.856 127.043H346.571V123.488H343.856V127.043Z" fill="#C7C7C7"/>
<path d="M347.325 120.987H350.04V117.432H347.325V120.987Z" fill="#C7C7C7"/>
<path d="M343.133 117.443H340.417V120.998H343.133V117.443Z" fill="#C7C7C7"/>
<path d="M343.133 123.477H340.417V127.032H343.133V123.477Z" fill="#C7C7C7"/>
<path d="M343.133 129.521H340.417V133.077H343.133V129.521Z" fill="#C7C7C7"/>
<path d="M343.133 135.566H340.417V139.121H343.133V135.566Z" fill="#C7C7C7"/>
<path d="M343.133 141.61H340.417V145.165H343.133V141.61Z" fill="#C7C7C7"/>
<path d="M343.133 147.644H340.417V151.199H343.133V147.644Z" fill="#C7C7C7"/>
<path d="M343.133 153.688H340.417V157.244H343.133V153.688Z" fill="#C7C7C7"/>
<path d="M343.133 159.733H340.417V163.288H343.133V159.733Z" fill="#C7C7C7"/>
<path d="M343.133 165.777H340.417V169.332H343.133V165.777Z" fill="#C7C7C7"/>
<path d="M343.133 171.811H340.417V175.366H343.133V171.811Z" fill="#C7C7C7"/>
<path d="M343.133 177.856H340.417V181.411H343.133V177.856Z" fill="#C7C7C7"/>
<path d="M343.133 183.9H340.417V187.455H343.133V183.9Z" fill="#C7C7C7"/>
<path d="M343.133 189.945H340.417V193.5H343.133V189.945Z" fill="#C7C7C7"/>
<path d="M343.133 195.978H340.417V199.533H343.133V195.978Z" fill="#C7C7C7"/>
<path d="M343.856 120.987H346.571V117.432H343.856V120.987Z" fill="#C7C7C7"/>
<path d="M242.654 109.388H222.676V207.611H242.654V109.388Z" fill="#EBEBEB"/>
<path d="M242.643 107.235H222.19V109.388H242.643V107.235Z" fill="#C7C7C7"/>
<path d="M226.506 112.551H224.482V207.611H226.506V112.551Z" fill="white"/>
<path d="M230.089 112.551H228.065V207.611H230.089V112.551Z" fill="white"/>
<path d="M233.671 112.551H231.648V207.611H233.671V112.551Z" fill="white"/>
<path d="M237.254 112.551H235.23V207.611H237.254V112.551Z" fill="white"/>
<path d="M240.837 112.551H238.813V207.611H240.837V112.551Z" fill="white"/>
<path d="M226.506 115.269H224.482V119.509H226.506V115.269Z" fill="#EBEBEB"/>
<path d="M230.089 115.269H228.065V119.509H230.089V115.269Z" fill="#EBEBEB"/>
<path d="M233.671 115.269H231.648V119.509H233.671V115.269Z" fill="#EBEBEB"/>
<path d="M237.254 115.269H235.23V119.509H237.254V115.269Z" fill="#EBEBEB"/>
<path d="M240.837 115.269H238.813V119.509H240.837V115.269Z" fill="#EBEBEB"/>
<path d="M226.506 122.172H224.482V126.423H226.506V122.172Z" fill="#EBEBEB"/>
<path d="M230.089 122.172H228.065V126.423H230.089V122.172Z" fill="#EBEBEB"/>
<path d="M233.671 122.172H231.648V126.423H233.671V122.172Z" fill="#EBEBEB"/>
<path d="M237.254 122.172H235.23V126.423H237.254V122.172Z" fill="#EBEBEB"/>
<path d="M240.837 122.172H238.813V126.423H240.837V122.172Z" fill="#EBEBEB"/>
<path d="M226.506 129.076H224.482V133.316H226.506V129.076Z" fill="#EBEBEB"/>
<path d="M230.089 129.076H228.065V133.316H230.089V129.076Z" fill="#EBEBEB"/>
<path d="M233.671 129.076H231.648V133.316H233.671V129.076Z" fill="#EBEBEB"/>
<path d="M237.254 129.076H235.23V133.316H237.254V129.076Z" fill="#EBEBEB"/>
<path d="M240.837 129.076H238.813V133.316H240.837V129.076Z" fill="#EBEBEB"/>
<path d="M226.506 135.968H224.482V140.219H226.506V135.968Z" fill="#EBEBEB"/>
<path d="M230.089 135.968H228.065V140.219H230.089V135.968Z" fill="#EBEBEB"/>
<path d="M233.671 135.968H231.648V140.219H233.671V135.968Z" fill="#EBEBEB"/>
<path d="M237.254 135.968H235.23V140.219H237.254V135.968Z" fill="#EBEBEB"/>
<path d="M240.837 135.968H238.813V140.219H240.837V135.968Z" fill="#EBEBEB"/>
<path d="M226.506 142.872H224.482V147.111H226.506V142.872Z" fill="#EBEBEB"/>
<path d="M230.089 142.872H228.065V147.111H230.089V142.872Z" fill="#EBEBEB"/>
<path d="M233.671 142.872H231.648V147.111H233.671V142.872Z" fill="#EBEBEB"/>
<path d="M237.254 142.872H235.23V147.111H237.254V142.872Z" fill="#EBEBEB"/>
<path d="M240.837 142.872H238.813V147.111H240.837V142.872Z" fill="#EBEBEB"/>
<path d="M226.506 149.775H224.482V154.026H226.506V149.775Z" fill="#EBEBEB"/>
<path d="M230.089 149.775H228.065V154.026H230.089V149.775Z" fill="#EBEBEB"/>
<path d="M233.671 149.775H231.648V154.026H233.671V149.775Z" fill="#EBEBEB"/>
<path d="M237.254 149.775H235.23V154.026H237.254V149.775Z" fill="#EBEBEB"/>
<path d="M240.837 149.775H238.813V154.026H240.837V149.775Z" fill="#EBEBEB"/>
<path d="M226.506 156.667H224.482V160.907H226.506V156.667Z" fill="#EBEBEB"/>
<path d="M230.089 156.667H228.065V160.907H230.089V156.667Z" fill="#EBEBEB"/>
<path d="M233.671 156.667H231.648V160.907H233.671V156.667Z" fill="#EBEBEB"/>
<path d="M237.254 156.667H235.23V160.907H237.254V156.667Z" fill="#EBEBEB"/>
<path d="M240.837 156.667H238.813V160.907H240.837V156.667Z" fill="#EBEBEB"/>
<path d="M226.506 163.571H224.482V167.81H226.506V163.571Z" fill="#EBEBEB"/>
<path d="M230.089 163.571H228.065V167.81H230.089V163.571Z" fill="#EBEBEB"/>
<path d="M233.671 163.571H231.648V167.81H233.671V163.571Z" fill="#EBEBEB"/>
<path d="M237.254 163.571H235.23V167.81H237.254V163.571Z" fill="#EBEBEB"/>
<path d="M240.837 163.571H238.813V167.81H240.837V163.571Z" fill="#EBEBEB"/>
<path d="M226.506 170.474H224.482V174.725H226.506V170.474Z" fill="#EBEBEB"/>
<path d="M230.089 170.474H228.065V174.725H230.089V170.474Z" fill="#EBEBEB"/>
<path d="M233.671 170.474H231.648V174.725H233.671V170.474Z" fill="#EBEBEB"/>
<path d="M237.254 170.474H235.23V174.725H237.254V170.474Z" fill="#EBEBEB"/>
<path d="M240.837 170.474H238.813V174.725H240.837V170.474Z" fill="#EBEBEB"/>
<path d="M226.506 177.366H224.482V181.606H226.506V177.366Z" fill="#EBEBEB"/>
<path d="M230.089 177.366H228.065V181.606H230.089V177.366Z" fill="#EBEBEB"/>
<path d="M233.671 177.366H231.648V181.606H233.671V177.366Z" fill="#EBEBEB"/>
<path d="M237.254 177.366H235.23V181.606H237.254V177.366Z" fill="#EBEBEB"/>
<path d="M240.837 177.366H238.813V181.606H240.837V177.366Z" fill="#EBEBEB"/>
<path d="M226.506 184.27H224.482V188.509H226.506V184.27Z" fill="#EBEBEB"/>
<path d="M230.089 184.27H228.065V188.509H230.089V184.27Z" fill="#EBEBEB"/>
<path d="M233.671 184.27H231.648V188.509H233.671V184.27Z" fill="#EBEBEB"/>
<path d="M237.254 184.27H235.23V188.509H237.254V184.27Z" fill="#EBEBEB"/>
<path d="M240.837 184.27H238.813V188.509H240.837V184.27Z" fill="#EBEBEB"/>
<path d="M226.506 191.162H224.482V195.402H226.506V191.162Z" fill="#EBEBEB"/>
<path d="M230.089 191.162H228.065V195.402H230.089V191.162Z" fill="#EBEBEB"/>
<path d="M233.671 191.162H231.648V195.402H233.671V191.162Z" fill="#EBEBEB"/>
<path d="M237.254 191.162H235.23V195.402H237.254V191.162Z" fill="#EBEBEB"/>
<path d="M240.837 191.162H238.813V195.402H240.837V191.162Z" fill="#EBEBEB"/>
<path d="M226.506 198.066H224.482V202.305H226.506V198.066Z" fill="#EBEBEB"/>
<path d="M230.089 198.066H228.065V202.305H230.089V198.066Z" fill="#EBEBEB"/>
<path d="M233.671 198.066H231.648V202.305H233.671V198.066Z" fill="#EBEBEB"/>
<path d="M237.254 198.066H235.23V202.305H237.254V198.066Z" fill="#EBEBEB"/>
<path d="M240.837 198.066H238.813V202.305H240.837V198.066Z" fill="#EBEBEB"/>
<path d="M226.506 204.969H224.482V207.61H226.506V204.969Z" fill="#EBEBEB"/>
<path d="M230.089 204.969H228.065V207.61H230.089V204.969Z" fill="#EBEBEB"/>
<path d="M233.671 204.969H231.648V207.61H233.671V204.969Z" fill="#EBEBEB"/>
<path d="M237.254 204.969H235.23V207.61H237.254V204.969Z" fill="#EBEBEB"/>
<path d="M240.837 204.969H238.813V207.61H240.837V204.969Z" fill="#EBEBEB"/>
<path d="M255.467 109.388H242.643V207.611H255.467V109.388Z" fill="#DBDBDB"/>
<path d="M256.024 107.235H242.643V109.388H256.024V107.235Z" fill="#C7C7C7"/>
<path d="M246.474 112.551H244.45V207.611H246.474V112.551Z" fill="#C7C7C7"/>
<path d="M250.067 112.551H248.043V207.611H250.067V112.551Z" fill="#C7C7C7"/>
<path d="M253.649 112.551H251.626V207.611H253.649V112.551Z" fill="#C7C7C7"/>
<path d="M246.474 115.269H244.45V119.509H246.474V115.269Z" fill="#DBDBDB"/>
<path d="M250.067 115.269H248.043V119.509H250.067V115.269Z" fill="#DBDBDB"/>
<path d="M253.649 115.269H251.626V119.509H253.649V115.269Z" fill="#DBDBDB"/>
<path d="M246.474 122.172H244.45V126.423H246.474V122.172Z" fill="#DBDBDB"/>
<path d="M250.067 122.172H248.043V126.423H250.067V122.172Z" fill="#DBDBDB"/>
<path d="M253.649 122.172H251.626V126.423H253.649V122.172Z" fill="#DBDBDB"/>
<path d="M246.474 129.076H244.45V133.316H246.474V129.076Z" fill="#DBDBDB"/>
<path d="M250.067 129.076H248.043V133.316H250.067V129.076Z" fill="#DBDBDB"/>
<path d="M253.649 129.076H251.626V133.316H253.649V129.076Z" fill="#DBDBDB"/>
<path d="M246.474 135.968H244.45V140.219H246.474V135.968Z" fill="#DBDBDB"/>
<path d="M250.067 135.968H248.043V140.219H250.067V135.968Z" fill="#DBDBDB"/>
<path d="M253.649 135.968H251.626V140.219H253.649V135.968Z" fill="#DBDBDB"/>
<path d="M246.474 142.872H244.45V147.111H246.474V142.872Z" fill="#DBDBDB"/>
<path d="M250.067 142.872H248.043V147.111H250.067V142.872Z" fill="#DBDBDB"/>
<path d="M253.649 142.872H251.626V147.111H253.649V142.872Z" fill="#DBDBDB"/>
<path d="M246.474 149.775H244.45V154.026H246.474V149.775Z" fill="#DBDBDB"/>
<path d="M250.067 149.775H248.043V154.026H250.067V149.775Z" fill="#DBDBDB"/>
<path d="M253.649 149.775H251.626V154.026H253.649V149.775Z" fill="#DBDBDB"/>
<path d="M246.474 156.667H244.45V160.907H246.474V156.667Z" fill="#DBDBDB"/>
<path d="M250.067 156.667H248.043V160.907H250.067V156.667Z" fill="#DBDBDB"/>
<path d="M253.649 156.667H251.626V160.907H253.649V156.667Z" fill="#DBDBDB"/>
<path d="M246.474 163.571H244.45V167.81H246.474V163.571Z" fill="#DBDBDB"/>
<path d="M250.067 163.571H248.043V167.81H250.067V163.571Z" fill="#DBDBDB"/>
<path d="M253.649 163.571H251.626V167.81H253.649V163.571Z" fill="#DBDBDB"/>
<path d="M246.474 170.474H244.45V174.725H246.474V170.474Z" fill="#DBDBDB"/>
<path d="M250.067 170.474H248.043V174.725H250.067V170.474Z" fill="#DBDBDB"/>
<path d="M253.649 170.474H251.626V174.725H253.649V170.474Z" fill="#DBDBDB"/>
<path d="M246.474 177.366H244.45V181.606H246.474V177.366Z" fill="#DBDBDB"/>
<path d="M250.067 177.366H248.043V181.606H250.067V177.366Z" fill="#DBDBDB"/>
<path d="M253.649 177.366H251.626V181.606H253.649V177.366Z" fill="#DBDBDB"/>
<path d="M246.474 184.27H244.45V188.509H246.474V184.27Z" fill="#DBDBDB"/>
<path d="M250.067 184.27H248.043V188.509H250.067V184.27Z" fill="#DBDBDB"/>
<path d="M253.649 184.27H251.626V188.509H253.649V184.27Z" fill="#DBDBDB"/>
<path d="M246.474 191.162H244.45V195.402H246.474V191.162Z" fill="#DBDBDB"/>
<path d="M250.067 191.162H248.043V195.402H250.067V191.162Z" fill="#DBDBDB"/>
<path d="M253.649 191.162H251.626V195.402H253.649V191.162Z" fill="#DBDBDB"/>
<path d="M246.474 198.066H244.45V202.305H246.474V198.066Z" fill="#DBDBDB"/>
<path d="M250.067 198.066H248.043V202.305H250.067V198.066Z" fill="#DBDBDB"/>
<path d="M253.649 198.066H251.626V202.305H253.649V198.066Z" fill="#DBDBDB"/>
<path d="M246.474 204.969H244.45V207.61H246.474V204.969Z" fill="#DBDBDB"/>
<path d="M250.067 204.969H248.043V207.61H250.067V204.969Z" fill="#DBDBDB"/>
<path d="M253.649 204.969H251.626V207.61H253.649V204.969Z" fill="#DBDBDB"/>
<path d="M198.722 145.481H178.837V207.61H198.722V145.481Z" fill="#EBEBEB"/>
<path d="M198.722 140.219H181.666V145.492H198.722V140.219Z" fill="#C7C7C7"/>
<path d="M196.554 148.231H181.026V207.61H196.554V148.231Z" fill="#DBDBDB"/>
<path d="M196.554 153.906H181.026V155.308H196.554V153.906Z" fill="white"/>
<path d="M196.554 159.711H181.026V161.114H196.554V159.711Z" fill="white"/>
<path d="M196.554 165.527H181.026V166.93H196.554V165.527Z" fill="white"/>
<path d="M196.554 171.333H181.026V172.735H196.554V171.333Z" fill="white"/>
<path d="M196.554 177.149H181.026V178.551H196.554V177.149Z" fill="white"/>
<path d="M196.554 182.965H181.026V184.368H196.554V182.965Z" fill="white"/>
<path d="M196.554 188.771H181.026V190.173H196.554V188.771Z" fill="white"/>
<path d="M196.554 194.587H181.026V195.989H196.554V194.587Z" fill="white"/>
<path d="M196.554 200.392H181.026V201.794H196.554V200.392Z" fill="white"/>
<path d="M196.554 206.208H181.026V207.61H196.554V206.208Z" fill="white"/>
<path d="M211.195 145.481H198.733V207.61H211.195V145.481Z" fill="#DBDBDB"/>
<path d="M209.326 140.219H198.733V145.492H209.326V140.219Z" fill="#A6A6A6"/>
<path d="M210.028 148.231H200.447V207.61H210.028V148.231Z" fill="#C7C7C7"/>
<path d="M210.028 153.906H200.447V155.308H210.028V153.906Z" fill="white"/>
<path d="M210.028 159.711H200.447V161.114H210.028V159.711Z" fill="white"/>
<path d="M210.028 165.527H200.447V166.93H210.028V165.527Z" fill="white"/>
<path d="M210.028 171.333H200.447V172.735H210.028V171.333Z" fill="white"/>
<path d="M210.028 177.149H200.447V178.551H210.028V177.149Z" fill="white"/>
<path d="M210.028 182.965H200.447V184.368H210.028V182.965Z" fill="white"/>
<path d="M210.028 188.771H200.447V190.173H210.028V188.771Z" fill="white"/>
<path d="M210.028 194.587H200.447V195.989H210.028V194.587Z" fill="white"/>
<path d="M210.028 200.392H200.447V201.794H210.028V200.392Z" fill="white"/>
<path d="M210.028 206.208H200.447V207.61H210.028V206.208Z" fill="white"/>
<path d="M311.478 145.481H291.592V207.61H311.478V145.481Z" fill="#EBEBEB"/>
<path d="M311.478 140.219H294.421V145.492H311.478V140.219Z" fill="#C7C7C7"/>
<path d="M309.309 148.231H293.781V207.61H309.309V148.231Z" fill="#DBDBDB"/>
<path d="M309.309 153.906H293.781V155.308H309.309V153.906Z" fill="white"/>
<path d="M309.309 159.711H293.781V161.114H309.309V159.711Z" fill="white"/>
<path d="M309.309 165.527H293.781V166.93H309.309V165.527Z" fill="white"/>
<path d="M309.309 171.333H293.781V172.735H309.309V171.333Z" fill="white"/>
<path d="M309.309 177.149H293.781V178.551H309.309V177.149Z" fill="white"/>
<path d="M309.309 182.965H293.781V184.368H309.309V182.965Z" fill="white"/>
<path d="M309.309 188.771H293.781V190.173H309.309V188.771Z" fill="white"/>
<path d="M309.309 194.587H293.781V195.989H309.309V194.587Z" fill="white"/>
<path d="M309.309 200.392H293.781V201.794H309.309V200.392Z" fill="white"/>
<path d="M309.309 206.208H293.781V207.61H309.309V206.208Z" fill="white"/>
<path d="M323.95 145.481H311.488V207.61H323.95V145.481Z" fill="#DBDBDB"/>
<path d="M322.081 140.219H311.488V145.492H322.081V140.219Z" fill="#A6A6A6"/>
<path d="M322.783 148.231H313.202V207.61H322.783V148.231Z" fill="#C7C7C7"/>
<path d="M322.783 153.906H313.202V155.308H322.783V153.906Z" fill="white"/>
<path d="M322.783 159.711H313.202V161.114H322.783V159.711Z" fill="white"/>
<path d="M322.783 165.527H313.202V166.93H322.783V165.527Z" fill="white"/>
<path d="M322.783 171.333H313.202V172.735H322.783V171.333Z" fill="white"/>
<path d="M322.783 177.149H313.202V178.551H322.783V177.149Z" fill="white"/>
<path d="M322.783 182.965H313.202V184.368H322.783V182.965Z" fill="white"/>
<path d="M322.783 188.771H313.202V190.173H322.783V188.771Z" fill="white"/>
<path d="M322.783 194.587H313.202V195.989H322.783V194.587Z" fill="white"/>
<path d="M322.783 200.392H313.202V201.794H322.783V200.392Z" fill="white"/>
<path d="M322.783 206.208H313.202V207.61H322.783V206.208Z" fill="white"/>
<path d="M257.149 140.665H239.247V207.621H257.149V140.665Z" fill="#DBDBDB"/>
<path d="M245.235 144.328H242.065V146.927H245.235V144.328Z" fill="#C7C7C7"/>
<path d="M245.235 149.862H242.065V152.46H245.235V149.862Z" fill="#C7C7C7"/>
<path d="M245.235 155.406H242.065V158.005H245.235V155.406Z" fill="#C7C7C7"/>
<path d="M245.235 160.951H242.065V163.549H245.235V160.951Z" fill="#C7C7C7"/>
<path d="M245.235 166.495H242.065V169.093H245.235V166.495Z" fill="#C7C7C7"/>
<path d="M245.235 172.028H242.065V174.627H245.235V172.028Z" fill="#C7C7C7"/>
<path d="M245.235 177.573H242.065V180.171H245.235V177.573Z" fill="#C7C7C7"/>
<path d="M249.798 144.328H246.629V146.927H249.798V144.328Z" fill="#C7C7C7"/>
<path d="M249.798 149.862H246.629V152.46H249.798V149.862Z" fill="#C7C7C7"/>
<path d="M249.798 155.406H246.629V158.005H249.798V155.406Z" fill="#C7C7C7"/>
<path d="M249.798 160.951H246.629V163.549H249.798V160.951Z" fill="#C7C7C7"/>
<path d="M249.798 166.495H246.629V169.093H249.798V166.495Z" fill="#C7C7C7"/>
<path d="M249.798 172.028H246.629V174.627H249.798V172.028Z" fill="#C7C7C7"/>
<path d="M249.798 177.573H246.629V180.171H249.798V177.573Z" fill="#C7C7C7"/>
<path d="M254.341 144.328H251.172V146.927H254.341V144.328Z" fill="#C7C7C7"/>
<path d="M254.341 149.862H251.172V152.46H254.341V149.862Z" fill="#C7C7C7"/>
<path d="M254.341 155.406H251.172V158.005H254.341V155.406Z" fill="#C7C7C7"/>
<path d="M254.341 160.951H251.172V163.549H254.341V160.951Z" fill="#C7C7C7"/>
<path d="M254.341 166.495H251.172V169.093H254.341V166.495Z" fill="#C7C7C7"/>
<path d="M254.341 172.028H251.172V174.627H254.341V172.028Z" fill="#C7C7C7"/>
<path d="M254.341 177.573H251.172V180.171H254.341V177.573Z" fill="#C7C7C7"/>
<path d="M245.235 183.117H242.065V185.716H245.235V183.117Z" fill="#C7C7C7"/>
<path d="M249.798 183.117H246.629V185.716H249.798V183.117Z" fill="#C7C7C7"/>
<path d="M254.341 183.117H251.172V185.716H254.341V183.117Z" fill="#C7C7C7"/>
<path d="M245.235 188.651H242.065V191.249H245.235V188.651Z" fill="#C7C7C7"/>
<path d="M249.798 188.651H246.629V191.249H249.798V188.651Z" fill="#C7C7C7"/>
<path d="M254.341 188.651H251.172V191.249H254.341V188.651Z" fill="#C7C7C7"/>
<path d="M245.235 194.195H242.065V196.793H245.235V194.195Z" fill="#C7C7C7"/>
<path d="M249.798 194.195H246.629V196.793H249.798V194.195Z" fill="#C7C7C7"/>
<path d="M254.341 194.195H251.172V196.793H254.341V194.195Z" fill="#C7C7C7"/>
<path d="M245.235 199.74H242.065V202.338H245.235V199.74Z" fill="#C7C7C7"/>
<path d="M249.798 199.74H246.629V202.338H249.798V199.74Z" fill="#C7C7C7"/>
<path d="M254.341 199.74H251.172V202.338H254.341V199.74Z" fill="#C7C7C7"/>
<path d="M269.714 140.665H257.149V207.621H269.714V140.665Z" fill="#A6A6A6"/>
<path d="M265.843 179.758H268.424V177.16H265.843V179.758Z" fill="#C7C7C7"/>
<path d="M265.843 174.214H268.424V171.615H265.843V174.214Z" fill="#C7C7C7"/>
<path d="M265.843 168.669H268.424V166.071H265.843V168.669Z" fill="#C7C7C7"/>
<path d="M265.843 163.125H268.424V160.527H265.843V163.125Z" fill="#C7C7C7"/>
<path d="M265.843 157.591H268.424V154.993H265.843V157.591Z" fill="#C7C7C7"/>
<path d="M265.843 152.047H268.424V149.449H265.843V152.047Z" fill="#C7C7C7"/>
<path d="M265.843 146.502H268.424V143.904H265.843V146.502Z" fill="#C7C7C7"/>
<path d="M262.136 179.758H264.717V177.16H262.136V179.758Z" fill="#C7C7C7"/>
<path d="M262.136 174.214H264.717V171.615H262.136V174.214Z" fill="#C7C7C7"/>
<path d="M262.136 168.669H264.717V166.071H262.136V168.669Z" fill="#C7C7C7"/>
<path d="M262.136 163.125H264.717V160.527H262.136V163.125Z" fill="#C7C7C7"/>
<path d="M262.136 157.591H264.717V154.993H262.136V157.591Z" fill="#C7C7C7"/>
<path d="M262.136 152.047H264.717V149.449H262.136V152.047Z" fill="#C7C7C7"/>
<path d="M262.136 146.502H264.717V143.904H262.136V146.502Z" fill="#C7C7C7"/>
<path d="M258.44 179.758H261.021V177.16H258.44V179.758Z" fill="#C7C7C7"/>
<path d="M258.44 174.214H261.021V171.615H258.44V174.214Z" fill="#C7C7C7"/>
<path d="M265.843 185.292H268.424V182.693H265.843V185.292Z" fill="#C7C7C7"/>
<path d="M262.136 185.292H264.717V182.693H262.136V185.292Z" fill="#C7C7C7"/>
<path d="M258.44 185.292H261.021V182.693H258.44V185.292Z" fill="#C7C7C7"/>
<path d="M265.843 190.836H268.424V188.238H265.843V190.836Z" fill="#C7C7C7"/>
<path d="M262.136 190.836H264.717V188.238H262.136V190.836Z" fill="#C7C7C7"/>
<path d="M258.44 190.836H261.021V188.238H258.44V190.836Z" fill="#C7C7C7"/>
<path d="M265.843 196.38H268.424V193.782H265.843V196.38Z" fill="#C7C7C7"/>
<path d="M262.136 196.38H264.717V193.782H262.136V196.38Z" fill="#C7C7C7"/>
<path d="M258.44 196.38H261.021V193.782H258.44V196.38Z" fill="#C7C7C7"/>
<path d="M265.843 201.914H268.424V199.316H265.843V201.914Z" fill="#C7C7C7"/>
<path d="M262.136 201.914H264.717V199.316H262.136V201.914Z" fill="#C7C7C7"/>
<path d="M258.44 201.914H261.021V199.316H258.44V201.914Z" fill="#C7C7C7"/>
<path d="M258.44 168.669H261.021V166.071H258.44V168.669Z" fill="#C7C7C7"/>
<path d="M258.44 163.125H261.021V160.527H258.44V163.125Z" fill="#C7C7C7"/>
<path d="M258.44 157.591H261.021V154.993H258.44V157.591Z" fill="#C7C7C7"/>
<path d="M258.44 152.047H261.021V149.449H258.44V152.047Z" fill="#C7C7C7"/>
<path d="M258.44 146.502H261.021V143.904H258.44V146.502Z" fill="#C7C7C7"/>
<path d="M401.539 140.665H383.636V207.621H401.539V140.665Z" fill="#DBDBDB"/>
<path d="M389.625 144.328H386.455V146.927H389.625V144.328Z" fill="#C7C7C7"/>
<path d="M389.625 149.862H386.455V152.46H389.625V149.862Z" fill="#C7C7C7"/>
<path d="M389.625 155.406H386.455V158.005H389.625V155.406Z" fill="#C7C7C7"/>
<path d="M389.625 160.951H386.455V163.549H389.625V160.951Z" fill="#C7C7C7"/>
<path d="M389.625 166.495H386.455V169.093H389.625V166.495Z" fill="#C7C7C7"/>
<path d="M389.625 172.028H386.455V174.627H389.625V172.028Z" fill="#C7C7C7"/>
<path d="M389.625 177.573H386.455V180.171H389.625V177.573Z" fill="#C7C7C7"/>
<path d="M394.178 144.328H391.008V146.927H394.178V144.328Z" fill="#C7C7C7"/>
<path d="M394.178 149.862H391.008V152.46H394.178V149.862Z" fill="#C7C7C7"/>
<path d="M394.178 155.406H391.008V158.005H394.178V155.406Z" fill="#C7C7C7"/>
<path d="M394.178 160.951H391.008V163.549H394.178V160.951Z" fill="#C7C7C7"/>
<path d="M394.178 166.495H391.008V169.093H394.178V166.495Z" fill="#C7C7C7"/>
<path d="M394.178 172.028H391.008V174.627H394.178V172.028Z" fill="#C7C7C7"/>
<path d="M394.178 177.573H391.008V180.171H394.178V177.573Z" fill="#C7C7C7"/>
<path d="M398.731 144.328H395.561V146.927H398.731V144.328Z" fill="#C7C7C7"/>
<path d="M398.731 149.862H395.561V152.46H398.731V149.862Z" fill="#C7C7C7"/>
<path d="M398.731 155.406H395.561V158.005H398.731V155.406Z" fill="#C7C7C7"/>
<path d="M398.731 160.951H395.561V163.549H398.731V160.951Z" fill="#C7C7C7"/>
<path d="M398.731 166.495H395.561V169.093H398.731V166.495Z" fill="#C7C7C7"/>
<path d="M398.731 172.028H395.561V174.627H398.731V172.028Z" fill="#C7C7C7"/>
<path d="M398.731 177.573H395.561V180.171H398.731V177.573Z" fill="#C7C7C7"/>
<path d="M389.625 183.117H386.455V185.716H389.625V183.117Z" fill="#C7C7C7"/>
<path d="M394.178 183.117H391.008V185.716H394.178V183.117Z" fill="#C7C7C7"/>
<path d="M398.731 183.117H395.561V185.716H398.731V183.117Z" fill="#C7C7C7"/>
<path d="M389.625 188.651H386.455V191.249H389.625V188.651Z" fill="#C7C7C7"/>
<path d="M394.178 188.651H391.008V191.249H394.178V188.651Z" fill="#C7C7C7"/>
<path d="M398.731 188.651H395.561V191.249H398.731V188.651Z" fill="#C7C7C7"/>
<path d="M389.625 194.195H386.455V196.793H389.625V194.195Z" fill="#C7C7C7"/>
<path d="M394.178 194.195H391.008V196.793H394.178V194.195Z" fill="#C7C7C7"/>
<path d="M398.731 194.195H395.561V196.793H398.731V194.195Z" fill="#C7C7C7"/>
<path d="M389.625 199.74H386.455V202.338H389.625V199.74Z" fill="#C7C7C7"/>
<path d="M394.178 199.74H391.008V202.338H394.178V199.74Z" fill="#C7C7C7"/>
<path d="M398.731 199.74H395.561V202.338H398.731V199.74Z" fill="#C7C7C7"/>
<path d="M414.104 140.665H401.539V207.621H414.104V140.665Z" fill="#A6A6A6"/>
<path d="M410.243 179.758H412.824V177.16H410.243V179.758Z" fill="#C7C7C7"/>
<path d="M410.243 174.214H412.824V171.615H410.243V174.214Z" fill="#C7C7C7"/>
<path d="M410.243 168.669H412.824V166.071H410.243V168.669Z" fill="#C7C7C7"/>
<path d="M410.243 163.125H412.824V160.527H410.243V163.125Z" fill="#C7C7C7"/>
<path d="M410.243 157.591H412.824V154.993H410.243V157.591Z" fill="#C7C7C7"/>
<path d="M410.243 152.047H412.824V149.449H410.243V152.047Z" fill="#C7C7C7"/>
<path d="M410.243 146.502H412.824V143.904H410.243V146.502Z" fill="#C7C7C7"/>
<path d="M406.526 179.758H409.107V177.16H406.526V179.758Z" fill="#C7C7C7"/>
<path d="M406.526 174.214H409.107V171.615H406.526V174.214Z" fill="#C7C7C7"/>
<path d="M406.526 168.669H409.107V166.071H406.526V168.669Z" fill="#C7C7C7"/>
<path d="M406.526 163.125H409.107V160.527H406.526V163.125Z" fill="#C7C7C7"/>
<path d="M406.526 157.591H409.107V154.993H406.526V157.591Z" fill="#C7C7C7"/>
<path d="M406.526 152.047H409.107V149.449H406.526V152.047Z" fill="#C7C7C7"/>
<path d="M406.526 146.502H409.107V143.904H406.526V146.502Z" fill="#C7C7C7"/>
<path d="M402.82 179.758H405.401V177.16H402.82V179.758Z" fill="#C7C7C7"/>
<path d="M402.82 174.214H405.401V171.615H402.82V174.214Z" fill="#C7C7C7"/>
<path d="M410.243 185.292H412.824V182.693H410.243V185.292Z" fill="#C7C7C7"/>
<path d="M406.526 185.292H409.107V182.693H406.526V185.292Z" fill="#C7C7C7"/>
<path d="M402.82 185.292H405.401V182.693H402.82V185.292Z" fill="#C7C7C7"/>
<path d="M410.243 190.836H412.824V188.238H410.243V190.836Z" fill="#C7C7C7"/>
<path d="M406.526 190.836H409.107V188.238H406.526V190.836Z" fill="#C7C7C7"/>
<path d="M402.82 190.836H405.401V188.238H402.82V190.836Z" fill="#C7C7C7"/>
<path d="M410.243 196.38H412.824V193.782H410.243V196.38Z" fill="#C7C7C7"/>
<path d="M406.526 196.38H409.107V193.782H406.526V196.38Z" fill="#C7C7C7"/>
<path d="M402.82 196.38H405.401V193.782H402.82V196.38Z" fill="#C7C7C7"/>
<path d="M410.243 201.914H412.824V199.316H410.243V201.914Z" fill="#C7C7C7"/>
<path d="M406.526 201.914H409.107V199.316H406.526V201.914Z" fill="#C7C7C7"/>
<path d="M402.82 201.914H405.401V199.316H402.82V201.914Z" fill="#C7C7C7"/>
<path d="M402.82 168.669H405.401V166.071H402.82V168.669Z" fill="#C7C7C7"/>
<path d="M402.82 163.125H405.401V160.527H402.82V163.125Z" fill="#C7C7C7"/>
<path d="M402.82 157.591H405.401V154.993H402.82V157.591Z" fill="#C7C7C7"/>
<path d="M402.82 152.047H405.401V149.449H402.82V152.047Z" fill="#C7C7C7"/>
<path d="M402.82 146.502H405.401V143.904H402.82V146.502Z" fill="#C7C7C7"/>
<path d="M363.927 129.521H353.303V142.73H363.927V129.521Z" fill="#DBDBDB"/>
<path d="M370.658 129.521H363.927V143.219H370.658V129.521Z" fill="#C7C7C7"/>
<path d="M371.102 135.359H364.422V143.219H371.102V135.359Z" fill="#DBDBDB"/>
<path d="M375.273 135.359H371.102V143.219H375.273V135.359Z" fill="#C7C7C7"/>
<path d="M366.405 141.882H349.224V207.621H366.405V141.882Z" fill="#EBEBEB"/>
<path d="M356.586 144.698H351.186V147.024H356.586V144.698Z" fill="white"/>
<path d="M363.493 144.698H358.093V147.024H363.493V144.698Z" fill="white"/>
<path d="M356.586 148.644H351.186V150.971H356.586V148.644Z" fill="white"/>
<path d="M363.493 148.644H358.093V150.971H363.493V148.644Z" fill="white"/>
<path d="M356.586 152.591H351.186V154.917H356.586V152.591Z" fill="white"/>
<path d="M363.493 152.591H358.093V154.917H363.493V152.591Z" fill="white"/>
<path d="M356.586 156.537H351.186V158.863H356.586V156.537Z" fill="white"/>
<path d="M363.493 156.537H358.093V158.863H363.493V156.537Z" fill="white"/>
<path d="M356.586 160.483H351.186V162.81H356.586V160.483Z" fill="white"/>
<path d="M363.493 160.483H358.093V162.81H363.493V160.483Z" fill="white"/>
<path d="M356.586 164.429H351.186V166.756H356.586V164.429Z" fill="white"/>
<path d="M363.493 164.429H358.093V166.756H363.493V164.429Z" fill="white"/>
<path d="M356.586 168.376H351.186V170.702H356.586V168.376Z" fill="white"/>
<path d="M363.493 168.376H358.093V170.702H363.493V168.376Z" fill="white"/>
<path d="M356.586 172.322H351.186V174.648H356.586V172.322Z" fill="white"/>
<path d="M363.493 172.322H358.093V174.648H363.493V172.322Z" fill="white"/>
<path d="M356.586 176.268H351.186V178.595H356.586V176.268Z" fill="white"/>
<path d="M363.493 176.268H358.093V178.595H363.493V176.268Z" fill="white"/>
<path d="M356.586 180.215H351.186V182.541H356.586V180.215Z" fill="white"/>
<path d="M363.493 180.215H358.093V182.541H363.493V180.215Z" fill="white"/>
<path d="M356.586 184.161H351.186V186.487H356.586V184.161Z" fill="white"/>
<path d="M363.493 184.161H358.093V186.487H363.493V184.161Z" fill="white"/>
<path d="M356.586 188.107H351.186V190.434H356.586V188.107Z" fill="white"/>
<path d="M363.493 188.107H358.093V190.434H363.493V188.107Z" fill="white"/>
<path d="M356.586 192.054H351.186V194.38H356.586V192.054Z" fill="white"/>
<path d="M363.493 192.054H358.093V194.38H363.493V192.054Z" fill="white"/>
<path d="M356.586 196H351.186V198.326H356.586V196Z" fill="white"/>
<path d="M363.493 196H358.093V198.326H363.493V196Z" fill="white"/>
<path d="M380.322 141.882H366.405V207.621H380.322V141.882Z" fill="#C7C7C7"/>
<path d="M374.489 198.315H378.928V195.989H374.489V198.315Z" fill="#EBEBEB"/>
<path d="M368.81 198.315H373.25V195.989H368.81V198.315Z" fill="#EBEBEB"/>
<path d="M374.489 194.369H378.928V192.043H374.489V194.369Z" fill="#EBEBEB"/>
<path d="M368.81 194.369H373.25V192.043H368.81V194.369Z" fill="#EBEBEB"/>
<path d="M374.489 190.423H378.928V188.096H374.489V190.423Z" fill="#EBEBEB"/>
<path d="M368.81 190.423H373.25V188.096H368.81V190.423Z" fill="#EBEBEB"/>
<path d="M374.489 186.476H378.928V184.15H374.489V186.476Z" fill="#EBEBEB"/>
<path d="M368.81 186.476H373.25V184.15H368.81V186.476Z" fill="#EBEBEB"/>
<path d="M374.489 182.541H378.928V180.215H374.489V182.541Z" fill="#EBEBEB"/>
<path d="M368.81 182.541H373.25V180.215H368.81V182.541Z" fill="#EBEBEB"/>
<path d="M374.489 178.595H378.928V176.268H374.489V178.595Z" fill="#EBEBEB"/>
<path d="M368.81 178.595H373.25V176.268H368.81V178.595Z" fill="#EBEBEB"/>
<path d="M374.489 174.649H378.928V172.322H374.489V174.649Z" fill="#EBEBEB"/>
<path d="M368.81 174.649H373.25V172.322H368.81V174.649Z" fill="#EBEBEB"/>
<path d="M374.489 170.702H378.928V168.376H374.489V170.702Z" fill="#EBEBEB"/>
<path d="M368.81 170.702H373.25V168.376H368.81V170.702Z" fill="#EBEBEB"/>
<path d="M374.489 166.756H378.928V164.429H374.489V166.756Z" fill="#EBEBEB"/>
<path d="M368.81 166.756H373.25V164.429H368.81V166.756Z" fill="#EBEBEB"/>
<path d="M374.489 162.81H378.928V160.483H374.489V162.81Z" fill="#EBEBEB"/>
<path d="M368.81 162.81H373.25V160.483H368.81V162.81Z" fill="#EBEBEB"/>
<path d="M374.489 158.863H378.928V156.537H374.489V158.863Z" fill="#EBEBEB"/>
<path d="M368.81 158.863H373.25V156.537H368.81V158.863Z" fill="#EBEBEB"/>
<path d="M374.489 154.917H378.928V152.591H374.489V154.917Z" fill="#EBEBEB"/>
<path d="M368.81 154.917H373.25V152.591H368.81V154.917Z" fill="#EBEBEB"/>
<path d="M374.489 150.982H378.928V148.655H374.489V150.982Z" fill="#EBEBEB"/>
<path d="M368.81 150.982H373.25V148.655H368.81V150.982Z" fill="#EBEBEB"/>
<path d="M374.489 147.035H378.928V144.709H374.489V147.035Z" fill="#EBEBEB"/>
<path d="M368.81 147.035H373.25V144.709H368.81V147.035Z" fill="#EBEBEB"/>
<path d="M293.358 164.777H273.101V207.61H293.358V164.777Z" fill="#C7C7C7"/>
<path d="M279.874 168.484H276.291V171.104H279.874V168.484Z" fill="#DBDBDB"/>
<path d="M279.874 174.094H276.291V176.714H279.874V174.094Z" fill="#DBDBDB"/>
<path d="M279.874 179.693H276.291V182.313H279.874V179.693Z" fill="#DBDBDB"/>
<path d="M279.874 185.302H276.291V187.922H279.874V185.302Z" fill="#DBDBDB"/>
<path d="M279.874 190.912H276.291V193.532H279.874V190.912Z" fill="#DBDBDB"/>
<path d="M279.874 196.511H276.291V199.131H279.874V196.511Z" fill="#DBDBDB"/>
<path d="M279.874 202.12H276.291V204.74H279.874V202.12Z" fill="#DBDBDB"/>
<path d="M285.026 168.484H281.443V171.104H285.026V168.484Z" fill="#DBDBDB"/>
<path d="M285.026 174.094H281.443V176.714H285.026V174.094Z" fill="#DBDBDB"/>
<path d="M285.026 179.693H281.443V182.313H285.026V179.693Z" fill="#DBDBDB"/>
<path d="M285.026 185.302H281.443V187.922H285.026V185.302Z" fill="#DBDBDB"/>
<path d="M285.026 190.912H281.443V193.532H285.026V190.912Z" fill="#DBDBDB"/>
<path d="M285.026 196.511H281.443V199.131H285.026V196.511Z" fill="#DBDBDB"/>
<path d="M285.026 202.12H281.443V204.74H285.026V202.12Z" fill="#DBDBDB"/>
<path d="M290.178 168.484H286.595V171.104H290.178V168.484Z" fill="#DBDBDB"/>
<path d="M290.178 174.094H286.595V176.714H290.178V174.094Z" fill="#DBDBDB"/>
<path d="M290.178 179.693H286.595V182.313H290.178V179.693Z" fill="#DBDBDB"/>
<path d="M290.178 185.302H286.595V187.922H290.178V185.302Z" fill="#DBDBDB"/>
<path d="M290.178 190.912H286.595V193.532H290.178V190.912Z" fill="#DBDBDB"/>
<path d="M290.178 196.511H286.595V199.131H290.178V196.511Z" fill="#DBDBDB"/>
<path d="M290.178 202.12H286.595V204.74H290.178V202.12Z" fill="#DBDBDB"/>
<path d="M293.358 160.32H279.874V164.788H293.358V160.32Z" fill="#DBDBDB"/>
<path d="M293.358 157.548H284.809V160.309H293.358V157.548Z" fill="#EBEBEB"/>
<path d="M307.585 164.777H293.368V207.61H307.585V164.777Z" fill="#A6A6A6"/>
<path d="M303.197 204.327H306.119V201.707H303.197V204.327Z" fill="#C7C7C7"/>
<path d="M303.197 198.718H306.119V196.098H303.197V198.718Z" fill="#C7C7C7"/>
<path d="M303.197 193.108H306.119V190.488H303.197V193.108Z" fill="#C7C7C7"/>
<path d="M303.197 187.509H306.119V184.889H303.197V187.509Z" fill="#C7C7C7"/>
<path d="M303.197 181.9H306.119V179.28H303.197V181.9Z" fill="#C7C7C7"/>
<path d="M303.197 176.301H306.119V173.681H303.197V176.301Z" fill="#C7C7C7"/>
<path d="M303.197 170.691H306.119V168.071H303.197V170.691Z" fill="#C7C7C7"/>
<path d="M299.005 204.327H301.927V201.707H299.005V204.327Z" fill="#C7C7C7"/>
<path d="M299.005 198.718H301.927V196.098H299.005V198.718Z" fill="#C7C7C7"/>
<path d="M299.005 193.108H301.927V190.488H299.005V193.108Z" fill="#C7C7C7"/>
<path d="M299.005 187.509H301.927V184.889H299.005V187.509Z" fill="#C7C7C7"/>
<path d="M299.005 181.9H301.927V179.28H299.005V181.9Z" fill="#C7C7C7"/>
<path d="M299.005 176.301H301.927V173.681H299.005V176.301Z" fill="#C7C7C7"/>
<path d="M299.005 170.691H301.927V168.071H299.005V170.691Z" fill="#C7C7C7"/>
<path d="M294.814 204.327H297.736V201.707H294.814V204.327Z" fill="#C7C7C7"/>
<path d="M294.814 198.718H297.736V196.098H294.814V198.718Z" fill="#C7C7C7"/>
<path d="M294.814 193.108H297.736V190.488H294.814V193.108Z" fill="#C7C7C7"/>
<path d="M294.814 187.509H297.736V184.889H294.814V187.509Z" fill="#C7C7C7"/>
<path d="M294.814 181.9H297.736V179.28H294.814V181.9Z" fill="#C7C7C7"/>
<path d="M294.814 176.301H297.736V173.681H294.814V176.301Z" fill="#C7C7C7"/>
<path d="M294.814 170.691H297.736V168.071H294.814V170.691Z" fill="#C7C7C7"/>
<path d="M305.427 160.32H293.368V164.788H305.427V160.32Z" fill="#C7C7C7"/>
<path d="M299.904 157.548H293.368V160.309H299.904V157.548Z" fill="#DBDBDB"/>
<path d="M426.783 164.777H406.526V207.61H426.783V164.777Z" fill="#C7C7C7"/>
<path d="M413.299 168.484H409.716V171.104H413.299V168.484Z" fill="#DBDBDB"/>
<path d="M413.299 174.094H409.716V176.714H413.299V174.094Z" fill="#DBDBDB"/>
<path d="M413.299 179.693H409.716V182.313H413.299V179.693Z" fill="#DBDBDB"/>
<path d="M413.299 185.302H409.716V187.922H413.299V185.302Z" fill="#DBDBDB"/>
<path d="M413.299 190.912H409.716V193.532H413.299V190.912Z" fill="#DBDBDB"/>
<path d="M413.299 196.511H409.716V199.131H413.299V196.511Z" fill="#DBDBDB"/>
<path d="M413.299 202.12H409.716V204.74H413.299V202.12Z" fill="#DBDBDB"/>
<path d="M418.451 168.484H414.868V171.104H418.451V168.484Z" fill="#DBDBDB"/>
<path d="M418.451 174.094H414.868V176.714H418.451V174.094Z" fill="#DBDBDB"/>
<path d="M418.451 179.693H414.868V182.313H418.451V179.693Z" fill="#DBDBDB"/>
<path d="M418.451 185.302H414.868V187.922H418.451V185.302Z" fill="#DBDBDB"/>
<path d="M418.451 190.912H414.868V193.532H418.451V190.912Z" fill="#DBDBDB"/>
<path d="M418.451 196.511H414.868V199.131H418.451V196.511Z" fill="#DBDBDB"/>
<path d="M418.451 202.12H414.868V204.74H418.451V202.12Z" fill="#DBDBDB"/>
<path d="M423.603 168.484H420.02V171.104H423.603V168.484Z" fill="#DBDBDB"/>
<path d="M423.603 174.094H420.02V176.714H423.603V174.094Z" fill="#DBDBDB"/>
<path d="M423.603 179.693H420.02V182.313H423.603V179.693Z" fill="#DBDBDB"/>
<path d="M423.603 185.302H420.02V187.922H423.603V185.302Z" fill="#DBDBDB"/>
<path d="M423.603 190.912H420.02V193.532H423.603V190.912Z" fill="#DBDBDB"/>
<path d="M423.603 196.511H420.02V199.131H423.603V196.511Z" fill="#DBDBDB"/>
<path d="M423.603 202.12H420.02V204.74H423.603V202.12Z" fill="#DBDBDB"/>
<path d="M426.793 160.32H413.299V164.788H426.793V160.32Z" fill="#DBDBDB"/>
<path d="M426.783 157.548H418.234V160.309H426.783V157.548Z" fill="#EBEBEB"/>
<path d="M441 164.777H426.783V207.61H441V164.777Z" fill="#A6A6A6"/>
<path d="M436.622 204.327H439.544V201.707H436.622V204.327Z" fill="#C7C7C7"/>
<path d="M436.622 198.718H439.544V196.098H436.622V198.718Z" fill="#C7C7C7"/>
<path d="M436.622 193.108H439.544V190.488H436.622V193.108Z" fill="#C7C7C7"/>
<path d="M436.622 187.509H439.544V184.889H436.622V187.509Z" fill="#C7C7C7"/>
<path d="M436.622 181.9H439.544V179.28H436.622V181.9Z" fill="#C7C7C7"/>
<path d="M436.622 176.301H439.544V173.681H436.622V176.301Z" fill="#C7C7C7"/>
<path d="M436.622 170.691H439.544V168.071H436.622V170.691Z" fill="#C7C7C7"/>
<path d="M432.431 204.327H435.352V201.707H432.431V204.327Z" fill="#C7C7C7"/>
<path d="M432.431 198.718H435.352V196.098H432.431V198.718Z" fill="#C7C7C7"/>
<path d="M432.431 193.108H435.352V190.488H432.431V193.108Z" fill="#C7C7C7"/>
<path d="M432.431 187.509H435.352V184.889H432.431V187.509Z" fill="#C7C7C7"/>
<path d="M432.431 181.9H435.352V179.28H432.431V181.9Z" fill="#C7C7C7"/>
<path d="M432.431 176.301H435.352V173.681H432.431V176.301Z" fill="#C7C7C7"/>
<path d="M432.431 170.691H435.352V168.071H432.431V170.691Z" fill="#C7C7C7"/>
<path d="M428.249 204.327H431.171V201.707H428.249V204.327Z" fill="#C7C7C7"/>
<path d="M428.249 198.718H431.171V196.098H428.249V198.718Z" fill="#C7C7C7"/>
<path d="M428.249 193.108H431.171V190.488H428.249V193.108Z" fill="#C7C7C7"/>
<path d="M428.249 187.509H431.171V184.889H428.249V187.509Z" fill="#C7C7C7"/>
<path d="M428.249 181.9H431.171V179.28H428.249V181.9Z" fill="#C7C7C7"/>
<path d="M428.249 176.301H431.171V173.681H428.249V176.301Z" fill="#C7C7C7"/>
<path d="M428.249 170.691H431.171V168.071H428.249V170.691Z" fill="#C7C7C7"/>
<path d="M438.842 160.32H426.783V164.788H438.842V160.32Z" fill="#C7C7C7"/>
<path d="M433.318 157.548H426.783V160.309H433.318V157.548Z" fill="#DBDBDB"/>
<path d="M4 207.611L58.6276 207.35L113.245 207.252L222.5 207.067L331.755 207.252L386.383 207.35L441 207.611L386.383 207.882L331.755 207.969L222.5 208.154L113.245 207.969L58.6276 207.871L4 207.611Z" fill="#263238"/>
<path d="M293.936 229.962H253.154L14.5208 473.883H216.305L293.936 229.962Z" fill="#6DDAD3"/>
<path d="M317.879 229.962H229.221L290.973 208.089L317.879 229.962Z" fill="#6DDAD3"/>
<path d="M121.701 259.815L96.2918 267.436L152.127 352.504L194.84 300.974L121.701 259.815Z" fill="#6DDAD3"/>
<path d="M145.117 252.792L68.5805 275.752L88.507 249.9L145.117 252.792Z" fill="#6DDAD3"/>
<path d="M377.793 259.815L391.049 267.436L199.652 373.595L239.061 300.974L377.793 259.815Z" fill="#6DDAD3"/>
<path d="M365.568 252.792L405.514 275.752L426.793 249.9L365.568 252.792Z" fill="#6DDAD3"/>
<g opacity="0.6">
<path opacity="0.6" d="M293.936 229.962H253.154L14.5208 473.883H216.305L293.936 229.962Z" fill="white"/>
<path opacity="0.6" d="M317.879 229.962H229.221L290.973 208.089L317.879 229.962Z" fill="white"/>
<path opacity="0.6" d="M121.701 259.815L96.2918 267.436L152.127 352.504L194.84 300.974L121.701 259.815Z" fill="white"/>
<path opacity="0.6" d="M145.117 252.792L68.5805 275.752L88.507 249.9L145.117 252.792Z" fill="white"/>
<path opacity="0.6" d="M377.793 259.815L391.049 267.436L199.652 373.595L239.061 300.974L377.793 259.815Z" fill="white"/>
<path opacity="0.6" d="M365.568 252.792L405.514 275.752L426.793 249.9L365.568 252.792Z" fill="white"/>
</g>
<path d="M145.375 494.31C219.366 494.31 279.347 489.107 279.347 482.689C279.347 476.27 219.366 471.067 145.375 471.067C71.3842 471.067 11.4028 476.27 11.4028 482.689C11.4028 489.107 71.3842 494.31 145.375 494.31Z" fill="#DBDBDB"/>
<path d="M19.3217 407.829C19.3217 407.829 14.4279 456.076 14.4279 456.108C14.5931 465.012 14.8925 472.828 15.4603 476.851C15.4555 476.872 15.4555 476.895 15.4603 476.916C15.4821 477.873 15.7154 478.811 16.1417 479.656C18.7023 481.395 68.3741 482.058 70.7384 481.243C73.1027 480.428 71.0894 473.263 68.4876 471.024C65.8858 468.784 58.0701 456.424 58.0701 456.424L62.5406 408.22L19.3217 407.829Z" fill="#F7A9A0"/>
<path d="M60.5273 458.609C56.2323 457 50.6983 456.815 46.8059 459.576C46.6614 459.685 46.8059 459.903 46.9504 459.881C51.3892 459.157 55.888 458.927 60.3724 459.196C60.4464 459.218 60.5254 459.207 60.5922 459.168C60.659 459.128 60.7081 459.062 60.7286 458.984C60.7492 458.906 60.7395 458.823 60.7017 458.752C60.664 458.682 60.6012 458.63 60.5273 458.609Z" fill="#263238"/>
<path d="M63.4286 461.174C59.1232 459.565 53.5892 459.381 49.7071 462.142C49.5522 462.251 49.7071 462.468 49.8517 462.446C54.2903 461.721 58.7893 461.492 63.2737 461.761C63.3476 461.783 63.4267 461.773 63.4935 461.733C63.5603 461.693 63.6093 461.627 63.6299 461.549C63.6504 461.472 63.6408 461.388 63.603 461.318C63.5652 461.248 63.5025 461.196 63.4286 461.174Z" fill="#263238"/>
<path d="M66.3194 463.74C62.0141 462.131 56.4904 461.946 52.598 464.708C52.4431 464.816 52.598 465.034 52.7425 465.012C57.1802 464.277 61.6802 464.047 66.1646 464.327C66.2385 464.349 66.3175 464.339 66.3844 464.299C66.4512 464.259 66.5002 464.193 66.5208 464.115C66.5413 464.037 66.5316 463.954 66.4939 463.884C66.4561 463.813 66.3934 463.762 66.3194 463.74Z" fill="#263238"/>
<path d="M71.8637 481.623C69.4994 482.45 18.7023 481.493 16.1108 479.743C15.0783 479.09 14.6447 468.708 14.3969 456.141V455.739L58.0907 455.663V456.445C58.0907 456.445 67.0112 469.187 69.6336 471.426C72.2561 473.666 74.2384 480.819 71.8637 481.623Z" fill="#37474F"/>
<path d="M14.4175 455.739V456.141C14.6653 468.708 15.1403 479.101 16.1314 479.743C17.2878 480.536 31.9694 481.102 47.8177 481.417C66.7944 481.787 70.5319 482.08 71.8638 481.634C74.2281 480.819 72.1942 473.644 69.6027 471.415C67.0112 469.187 58.0597 456.434 58.0597 456.434V455.652H43.4917L14.4175 455.739Z" fill="#455A64"/>
<path d="M71.1307 478.862C59.7736 478.449 30.5653 477.655 19.2598 478.166C19.1669 478.166 19.1669 478.232 19.2598 478.242C30.555 478.906 59.7117 479.33 71.1307 479.058C71.3682 479.047 71.3682 478.862 71.1307 478.862Z" fill="#263238"/>
<path opacity="0.1" d="M43.533 455.663C44.7204 463.338 46.5272 474.655 47.8281 481.395C66.8047 481.765 70.5422 482.058 71.8741 481.613C74.2384 480.797 72.2045 473.622 69.613 471.394C67.0215 469.165 58.0701 456.413 58.0701 456.413V455.63L43.533 455.663Z" fill="black"/>
<path d="M11.3925 456.598L60.4034 456.217C60.4034 456.217 65.0702 366.757 67.6307 338.893C70.79 304.04 74.8579 217.058 74.8579 217.058H33.0845C33.0845 217.058 23.5962 238.366 29.5844 262.054L23.5032 347.579L11.3925 456.598Z" fill="#263238"/>
<path d="M15.5429 447.498C16.8331 447.297 18.1323 447.166 19.4353 447.107C20.8808 446.976 22.3262 446.835 23.7717 446.748C26.5593 446.574 29.3366 446.476 32.1243 446.411C37.7512 446.291 43.3678 446.237 48.9947 446.324C52.185 446.324 55.3856 446.444 58.5863 446.585C58.6069 446.592 58.6249 446.606 58.6377 446.624C58.6504 446.643 58.6573 446.665 58.6573 446.688C58.6573 446.711 58.6504 446.733 58.6377 446.752C58.6249 446.771 58.6069 446.784 58.5863 446.792C53.0213 447.107 47.446 447.292 41.8707 447.509C36.2954 447.726 30.7305 447.933 25.1655 447.922C23.5652 447.922 21.9649 447.922 20.3749 447.857C18.7849 447.792 17.1433 447.911 15.5739 447.705C15.4707 447.683 15.4294 447.531 15.5429 447.498Z" fill="#37474F"/>
<path d="M57.7087 401.654C58.8857 388.26 59.9182 374.856 60.9093 361.429C62.8848 334.613 64.3818 307.758 65.4005 280.862C65.9787 265.772 66.433 250.683 66.7324 235.593C66.7324 235.419 66.9595 235.441 66.9595 235.593C66.8769 262.63 66.0097 289.689 64.6985 316.705C63.3872 343.72 61.6011 370.42 59.0922 397.153C57.6984 412.188 56.1497 427.212 54.1674 442.16C54.1722 442.175 54.1737 442.191 54.1716 442.206C54.1695 442.222 54.1639 442.236 54.1554 442.249C54.1468 442.262 54.1354 442.272 54.1222 442.279C54.1091 442.287 54.0944 442.29 54.0796 442.29C54.0648 442.29 54.0502 442.287 54.037 442.279C54.0238 442.272 54.0125 442.262 54.0039 442.249C53.9953 442.236 53.9897 442.222 53.9876 442.206C53.9855 442.191 53.987 442.175 53.9919 442.16C55.2411 428.702 56.5317 415.188 57.7087 401.654Z" fill="#37474F"/>
<path d="M79.8447 414.721C79.8447 414.721 80.9597 461.327 80.9597 461.359C81.1249 470.263 81.4243 478.079 81.9922 482.102C81.9874 482.123 81.9874 482.146 81.9922 482.167C82.0126 483.122 82.2423 484.06 82.6633 484.907V484.961C85.2135 486.711 152.871 487.363 155.266 486.548C157.661 485.733 155.617 478.569 153.005 476.329C150.393 474.09 124.581 461.642 124.581 461.642L123.053 415.08L79.8447 414.721Z" fill="#F7A9A0"/>
<path d="M80.7326 451.792C80.7326 451.792 80.9597 461.327 80.9597 461.359C81.1249 470.263 81.4244 478.079 81.9922 482.102C81.9874 482.123 81.9874 482.146 81.9922 482.167C82.1139 483.105 82.3391 484.024 82.6633 484.907V484.961C85.2135 486.711 152.871 487.364 155.266 486.548C157.661 485.733 155.617 478.569 153.005 476.329C150.393 474.09 124.581 461.642 124.581 461.642L124.478 451.934L80.7326 451.792Z" fill="white"/>
<path d="M128.742 461.598C124.22 460.903 118.758 461.848 115.454 465.349C115.33 465.479 115.516 465.675 115.661 465.621C119.891 463.982 124.277 462.831 128.742 462.185C128.803 462.168 128.857 462.129 128.895 462.076C128.934 462.023 128.955 461.959 128.955 461.892C128.955 461.825 128.934 461.76 128.895 461.707C128.857 461.654 128.803 461.616 128.742 461.598V461.598Z" fill="#263238"/>
<path d="M132.056 463.523C127.534 462.827 122.072 463.773 118.769 467.273C118.645 467.404 118.83 467.599 118.965 467.545C123.199 465.912 127.588 464.764 132.056 464.121C132.122 464.107 132.182 464.07 132.225 464.016C132.268 463.961 132.291 463.892 132.291 463.822C132.291 463.751 132.268 463.682 132.225 463.628C132.182 463.573 132.122 463.536 132.056 463.523V463.523Z" fill="#263238"/>
<path d="M135.371 465.447C130.848 464.751 125.387 465.697 122.083 469.198C121.948 469.328 122.083 469.524 122.279 469.469C126.513 467.836 130.902 466.688 135.371 466.045C135.437 466.031 135.496 465.994 135.539 465.94C135.582 465.885 135.605 465.817 135.605 465.746C135.605 465.675 135.582 465.606 135.539 465.552C135.496 465.497 135.437 465.46 135.371 465.447V465.447Z" fill="#263238"/>
<path d="M155.276 486.548C152.902 487.363 85.2341 486.711 82.6736 484.961C81.6928 484.32 81.2075 473.927 80.9597 461.359V460.957L124.623 460.87V461.653C124.623 461.653 150.393 474.144 153.015 476.318C155.638 478.492 157.651 485.744 155.276 486.548Z" fill="#455A64"/>
<path d="M154.533 483.776C143.176 483.374 97.0868 482.874 85.7917 483.385C85.6988 483.385 85.6988 483.45 85.7917 483.461C97.0868 484.124 143.124 484.233 154.533 483.972C154.771 483.928 154.781 483.787 154.533 483.776Z" fill="#263238"/>
<path d="M55.1069 266.022C55.1069 266.022 69.4891 332.338 70.0466 344.557C70.5216 354.994 77.7178 462.186 77.7178 462.186L128.556 461.598C128.556 461.598 115.774 352.385 114.804 341.513C112.997 321.184 101.929 265.62 88.9923 216.068L34.1892 217.036C34.1892 217.036 35.0771 243.127 46.6407 261.739C46.6717 261.75 51.803 264.142 55.1069 266.022Z" fill="#263238"/>
<path d="M80.2577 452.271C86.1324 451.988 92.2136 451.695 98.0986 451.749C103.984 451.803 109.765 451.749 115.589 452.042C118.892 452.195 122.186 452.249 125.49 452.543C125.593 452.543 125.593 452.716 125.49 452.727C119.636 453.184 113.74 453.217 107.855 453.271C101.97 453.325 96.1989 453.347 90.3655 453.173C87.0616 453.075 83.7681 452.956 80.4642 452.771C80.1028 452.749 79.9067 452.282 80.2577 452.271Z" fill="#37474F"/>
<path d="M67.6926 267.088C65.1624 267.11 62.6347 266.914 60.135 266.501C57.6537 265.962 55.2002 265.291 52.7838 264.49C50.3988 263.968 47.985 263.605 45.5566 263.402C43.1163 263.074 40.7341 262.374 38.4842 261.326C38.4652 261.323 38.4456 261.326 38.4284 261.335C38.4111 261.344 38.397 261.359 38.3879 261.377C38.3788 261.395 38.3753 261.415 38.3777 261.435C38.3802 261.455 38.3885 261.474 38.4016 261.489C40.5807 262.672 42.8497 263.661 45.1849 264.446C47.6112 265.207 50.1304 265.272 52.5877 265.859C55.0845 266.6 57.6223 267.177 60.1866 267.588C62.6987 267.868 65.2355 267.776 67.7236 267.316C67.8268 267.24 67.7855 267.088 67.6926 267.088Z" fill="#37474F"/>
<path d="M67.135 324.456C66.7737 322.282 66.433 320.162 66.0406 318.031C65.256 313.682 64.4507 309.388 63.5421 305.105C61.7456 296.582 60.073 288.015 58.1423 279.525C57.0479 274.719 56.0774 269.849 54.7558 265.12C54.7558 265 54.5803 265.044 54.5906 265.12C55.1482 269.469 56.0567 273.817 56.8311 278.166C57.6054 282.514 58.4624 286.787 59.309 291.092C61.0126 299.648 62.6542 308.214 64.5539 316.716C65.0908 319.096 65.5864 321.466 66.2265 323.836C66.8666 326.206 67.2589 328.739 68.0126 331.098C68.0126 331.124 68.0224 331.149 68.0399 331.168C68.0573 331.186 68.0809 331.196 68.1056 331.196C68.1302 331.196 68.1538 331.186 68.1713 331.168C68.1887 331.149 68.1985 331.124 68.1985 331.098C67.9817 328.826 67.5067 326.641 67.135 324.456Z" fill="#37474F"/>
<path d="M87.6811 245.291L92.8434 270.121L97.8921 294.984C99.575 303.268 101.186 311.574 102.807 319.879L105.171 332.349C105.553 334.425 105.956 336.534 106.203 338.654L106.844 344.981C108.413 361.854 109.913 378.73 111.345 395.609L113.41 420.939L115.382 446.281L112.904 420.994L110.509 395.685L105.832 345.09L105.212 338.774C105.016 336.676 104.624 334.632 104.262 332.544L101.939 320.075L97.1694 295.158L92.4098 270.23L87.6811 245.291Z" fill="#37474F"/>
<path d="M67.0422 153.058C63.6454 153.406 60.1659 147.927 59.722 143.339C59.722 143.002 60.4344 139.98 61.2707 136.24C61.7663 133.968 62.3031 131.413 62.5819 129.065L76.1588 134.642C74.9807 137.477 74.1348 140.452 73.6396 143.502C73.6091 143.827 73.6091 144.155 73.6396 144.48C73.6344 144.535 73.6344 144.589 73.6396 144.644C73.6602 146.524 70.3254 152.71 67.0422 153.058Z" fill="#F7A9A0"/>
<path d="M57.4919 109.181C55.6437 115.476 58.0391 131.25 62.2825 135.273C68.4773 141.187 78.5231 141.795 83.2931 134.001C87.9185 126.456 84.6559 106.55 79.9169 102.843C72.9375 97.4292 60.2279 99.8862 57.4919 109.181Z" fill="#F7A9A0"/>
<path d="M58.3385 105.996C58.3385 105.996 54.9004 109.877 54.4771 112.138C54.0538 114.399 54.4771 123.075 57.9875 128.608C59.2781 130.609 59.2058 134.794 61.3224 136.218C63.4389 137.642 73.0614 131.794 73.7119 130.065C74.3623 128.337 72.6794 122.694 72.3181 120.346C71.9567 117.998 74.5585 117.53 75.2606 117.922C79.6589 120.4 80.1751 126.554 80.5881 125.532C81.0011 124.51 82.3742 121.346 82.4568 119.085C82.5394 116.824 78.7297 109.997 78.8949 108.214C79.06 106.431 81.476 107.659 83.0247 107.377C83.9849 107.203 83.7474 101.115 82.4362 100.038C81.125 98.9621 78.3063 99.5056 77.0984 99.4187C75.8904 99.3317 74.4346 97.701 71.2133 97.614C67.9921 97.527 64.1513 99.3969 62.5923 100.038C60.1144 101.028 58.3385 105.996 58.3385 105.996Z" fill="#263238"/>
<path d="M78.9877 122.39C78.9877 122.39 75.3431 116.737 72.9168 118.096C70.4906 119.455 73.175 127.619 76.0142 128.771C76.3661 128.945 76.7478 129.043 77.1363 129.057C77.5248 129.072 77.9121 129.003 78.2748 128.856C78.6375 128.709 78.9682 128.485 79.2469 128.2C79.5255 127.915 79.7464 127.573 79.8963 127.195L78.9877 122.39Z" fill="#F7A9A0"/>
<path d="M73.7119 120.422C73.7119 120.422 73.6499 120.476 73.7119 120.498C75.6942 121.379 76.706 123.336 77.4184 125.358C77.3064 125.146 77.1521 124.962 76.966 124.819C76.78 124.676 76.5666 124.578 76.3408 124.53C76.115 124.482 75.882 124.487 75.6581 124.544C75.4341 124.6 75.2245 124.707 75.0437 124.858C75.0327 124.863 75.0233 124.871 75.0167 124.882C75.0101 124.892 75.0065 124.905 75.0065 124.917C75.0065 124.93 75.0101 124.943 75.0167 124.953C75.0233 124.964 75.0327 124.972 75.0437 124.977C75.3937 124.864 75.7685 124.868 76.1163 124.988C76.4641 125.109 76.7676 125.341 76.9848 125.651C77.3679 126.176 77.6935 126.745 77.9553 127.347C78.0482 127.543 78.3683 127.445 78.3063 127.228V127.173C78.3476 124.488 76.4272 120.727 73.7119 120.422Z" fill="#263238"/>
<path d="M21.3247 243.29C21.3763 243.356 36.2954 248.411 41.5403 248.411C42.3457 248.411 44.9681 238.235 45.5256 238.3C46.0832 238.366 47.4047 248.943 48.1274 248.933C64.4094 248.933 98.5219 243.899 98.8936 243.497C99.2653 243.095 93.659 221.091 93.1841 218.177C89.6118 196.228 84.1501 156.645 76.2517 145.752C72.6071 140.73 62.2412 138.49 58.8547 140.936C50.0581 147.285 46.2587 154.591 43.0374 162.516C40.6524 168.387 30.5652 208.676 29.1817 214.927C27.4472 222.787 21.0253 242.899 21.3247 243.29Z" fill="#6DDAD3"/>
<path d="M71.141 156.906C68.5289 181.345 68.2605 199.403 68.9212 204.501C70.6041 217.547 76.9228 240.377 79.3491 245.356C80.9184 248.617 110.24 245.356 108.795 241.757C103.88 229.495 92.0587 198.881 91.9038 198.446C90.8714 195.467 87.7224 174.279 83.5822 159.309C79.442 144.339 72.4729 144.491 71.141 156.906Z" fill="#F7A9A0"/>
<path d="M108.279 240.225C108.279 240.225 116.208 262.761 115.351 272.534C114.917 277.437 109.879 297.539 105.223 296.386C101 295.299 103.715 288.852 103.715 288.852C103.715 288.852 101.382 296.234 97.5204 293.831C93.659 291.429 97.9231 283.319 97.9231 283.319C97.9231 283.319 95.9614 291.331 92.0587 288.352C88.6619 285.765 92.6782 275.883 92.6782 275.883C92.6782 275.883 91.4909 284.58 87.774 282.253C83.6442 279.72 87.8979 264.109 87.8979 264.109C80.1544 256.086 78.9258 251.498 79.6382 243.845C79.7105 242.584 108.279 240.225 108.279 240.225Z" fill="#F7A9A0"/>
<path d="M97.0558 285.645C97.3759 284.993 97.6753 284.341 97.985 283.688C98.6103 282.43 99.1653 281.134 99.6473 279.807C100.102 278.503 100.494 277.187 100.845 275.861C101.196 274.535 101.464 272.991 101.877 271.599C101.882 271.586 101.884 271.572 101.882 271.558C101.88 271.544 101.875 271.531 101.868 271.52C101.86 271.508 101.85 271.499 101.838 271.492C101.826 271.486 101.813 271.482 101.8 271.482C101.787 271.482 101.774 271.486 101.762 271.492C101.75 271.499 101.74 271.508 101.732 271.52C101.725 271.531 101.72 271.544 101.718 271.558C101.716 271.572 101.718 271.586 101.723 271.599C101.329 272.984 100.864 274.345 100.329 275.676C99.8435 276.992 99.3479 278.307 98.8523 279.623C98.3567 280.938 97.9644 282.221 97.5101 283.515C97.283 284.167 97.0249 284.808 96.7771 285.439C96.4986 286.029 96.2706 286.644 96.0956 287.276C96.0956 287.33 96.1576 287.363 96.1989 287.276C96.5364 286.765 96.8236 286.218 97.0558 285.645V285.645Z" fill="#263238"/>
<path d="M103.199 290.418C104.437 288.126 105.524 285.746 106.451 283.297C107.347 280.836 108.008 278.287 108.423 275.687C108.423 275.667 108.416 275.648 108.402 275.633C108.389 275.619 108.37 275.611 108.351 275.611C108.332 275.611 108.313 275.619 108.3 275.633C108.286 275.648 108.279 275.667 108.279 275.687C107.37 278.144 106.503 280.634 105.636 283.112C105.202 284.33 103.116 289.776 102.962 290.374C102.92 290.418 103.127 290.483 103.199 290.418Z" fill="#263238"/>
<path d="M91.1811 281.362C92.2986 279.182 93.2782 276.927 94.1133 274.611C94.754 272.165 95.2199 269.672 95.5071 267.153C95.5071 267.066 95.3832 267.023 95.3626 267.153C94.7121 269.588 94.103 272.034 93.2977 274.426C92.926 275.6 91.2328 280.177 90.9333 281.329C90.9746 281.384 91.1192 281.449 91.1811 281.362Z" fill="#263238"/>
<path d="M76.0349 244.888L108.289 234.648C108.289 234.648 93.8345 200.294 92.4097 197.402C90.9849 194.51 87.6088 168.05 83.0247 155.83C78.4405 143.611 72.2148 141.545 70.1395 157.896C68.0643 174.246 67.8681 196.717 68.1469 204.001C68.4257 211.285 76.0349 244.888 76.0349 244.888Z" fill="#6DDAD3"/>
<path d="M103.818 228.027C102.6 228.201 101.413 228.625 100.205 228.929C98.9969 229.234 97.8199 229.571 96.6325 229.93C94.3405 230.604 92.0587 231.321 89.7873 232.049L82.9627 234.224C80.6087 234.985 78.1824 235.648 75.8903 236.605C75.8684 236.605 75.8474 236.614 75.8319 236.63C75.8164 236.646 75.8077 236.669 75.8077 236.692C75.8077 236.715 75.8164 236.737 75.8319 236.753C75.8474 236.769 75.8684 236.779 75.8903 236.779C78.296 236.289 80.681 235.463 83.0453 234.767L90.0454 232.713C92.3788 232.017 94.7121 231.31 97.0352 230.538C98.1709 230.169 99.3066 229.799 100.432 229.386C101.584 229.028 102.718 228.607 103.829 228.125C103.973 228.136 103.901 228.016 103.818 228.027Z" fill="#263238"/>
<path d="M78.7709 244.019L76.0556 244.986H75.9626V244.888C74.352 238.246 72.8653 231.56 71.4405 224.874L69.3755 214.797C68.7354 211.426 68.0643 208.078 67.6513 204.632C67.3885 201.189 67.3161 197.734 67.4345 194.282C67.4964 190.847 67.6616 187.422 67.8578 183.998C68.2605 177.149 68.787 170.311 69.4891 163.484C69.1587 170.333 68.849 177.182 68.6012 184.031C68.3534 190.879 68.0333 197.772 68.6012 204.501C69.5717 211.231 70.9036 217.971 72.2045 224.679L76.0452 244.845L75.9317 244.78L78.7709 244.019Z" fill="#263238"/>
<path d="M68.2811 165.462L68.4566 166.962L68.6631 168.43C68.7974 169.419 68.9729 170.398 69.0452 171.42C68.602 170.509 68.3021 169.529 68.1572 168.517C67.9915 167.501 68.0337 166.46 68.2811 165.462V165.462Z" fill="#263238"/>
<path d="M149.278 84.9488C148.786 89.9148 146.993 94.6393 144.1 98.5948C141.206 102.55 137.326 105.581 132.891 107.349C128.457 109.117 123.643 109.553 118.987 108.608C114.331 107.662 110.016 105.373 106.524 101.995L93.721 103.974L100.133 92.3196C98.5316 88.2176 97.9283 83.7597 98.3774 79.3501C98.7265 75.8309 99.7306 72.4186 101.332 69.308C102.934 66.1975 105.101 63.4495 107.712 61.221C110.322 58.9926 113.323 57.3272 116.544 56.3202C119.766 55.3131 123.144 54.984 126.486 55.3516C129.828 55.7192 133.069 56.7764 136.023 58.4627C138.977 60.1491 141.587 62.4316 143.703 65.1799C145.82 67.9283 147.401 71.0887 148.358 74.4806C149.314 77.8726 149.627 81.4297 149.278 84.9488V84.9488Z" fill="white"/>
<path d="M149.278 84.9489C148.787 89.9182 147 94.6478 144.115 98.6142C142.706 100.613 141.013 102.373 139.098 103.833C137.206 105.341 135.12 106.56 132.903 107.453C130.695 108.363 128.377 108.945 126.016 109.181C124.832 109.295 123.642 109.317 122.454 109.246C121.266 109.223 120.082 109.095 118.913 108.866C114.194 107.951 109.811 105.67 106.255 102.278L106.554 102.376L93.7726 104.452L92.8434 104.594L93.308 103.735L99.6783 92.0588V92.5154C98.1769 88.6525 97.5386 84.4781 97.8125 80.3143C98.0864 76.1504 99.2652 72.1085 101.258 68.5005C103.25 64.9085 105.989 61.8384 109.27 59.5207C112.548 57.2356 116.275 55.7611 120.171 55.2076C124.067 54.6541 128.031 55.0359 131.767 56.3245C135.465 57.6517 138.836 59.8277 141.638 62.6952C144.426 65.5548 146.563 69.0431 147.886 72.8977C149.209 76.7523 149.685 80.8727 149.278 84.9489V84.9489ZM149.278 84.9489C149.694 80.8899 149.219 76.7845 147.889 72.9493C146.56 69.1142 144.412 65.6517 141.611 62.8292C138.809 60.0066 135.43 57.8992 131.732 56.6697C128.035 55.4401 124.119 55.1212 120.286 55.7375C116.493 56.3187 112.877 57.8062 109.714 60.086C106.589 62.4036 103.976 65.4034 102.053 68.881C100.165 72.3744 99.0565 76.2741 98.811 80.2851C98.571 84.2909 99.1848 88.3025 100.607 92.0262L100.7 92.2654L100.577 92.4828L94.134 104.115L93.6797 103.409L106.493 101.517H106.668L106.792 101.647C110.211 105.018 114.455 107.318 119.047 108.29C120.193 108.542 121.357 108.691 122.527 108.736C123.692 108.822 124.861 108.822 126.027 108.736C128.364 108.544 130.665 108.01 132.862 107.148C135.077 106.304 137.164 105.125 139.056 103.648C139.998 102.911 140.898 102.116 141.751 101.267C142.583 100.391 143.362 99.4614 144.084 98.4838C146.963 94.5597 148.76 89.877 149.278 84.9489V84.9489Z" fill="#263238"/>
<path d="M125.748 85.9708V89.4388C125.756 89.7853 125.698 90.13 125.576 90.4519C125.454 90.7739 125.271 91.0663 125.038 91.3114C124.805 91.5565 124.528 91.7491 124.222 91.8776C123.916 92.0061 123.589 92.0678 123.26 92.0588C122.6 92.0588 121.967 91.7828 121.5 91.2914C121.034 90.8001 120.772 90.1337 120.772 89.4388V83.8618C120.772 83.8618 120.823 83.8618 120.823 83.7531C120.823 83.6443 120.772 83.7531 120.772 83.6443C120.792 82.9574 121.061 82.3048 121.524 81.8199C121.986 81.3349 122.607 81.0543 123.26 81.0352C124.034 81.0844 124.81 80.9662 125.54 80.688C126.269 80.4098 126.937 79.9773 127.502 79.4173C128.067 78.8572 128.517 78.1814 128.825 77.4314C129.132 76.6813 129.291 75.873 129.291 75.0559C129.291 74.2389 129.132 73.4305 128.825 72.6805C128.517 71.9305 128.067 71.2547 127.502 70.6946C126.937 70.1345 126.269 69.7021 125.54 69.4239C124.81 69.1456 124.034 69.0275 123.26 69.0767C122.274 69.0728 121.305 69.342 120.45 69.8572C119.594 70.3724 118.883 71.1155 118.387 72.0119C118.223 72.3165 118.003 72.5836 117.74 72.7976C117.477 73.0117 117.176 73.1683 116.855 73.2584C116.534 73.3485 116.199 73.3703 115.87 73.3224C115.541 73.2745 115.224 73.1579 114.938 72.9795C114.658 72.8049 114.413 72.5735 114.218 72.2988C114.023 72.0242 113.882 71.7116 113.802 71.3791C113.723 71.0466 113.706 70.7008 113.754 70.3616C113.802 70.0224 113.913 69.6965 114.081 69.4028C114.966 67.7917 116.218 66.4375 117.724 65.462C119.229 64.4865 120.941 63.9204 122.706 63.8145C124.471 63.7086 126.233 64.0662 127.834 64.8553C129.435 65.6443 130.825 66.84 131.878 68.3348C132.931 69.8297 133.615 71.5767 133.868 73.4189C134.121 75.2611 133.936 77.1406 133.328 78.8884C132.72 80.6362 131.709 82.1975 130.386 83.4319C129.063 84.6662 127.469 85.535 125.748 85.9599V85.9708ZM125.748 97.6684V98.6251C125.756 98.9716 125.698 99.3163 125.576 99.6383C125.454 99.9602 125.271 100.253 125.038 100.498C124.805 100.743 124.528 100.935 124.222 101.064C123.916 101.192 123.589 101.254 123.26 101.245C122.6 101.245 121.967 100.969 121.5 100.478C121.034 99.9864 120.772 99.32 120.772 98.6251V97.6684C120.78 96.9762 121.044 96.3147 121.509 95.8252C121.974 95.3356 122.602 95.0569 123.26 95.0484C123.588 95.044 123.913 95.1088 124.217 95.2389C124.521 95.3691 124.797 95.5619 125.028 95.806C125.26 96.0502 125.443 96.3408 125.567 96.6606C125.691 96.9805 125.752 97.3232 125.748 97.6684V97.6684Z" fill="#6DDAD3"/>
<path d="M253.216 354.189H281.092C281.092 354.189 280.173 350.047 278.315 349.754C277.76 349.7 277.202 349.828 276.718 350.12C276.234 350.411 275.847 350.853 275.61 351.384C275.61 351.384 275.693 345.612 272.234 344.622C268.775 343.633 265.884 348.743 265.884 348.743C265.884 348.743 263.716 345.84 260.722 346.025C257.728 346.21 257.026 351.015 257.026 351.015C257.026 351.015 254.403 349.341 253.216 354.189Z" fill="#455A64"/>
<path d="M233.392 467.849H292.346C292.346 467.849 292.212 458.609 286.409 456.152C284.843 455.446 283.102 455.292 281.446 455.713C279.79 456.134 278.308 457.108 277.221 458.489C277.221 458.489 274.805 441.53 264.005 441.53C253.205 441.53 248.043 456.184 248.043 456.184C248.043 456.184 245.617 451.76 239.629 452.586C233.64 453.412 233.392 467.849 233.392 467.849Z" fill="#455A64"/>
<path d="M262.291 471.23H324.001C324.001 471.23 321.936 462.066 317.879 461.446C313.821 460.827 311.88 465.045 311.88 465.045C311.88 465.045 312.066 452.26 304.426 450.086C296.786 447.911 290.374 459.196 290.374 459.196C290.374 459.196 285.583 452.76 279.017 453.173C272.451 453.586 270.83 464.218 270.83 464.218C270.83 464.218 264.924 460.511 262.291 471.23Z" fill="#37474F"/>
<path d="M437.552 390.858H395.541C395.541 390.858 395.634 384.27 399.764 382.531C400.884 382.017 402.133 381.902 403.321 382.202C404.51 382.502 405.573 383.201 406.351 384.194C406.351 384.194 408.034 372.083 415.736 372.083C423.438 372.083 427.093 382.531 427.093 382.531C427.745 381.532 428.66 380.755 429.726 380.297C430.792 379.839 431.962 379.72 433.091 379.954C437.386 380.541 437.552 390.858 437.552 390.858Z" fill="#455A64"/>
<path d="M412.545 400.219C412.545 400.219 410.264 389.043 405.731 387.325C401.199 385.607 398.421 390.587 398.421 390.587C398.421 390.587 397.389 379.911 390.915 376.715C384.442 373.519 379.641 380.063 379.641 380.063C379.641 380.063 374.706 366.517 365.878 366.517C357.051 366.517 352.59 386.401 352.59 386.401C352.59 386.401 347.376 380.498 342.039 383.835C336.701 387.173 336.701 400.251 336.701 400.251L412.545 400.219Z" fill="#37474F"/>
<path d="M247.936 430.943L160.383 431.04L160.439 486.897L247.992 486.801L247.936 430.943Z" fill="#6DDAD3"/>
<path opacity="0.1" d="M247.926 430.944L160.373 431.04L160.399 457.338L247.952 457.241L247.926 430.944Z" fill="black"/>
<path d="M249.982 422.733L158.29 422.834L158.315 448.904L250.008 448.803L249.982 422.733Z" fill="#6DDAD3"/>
<path d="M223.419 407.894L223.44 422.766L216.79 422.777V414.308L191.464 414.341V422.799L184.825 422.81L184.815 407.937L223.419 407.894Z" fill="#263238"/>
<path d="M176.894 442.643L170.916 442.65L170.928 455.098L176.906 455.091L176.894 442.643Z" fill="#263238"/>
<path d="M237.416 442.588L231.438 442.594L231.451 455.042L237.429 455.035L237.416 442.588Z" fill="#263238"/>
</g>
<defs>
<filter id="filter0_d_24_2835" x="0" y="3.12677" width="445" height="499.184" filterUnits="userSpaceOnUse" color-interpolation-filters="sRGB">
<feFlood flood-opacity="0" result="BackgroundImageFix"/>
<feColorMatrix in="SourceAlpha" type="matrix" values="0 0 0 0 0 0 0 0 0 0 0 0 0 0 0 0 0 0 127 0" result="hardAlpha"/>
<feOffset dy="4"/>
<feGaussianBlur stdDeviation="2"/>
<feComposite in2="hardAlpha" operator="out"/>
<feColorMatrix type="matrix" values="0 0 0 0 0 0 0 0 0 0 0 0 0 0 0 0 0 0 0.25 0"/>
<feBlend mode="normal" in2="BackgroundImageFix" result="effect1_dropShadow_24_2835"/>
<feBlend mode="normal" in="SourceGraphic" in2="effect1_dropShadow_24_2835" result="shape"/>
</filter>
</defs>
</svg>
