<svg width="94" height="100" viewBox="0 0 94 100" fill="none" xmlns="http://www.w3.org/2000/svg">
<path d="M42.3 59.9483H32.9C32.9 48.0238 37.3566 36.5878 45.2894 28.1559C53.2222 19.724 63.9813 14.9871 75.2 14.9871V24.9785C57.011 24.9785 42.3 40.615 42.3 59.9483ZM75.2 44.9612V34.9698C62.228 34.9698 51.7 46.1602 51.7 59.9483H61.1C61.1 51.6554 67.398 44.9612 75.2 44.9612ZM23.5 9.99138C23.5 4.44616 19.317 0 14.1 0C8.883 0 4.7 4.44616 4.7 9.99138C4.7 15.5366 8.883 19.9828 14.1 19.9828C19.317 19.9828 23.5 15.5366 23.5 9.99138ZM44.415 12.4892H35.015C34.4696 15.979 32.7766 19.1497 30.2376 21.4368C27.6985 23.7239 24.4782 24.979 21.15 24.9785H7.05C3.149 24.9785 0 28.3256 0 32.472V44.9612H28.2V33.671C32.5547 32.2112 36.4114 29.427 39.2932 25.6624C42.1751 21.8978 43.9557 17.318 44.415 12.4892V12.4892ZM79.9 74.9354C85.117 74.9354 89.3 70.4892 89.3 64.944C89.3 59.3988 85.117 54.9526 79.9 54.9526C74.683 54.9526 70.5 59.3988 70.5 64.944C70.5 70.4892 74.683 74.9354 79.9 74.9354ZM86.95 79.9311H72.85C69.5218 79.9316 66.3015 78.6765 63.7624 76.3894C61.2234 74.1023 59.5304 70.9316 58.985 67.4418H49.585C50.0443 72.2706 51.8249 76.8504 54.7068 80.615C57.5886 84.3796 61.4453 87.1638 65.8 88.6236V99.9138H94V87.4246C94 83.2782 90.851 79.9311 86.95 79.9311Z" fill="#132235"/>
</svg>
