<svg width="30" height="30" viewBox="0 0 30 30" fill="none" xmlns="http://www.w3.org/2000/svg">
<path d="M5.47782 0C2.44335 0 0 2.44334 0 5.47781V24.5222C0 27.5566 2.44335 30 5.47782 30H15.7997V18.2719H12.6985V14.0494H15.7997V10.4419C15.7997 7.60762 17.6321 5.00531 21.8531 5.00531C23.5622 5.00531 24.826 5.16938 24.826 5.16938L24.7266 9.11251C24.7266 9.11251 23.4377 9.10033 22.0312 9.10033C20.5091 9.10033 20.265 9.80167 20.265 10.966V14.0494H24.8475L24.6478 18.2719H20.265V30H24.5222C27.5566 30 30 27.5567 30 24.5222V5.47784C30 2.44338 27.5566 2.99999e-05 24.5222 2.99999e-05H5.47779L5.47782 0Z" fill="white"/>
</svg>
