<svg width="94" height="100" viewBox="0 0 94 100" fill="none" xmlns="http://www.w3.org/2000/svg">
<path d="M4.74787 0L0 5.04313L8.36392 20.4068L13.788 19.5618L46.8966 54.7331L44.0724 57.6138C42.626 59.1501 42.626 61.4777 44.0724 63.0141L45.5405 64.5774C46.987 66.1137 49.2 66.1137 50.2848 64.5774L54.5807 69.1365C54.2191 71.4411 54.5807 74.1797 56.3887 76.1001L75.9371 96.7451C79.9147 100.97 86.4236 100.97 90.4013 96.7451C95.1021 92.1359 95.0587 85.2453 91.0811 81.0203L71.6448 60.2525C69.8368 58.332 67.2585 57.5638 65.0889 58.332L60.341 53.7729C61.4259 52.2365 61.4259 49.8858 60.341 48.7297L58.985 47.2932C58.6563 46.9291 58.2616 46.6394 57.8248 46.4415C57.3879 46.2435 56.9179 46.1415 56.4429 46.1415C55.968 46.1415 55.498 46.2435 55.0611 46.4415C54.6242 46.6394 54.2296 46.9291 53.9009 47.2932L51.5287 49.8129L18.4202 14.6454L19.2085 8.88404L4.74426 0L4.74787 0ZM75.2609 0.119068C68.1264 -0.510842 58.6668 4.51308 54.2408 8.8802C48.795 14.6646 49.6845 22.2274 54.0129 29.529L46.3325 37.6909L51.7565 44.1706C54.6494 41.4819 58.9163 41.4819 61.8092 44.1706L63.2809 45.73L63.6208 46.091L66.7848 42.7302C73.3227 46.8131 80.1281 47.4008 85.3171 41.8891C90.3796 36.8959 95.8687 24.5819 93.3375 17.2841L83.1692 28.4458C81.7227 29.9822 79.5314 29.9822 78.085 28.4458L67.5731 17.2841C67.2303 16.935 66.9576 16.5158 66.7712 16.0517C66.5849 15.5877 66.4888 15.0884 66.4888 14.584C66.4888 14.0795 66.5849 13.5802 66.7712 13.1162C66.9576 12.6522 67.2303 12.233 67.5731 11.8838L78.0886 0.722093C77.1846 0.384092 76.2806 0.211251 75.2609 0.119068ZM35.4843 48.0115L22.3725 61.9348C20.9635 61.6023 19.5235 61.4412 18.0803 61.4547C7.95531 61.4547 0 69.9047 0 80.6593C0 91.4139 7.95531 99.8639 18.0803 99.8639C28.2052 99.8639 36.1605 91.4139 36.1605 80.6593C36.1605 78.6889 35.8676 76.7953 35.3686 75.017L43.0527 66.855L41.9245 65.2956C39.0317 62.2229 39.0533 57.5677 41.5846 54.4911L35.4807 48.0115H35.4843ZM63.5087 65.5376C63.9607 65.5376 64.3874 65.6298 64.749 66.0177L86.109 88.7022C86.8322 89.4704 86.8322 90.6918 86.109 91.46C85.3858 92.2281 84.2287 92.2281 83.5055 91.46L62.1527 68.7755C61.4295 68.0073 61.4295 66.7859 62.1527 66.0177C62.5143 65.6336 63.0567 65.5376 63.5087 65.5376ZM20.5681 70.6921L27.4603 78.0167L24.9724 87.9762L15.596 90.6188L8.70022 83.2942L11.1881 73.3347L20.5681 70.6921Z" fill="#132235"/>
</svg>
